<svg width="138" height="40" viewBox="0 0 138 40" fill="none" xmlns="http://www.w3.org/2000/svg">
<path d="M132.889 0H5.11111C2.28832 0 0 2.23858 0 5V35C0 37.7614 2.28832 40 5.11111 40H132.889C135.712 40 138 37.7614 138 35V5C138 2.23858 135.712 0 132.889 0Z" fill="black"/>
<path d="M132.889 0.8C134.028 0.8 135.12 1.2425 135.925 2.03015C136.73 2.8178 137.182 3.88609 137.182 5V35C137.182 36.1139 136.73 37.1822 135.925 37.9698C135.12 38.7575 134.028 39.2 132.889 39.2H5.11111C3.97245 39.2 2.88042 38.7575 2.07527 37.9698C1.27011 37.1822 0.817778 36.1139 0.817778 35V5C0.817778 3.88609 1.27011 2.8178 2.07527 2.03015C2.88042 1.2425 3.97245 0.8 5.11111 0.8H132.889ZM132.889 0H5.11111C3.75556 0 2.45553 0.526784 1.49701 1.46447C0.538491 2.40215 0 3.67392 0 5V35C0 36.3261 0.538491 37.5979 1.49701 38.5355C2.45553 39.4732 3.75556 40 5.11111 40H132.889C134.244 40 135.544 39.4732 136.503 38.5355C137.462 37.5979 138 36.3261 138 35V5C138 3.67392 137.462 2.40215 136.503 1.46447C135.544 0.526784 134.244 0 132.889 0Z" fill="#A6A6A6"/>
<path d="M48.4738 10.24C48.4906 10.6067 48.4313 10.973 48.2996 11.3167C48.1678 11.6604 47.9663 11.9745 47.7072 12.24C47.4168 12.5333 47.0663 12.7633 46.6788 12.9149C46.2912 13.0666 45.8753 13.1364 45.4583 13.12C45.0388 13.1291 44.6219 13.054 44.2333 12.8992C43.8447 12.7444 43.4928 12.5132 43.1992 12.22C42.6035 11.6239 42.27 10.8235 42.27 9.98997C42.27 9.15644 42.6035 8.35601 43.1992 7.75997C43.6546 7.32466 44.2313 7.03071 44.857 6.91506C45.4826 6.79942 46.1292 6.86723 46.7156 7.10997C47.0842 7.25821 47.413 7.48746 47.6765 7.77997L47.1347 8.30997C46.9317 8.07075 46.6745 7.88111 46.3835 7.75613C46.0925 7.63114 45.7757 7.57425 45.4583 7.58997C45.0576 7.59269 44.6637 7.69137 44.311 7.87739C43.9583 8.06341 43.6575 8.33112 43.435 8.6571C43.2125 8.98309 43.075 9.35743 43.0345 9.74741C42.994 10.1374 43.0518 10.5311 43.2027 10.8942C43.3537 11.2573 43.5933 11.5787 43.9006 11.8303C44.2078 12.0819 44.5734 12.2561 44.9654 12.3375C45.3573 12.419 45.7637 12.4053 46.149 12.2976C46.5343 12.19 46.8868 11.9917 47.1756 11.72C47.4878 11.3851 47.6689 10.9529 47.6867 10.5H45.4583V9.77997H48.4329C48.4562 9.93234 48.4699 10.086 48.4738 10.24Z" fill="white" stroke="white" stroke-width="0.411304" stroke-miterlimit="10"/>
<path d="M53.1555 7.74002H50.3955V9.64002H52.9101V10.36H50.3955V12.26H53.1555V13H49.5981V7.00002H53.1555V7.74002Z" fill="white" stroke="white" stroke-width="0.411304" stroke-miterlimit="10"/>
<path d="M56.5085 13H55.7214V7.74002H54.004V7.00002H58.2667V7.74002H56.5085V13Z" fill="white" stroke="white" stroke-width="0.411304" stroke-miterlimit="10"/>
<path d="M61.272 13V7.00002H62.0591V13H61.272Z" fill="white" stroke="white" stroke-width="0.411304" stroke-miterlimit="10"/>
<path d="M65.5551 13H64.768V7.74002H63.0507V7.00002H67.2622V7.74002H65.5551V13Z" fill="white" stroke="white" stroke-width="0.411304" stroke-miterlimit="10"/>
<path d="M75.2458 12.22C74.9506 12.5091 74.6 12.7384 74.2141 12.8948C73.8282 13.0513 73.4146 13.1318 72.9969 13.1318C72.5792 13.1318 72.1656 13.0513 71.7797 12.8948C71.3938 12.7384 71.0433 12.5091 70.748 12.22C70.1701 11.6191 69.8484 10.8251 69.8484 10C69.8484 9.17495 70.1701 8.38096 70.748 7.78001C71.0369 7.48281 71.3863 7.24824 71.7737 7.09149C72.1611 6.93473 72.5778 6.85928 72.9969 6.87001C73.4154 6.86353 73.8308 6.94093 74.2176 7.09743C74.6043 7.25393 74.9543 7.48623 75.2458 7.78001C75.5397 8.0725 75.7708 8.41964 75.9253 8.80094C76.0798 9.18223 76.1546 9.58995 76.1453 10C76.1588 10.4106 76.0858 10.8195 75.9311 11.2013C75.7764 11.5832 75.5431 11.9299 75.2458 12.22ZM71.3307 11.72C71.5485 11.9359 71.8079 12.1073 72.0939 12.2243C72.3799 12.3413 72.6869 12.4015 72.9969 12.4015C73.3069 12.4015 73.6139 12.3413 73.8999 12.2243C74.1859 12.1073 74.4454 11.9359 74.6631 11.72C75.1042 11.2511 75.349 10.6372 75.349 10C75.349 9.36281 75.1042 8.74888 74.6631 8.28001C74.4454 8.06413 74.1859 7.89272 73.8999 7.77573C73.6139 7.65873 73.3069 7.59849 72.9969 7.59849C72.6869 7.59849 72.3799 7.65873 72.0939 7.77573C71.8079 7.89272 71.5485 8.06413 71.3307 8.28001C70.8896 8.74888 70.6448 9.36281 70.6448 10C70.6448 10.6372 70.8896 11.2511 71.3307 11.72Z" fill="white" stroke="white" stroke-width="0.411304" stroke-miterlimit="10"/>
<path d="M77.2595 13V7.00002H78.2102L81.1951 11.67V10.51V7.00002H81.9822V13H81.1644L78.0466 8.11002V9.26002V13H77.2595Z" fill="white" stroke="white" stroke-width="0.411304" stroke-miterlimit="10"/>
<path d="M69.6542 21.75C68.793 21.752 67.9516 22.0037 67.2367 22.4735C66.5217 22.9432 65.9651 23.6098 65.6374 24.389C65.3097 25.1681 65.2255 26.0249 65.3955 26.8509C65.5655 27.6768 65.9821 28.4349 66.5925 29.0293C67.2029 29.6237 67.9798 30.0276 68.825 30.1901C69.6701 30.3525 70.5454 30.2661 71.3404 29.9419C72.1353 29.6176 72.8141 29.07 73.2909 28.3684C73.7677 27.6667 74.0212 26.8425 74.0191 26C74.0275 25.4379 73.9201 24.88 73.7034 24.3593C73.4868 23.8387 73.1652 23.366 72.758 22.9695C72.3507 22.5729 71.866 22.2606 71.3328 22.0511C70.7996 21.8416 70.2288 21.7392 69.6542 21.75ZM69.6542 28.58C69.1263 28.6161 68.5996 28.496 68.1423 28.2354C67.6851 27.9747 67.3186 27.5855 67.0905 27.1184C66.8624 26.6513 66.7832 26.1279 66.8632 25.6161C66.9433 25.1044 67.1788 24.6281 67.5392 24.249C67.8997 23.87 68.3683 23.6058 68.8843 23.4908C69.4002 23.3757 69.9396 23.4152 70.4323 23.6041C70.9251 23.7929 71.3483 24.1224 71.6471 24.5497C71.9458 24.977 72.1063 25.4823 72.1076 26C72.124 26.328 72.0732 26.6559 71.9581 26.9644C71.8429 27.2729 71.6658 27.5557 71.4371 27.7962C71.2085 28.0366 70.9329 28.2299 70.6267 28.3645C70.3205 28.4991 69.9899 28.5724 69.6542 28.58ZM60.1271 21.75C59.2659 21.752 58.4245 22.0037 57.7095 22.4735C56.9945 22.9432 56.438 23.6098 56.1103 24.389C55.7825 25.1681 55.6984 26.0249 55.8684 26.8509C56.0384 27.6768 56.4549 28.4349 57.0654 29.0293C57.6758 29.6237 58.4527 30.0276 59.2978 30.1901C60.143 30.3525 61.0183 30.2661 61.8133 29.9419C62.6082 29.6176 63.287 29.07 63.7638 28.3684C64.2406 27.6667 64.494 26.8425 64.492 26C64.5004 25.4379 64.393 24.88 64.1763 24.3593C63.9597 23.8387 63.6381 23.366 63.2309 22.9695C62.8236 22.5729 62.3389 22.2606 61.8057 22.0511C61.2725 21.8416 60.7016 21.7392 60.1271 21.75ZM60.1271 28.58C59.5992 28.6161 59.0724 28.496 58.6152 28.2354C58.158 27.9747 57.7915 27.5855 57.5634 27.1184C57.3353 26.6513 57.2561 26.1279 57.3361 25.6161C57.4162 25.1044 57.6517 24.6281 58.0121 24.249C58.3726 23.87 58.8412 23.6058 59.3572 23.4908C59.8731 23.3757 60.4125 23.4152 60.9052 23.6041C61.3979 23.7929 61.8212 24.1224 62.12 24.5497C62.4187 24.977 62.5792 25.4823 62.5805 26C62.5969 26.328 62.5461 26.6559 62.4309 26.9644C62.3158 27.2729 62.1387 27.5557 61.91 27.7962C61.6814 28.0366 61.4058 28.2299 61.0996 28.3645C60.7934 28.4991 60.4627 28.5724 60.1271 28.58ZM48.8009 23.06V24.86H53.2169C53.1477 25.7078 52.7874 26.5078 52.1947 27.13C51.7517 27.5715 51.2189 27.9171 50.6308 28.1445C50.0427 28.3719 49.4123 28.476 48.7805 28.45C47.4791 28.45 46.2311 27.9443 45.3109 27.0441C44.3907 26.1439 43.8738 24.923 43.8738 23.65C43.8738 22.3769 44.3907 21.156 45.3109 20.2559C46.2311 19.3557 47.4791 18.85 48.7805 18.85C50.028 18.8318 51.2327 19.2953 52.1334 20.14L53.4316 18.87C52.8223 18.2805 52.0989 17.8159 51.3038 17.5033C50.5086 17.1908 49.6577 17.0367 48.8009 17.05C47.8921 17.0154 46.9856 17.1606 46.1356 17.4769C45.2856 17.7933 44.5096 18.2742 43.8541 18.891C43.1987 19.5077 42.6772 20.2476 42.321 21.0662C41.9648 21.8848 41.7812 22.7653 41.7812 23.655C41.7812 24.5447 41.9648 25.4252 42.321 26.2438C42.6772 27.0624 43.1987 27.8022 43.8541 28.419C44.5096 29.0357 45.2856 29.5167 46.1356 29.833C46.9856 30.1494 47.8921 30.2946 48.8009 30.26C49.6753 30.2941 50.5473 30.147 51.3594 29.8281C52.1716 29.5093 52.9056 29.026 53.5133 28.41C54.5868 27.2564 55.1588 25.7392 55.108 24.18C55.1117 23.8047 55.0809 23.4299 55.016 23.06H48.8009ZM95.1178 24.46C94.8512 23.6927 94.3527 23.0228 93.6882 22.5388C93.0238 22.0549 92.2247 21.7798 91.3969 21.75C90.8378 21.7489 90.2843 21.86 89.7708 22.0765C89.2573 22.293 88.7946 22.6102 88.4114 23.0085C88.0282 23.4068 87.7325 23.8778 87.5427 24.3924C87.353 24.9069 87.2731 25.454 87.308 26C87.2993 26.9128 87.5927 27.804 88.1443 28.5402C88.696 29.2765 89.4763 29.8185 90.3688 30.0851C91.2613 30.3518 92.218 30.3288 93.0961 30.0197C93.9741 29.7106 94.7264 29.1318 95.2405 28.37L93.7583 27.37C93.5373 27.7303 93.2239 28.0278 92.8491 28.233C92.4744 28.4382 92.0513 28.5441 91.6218 28.54C91.1787 28.5579 90.7405 28.4442 90.3647 28.214C89.9889 27.9838 89.693 27.6477 89.516 27.25L95.3325 24.9L95.1178 24.46ZM89.1889 25.88C89.1682 25.5694 89.211 25.2578 89.3149 24.9636C89.4188 24.6694 89.5817 24.3984 89.794 24.1665C90.0063 23.9346 90.2637 23.7465 90.5512 23.6132C90.8388 23.4798 91.1506 23.404 91.4685 23.39C91.7978 23.3703 92.1258 23.4462 92.4113 23.608C92.6968 23.7699 92.9271 24.0106 93.0734 24.3L89.1889 25.88ZM84.4662 30H86.3778V17.5H84.4662V30ZM81.3382 22.7H81.2667C80.9811 22.3818 80.6287 22.1278 80.2335 21.9552C79.8383 21.7826 79.4097 21.6955 78.9769 21.7C77.8598 21.753 76.8064 22.2244 76.0349 23.0166C75.2635 23.8087 74.8332 24.8609 74.8332 25.955C74.8332 27.0491 75.2635 28.1012 76.0349 28.8934C76.8064 29.6856 77.8598 30.157 78.9769 30.21C79.4103 30.2185 79.8403 30.1333 80.2361 29.9604C80.6319 29.7875 80.9838 29.5313 81.2667 29.21H81.3382V29.82C81.3382 31.45 80.4489 32.32 79.0178 32.32C78.5397 32.3097 78.0756 32.1607 77.6843 31.8918C77.2929 31.623 76.9921 31.2464 76.82 30.81L75.164 31.48C75.4702 32.2322 76.0025 32.8759 76.6906 33.3258C77.3787 33.7758 78.1902 34.0109 79.0178 34C81.2565 34 83.1067 32.71 83.1067 29.57V22H81.3382V22.7ZM79.1405 28.58C78.4707 28.5391 77.8421 28.2501 77.3826 27.7716C76.923 27.2932 76.6673 26.6614 76.6673 26.005C76.6673 25.3485 76.923 24.7167 77.3826 24.2383C77.8421 23.7599 78.4707 23.4708 79.1405 23.43C79.4678 23.4438 79.789 23.5219 80.0849 23.6596C80.3807 23.7973 80.6453 23.9919 80.8627 24.2317C81.0802 24.4714 81.2461 24.7515 81.3506 25.0553C81.4551 25.3591 81.4961 25.6804 81.4711 26C81.499 26.3207 81.4601 26.6436 81.3568 26.9491C81.2535 27.2547 81.0879 27.5366 80.87 27.7778C80.6522 28.0189 80.3866 28.2144 80.0893 28.3523C79.792 28.4901 79.4692 28.5676 79.1405 28.58ZM104.072 17.5H99.4929V30H101.404V25.26H104.072C104.617 25.2983 105.164 25.2263 105.679 25.0487C106.195 24.8711 106.667 24.5915 107.067 24.2275C107.466 23.8634 107.785 23.4227 108.003 22.9328C108.221 22.4429 108.334 21.9143 108.334 21.38C108.334 20.8456 108.221 20.3171 108.003 19.8271C107.785 19.3372 107.466 18.8965 107.067 18.5325C106.667 18.1684 106.195 17.8889 105.679 17.7112C105.164 17.5336 104.617 17.4617 104.072 17.5ZM104.072 23.5H101.404V19.24H104.113C104.401 19.24 104.685 19.2953 104.951 19.4029C105.216 19.5104 105.457 19.6681 105.66 19.8668C105.863 20.0655 106.024 20.3014 106.134 20.561C106.244 20.8207 106.301 21.0989 106.301 21.38C106.301 21.661 106.244 21.9393 106.134 22.1989C106.024 22.4586 105.863 22.6945 105.66 22.8932C105.457 23.0919 105.216 23.2495 104.951 23.3571C104.685 23.4646 104.401 23.52 104.113 23.52L104.072 23.5ZM115.869 21.71C115.173 21.668 114.479 21.8265 113.874 22.166C113.269 22.5055 112.779 23.011 112.465 23.62L114.152 24.31C114.322 24.0094 114.578 23.7635 114.888 23.602C115.198 23.4405 115.55 23.3704 115.9 23.4C116.142 23.3723 116.388 23.3921 116.623 23.4583C116.858 23.5245 117.077 23.6358 117.267 23.7857C117.457 23.9356 117.615 24.121 117.731 24.3312C117.848 24.5414 117.92 24.7721 117.944 25.01V25.13C117.329 24.8139 116.645 24.6491 115.951 24.65C114.131 24.65 112.271 25.65 112.271 27.47C112.289 27.8568 112.386 28.2362 112.557 28.5855C112.728 28.9349 112.968 29.2471 113.265 29.5036C113.561 29.7601 113.908 29.9557 114.283 30.0788C114.658 30.2018 115.055 30.2499 115.45 30.22C115.929 30.2459 116.408 30.1466 116.835 29.9322C117.263 29.7179 117.624 29.3961 117.883 29H117.944V30H119.784V25.19C119.784 23 118.087 21.73 115.91 21.73L115.869 21.71ZM115.634 28.56C115.01 28.56 114.141 28.25 114.141 27.5C114.141 26.5 115.225 26.16 116.186 26.16C116.793 26.1453 117.393 26.2904 117.924 26.58C117.859 27.1231 117.596 27.625 117.183 27.9927C116.769 28.3604 116.233 28.5691 115.675 28.58L115.634 28.56ZM126.49 22L124.302 27.42H124.241L121.972 22H119.927L123.331 29.58L121.389 33.79H123.382L128.616 22H126.49ZM109.316 30H111.218V17.5H109.316V30Z" fill="white"/>
<path d="M10.672 7.54002C10.3351 7.92964 10.1632 8.43048 10.1915 8.94002V31.06C10.1567 31.5704 10.3294 32.0736 10.672 32.46L10.7435 32.54L23.4089 20.15V19.85L10.7435 7.47002L10.672 7.54002Z" fill="url(#paint0_linear_4_7901)"/>
<path d="M27.5999 24.28L23.4088 20.15V19.85L27.5999 15.72L27.6919 15.78L32.711 18.56C34.1421 19.35 34.1421 20.65 32.711 21.45L27.7124 24.23L27.5999 24.28Z" fill="url(#paint1_linear_4_7901)"/>
<path d="M27.7227 24.22L23.4089 20L10.672 32.46C10.9609 32.7115 11.3306 32.8562 11.7171 32.869C12.1036 32.8818 12.4824 32.7619 12.788 32.53L27.7227 24.22Z" fill="url(#paint2_linear_4_7901)"/>
<path d="M27.7227 15.78L12.788 7.48C12.4844 7.24492 12.1058 7.12206 11.7188 7.13303C11.3318 7.14401 10.9611 7.28811 10.672 7.54L23.4089 20L27.7227 15.78Z" fill="url(#paint3_linear_4_7901)"/>
<path opacity="0.2" d="M27.6 24.13L12.788 32.38C12.4935 32.5974 12.1347 32.715 11.7658 32.715C11.3969 32.715 11.038 32.5974 10.7436 32.38L10.672 32.45L10.7436 32.53C11.038 32.7474 11.3969 32.865 11.7658 32.865C12.1347 32.865 12.4935 32.7474 12.788 32.53L27.7227 24.22L27.6 24.13Z" fill="black"/>
<path opacity="0.12" d="M10.672 32.32C10.3436 31.9234 10.1827 31.4189 10.2222 30.91V31.06C10.1874 31.5704 10.3601 32.0736 10.7026 32.46L10.7742 32.39L10.672 32.32Z" fill="black"/>
<path opacity="0.12" d="M32.7111 21.3L27.6 24.13L27.692 24.22L32.7111 21.44C33.0074 21.3175 33.2644 21.119 33.4551 20.8656C33.6457 20.6122 33.7631 20.3132 33.7946 20C33.7307 20.2846 33.5994 20.5505 33.4112 20.7763C33.223 21.0021 32.9832 21.1815 32.7111 21.3Z" fill="black"/>
<path opacity="0.25" d="M12.788 7.62002L32.7111 18.7C32.9832 18.8185 33.223 18.9979 33.4112 19.2237C33.5994 19.4496 33.7307 19.7155 33.7946 20C33.7631 19.6869 33.6457 19.3878 33.455 19.1344C33.2644 18.881 33.0074 18.6826 32.7111 18.56L12.788 7.48002C11.3671 6.68002 10.1915 7.34002 10.1915 8.94002V9.09002C10.2222 7.49002 11.3671 6.83002 12.788 7.62002Z" fill="white"/>
<defs>
<linearGradient id="paint0_linear_4_7901" x1="22.2844" y1="8.71002" x2="5.50847" y2="25.8588" gradientUnits="userSpaceOnUse">
<stop stop-color="#00A0FF"/>
<stop offset="0.01" stop-color="#00A1FF"/>
<stop offset="0.26" stop-color="#00BEFF"/>
<stop offset="0.51" stop-color="#00D2FF"/>
<stop offset="0.76" stop-color="#00DFFF"/>
<stop offset="1" stop-color="#00E3FF"/>
</linearGradient>
<linearGradient id="paint1_linear_4_7901" x1="34.5817" y1="20" x2="9.85416" y2="20" gradientUnits="userSpaceOnUse">
<stop stop-color="#FFE000"/>
<stop offset="0.41" stop-color="#FFBD00"/>
<stop offset="0.78" stop-color="#FFA500"/>
<stop offset="1" stop-color="#FF9C00"/>
</linearGradient>
<linearGradient id="paint2_linear_4_7901" x1="25.3818" y1="22.3" x2="2.62704" y2="45.5502" gradientUnits="userSpaceOnUse">
<stop stop-color="#FF3A44"/>
<stop offset="1" stop-color="#C31162"/>
</linearGradient>
<linearGradient id="paint3_linear_4_7901" x1="7.46222" y1="0.180005" x2="17.6198" y2="10.5633" gradientUnits="userSpaceOnUse">
<stop stop-color="#32A071"/>
<stop offset="0.07" stop-color="#2DA771"/>
<stop offset="0.48" stop-color="#15CF74"/>
<stop offset="0.8" stop-color="#06E775"/>
<stop offset="1" stop-color="#00F076"/>
</linearGradient>
</defs>
</svg>
