<svg width="120" height="40" viewBox="0 0 120 40" fill="none" xmlns="http://www.w3.org/2000/svg">
<g clip-path="url(#clip0_14_2944)">
<path d="M110.444 -0.000114141H9.56145C9.19372 -0.000114141 8.8304 -0.000114141 8.46364 0.00188586C8.15663 0.00388586 7.85207 0.00969586 7.54211 0.0145859C6.86874 0.0224877 6.19695 0.0815621 5.53259 0.191296C4.86915 0.303418 4.2265 0.514802 3.62637 0.818296C3.02697 1.12436 2.47929 1.52205 2.00318 1.99696C1.52457 2.47052 1.12561 3.0179 0.82165 3.61805C0.516847 4.21699 0.305496 4.85882 0.194896 5.52137C0.083244 6.18307 0.0231632 6.85241 0.0151925 7.52337C0.00588648 7.82997 0.00490373 8.13759 0 8.44423V31.5585C0.00490373 31.869 0.00588648 32.1698 0.0151925 32.4804C0.0231657 33.1513 0.0832464 33.8206 0.194896 34.4823C0.30519 35.1452 0.516554 35.7874 0.82165 36.3866C1.12548 36.9848 1.52449 37.53 2.00318 38.0009C2.47748 38.4779 3.02552 38.8759 3.62637 39.1796C4.2265 39.4839 4.86908 39.6965 5.53259 39.8104C6.19707 39.9192 6.86879 39.9783 7.54211 39.9872C7.85207 39.994 8.15663 39.9979 8.46364 39.9979C8.83039 39.9999 9.19374 39.9999 9.56145 39.9999H110.444C110.804 39.9999 111.171 39.9999 111.531 39.9979C111.837 39.9979 112.15 39.994 112.455 39.9872C113.128 39.9788 113.798 39.9197 114.461 39.8104C115.127 39.6957 115.772 39.4831 116.375 39.1796C116.975 38.8757 117.522 38.4777 117.996 38.0009C118.474 37.5281 118.874 36.9833 119.181 36.3866C119.484 35.787 119.693 35.1448 119.802 34.4823C119.914 33.8205 119.976 33.1514 119.988 32.4804C119.992 32.1698 119.992 31.869 119.992 31.5585C120 31.1952 120 30.8339 120 30.4647V9.53602C120 9.16981 120 8.80653 119.992 8.44423C119.992 8.13759 119.992 7.82997 119.988 7.52333C119.976 6.85231 119.914 6.18312 119.802 5.52133C119.693 4.85917 119.484 4.21739 119.181 3.61801C118.562 2.41508 117.581 1.43591 116.375 0.818206C115.772 0.515453 115.127 0.304126 114.461 0.191206C113.798 0.0809886 113.128 0.0218936 112.455 0.0144459C112.15 0.00956586 111.837 0.00370586 111.531 0.00175586C111.171 -0.000244141 110.804 -0.000244141 110.444 -0.000244141V-0.000114141Z" fill="#A6A6A6"/>
<path d="M8.46856 39.125C8.16303 39.125 7.86487 39.1211 7.56174 39.1143C6.93376 39.1061 6.30725 39.0516 5.68735 38.9512C5.10932 38.8519 4.54937 38.6673 4.02596 38.4033C3.50735 38.1415 3.03433 37.7983 2.62504 37.3867C2.20981 36.98 1.86412 36.5082 1.60166 35.9902C1.33631 35.4688 1.15267 34.9099 1.05714 34.333C0.953972 33.7131 0.898156 33.0863 0.890169 32.458C0.883812 32.2471 0.875488 31.5449 0.875488 31.5449V8.44434C0.875488 8.44434 0.884353 7.75293 0.89022 7.5498C0.897867 6.92248 0.953358 6.29665 1.05621 5.67773C1.15192 5.09925 1.3357 4.53875 1.6012 4.01563C1.8627 3.49794 2.20647 3.02586 2.61919 2.61768C3.03145 2.20562 3.50597 1.8606 4.02547 1.59521C4.54767 1.33209 5.10657 1.14873 5.68343 1.05127C6.30537 0.949836 6.93405 0.894996 7.5642 0.88721L8.46906 0.875H111.526L112.442 0.8877C113.066 0.895099 113.689 0.94945 114.305 1.05029C114.888 1.14898 115.453 1.33362 115.981 1.59814C117.022 2.13299 117.869 2.97916 118.403 4.01807C118.664 4.53758 118.845 5.09351 118.939 5.66699C119.044 6.29099 119.102 6.92174 119.114 7.5542C119.117 7.8374 119.117 8.1416 119.117 8.44434C119.125 8.81934 119.125 9.17627 119.125 9.53613V30.4648C119.125 30.8281 119.125 31.1826 119.117 31.54C119.117 31.8652 119.117 32.1631 119.113 32.4697C119.101 33.0909 119.044 33.7104 118.941 34.3232C118.848 34.9043 118.665 35.4675 118.4 35.9932C118.136 36.5056 117.792 36.9733 117.381 37.3789C116.972 37.7927 116.498 38.1379 115.978 38.4014C115.451 38.6674 114.887 38.8527 114.305 38.9512C113.686 39.0522 113.059 39.1067 112.431 39.1143C112.137 39.1211 111.83 39.125 111.531 39.125L110.444 39.127L8.46856 39.125Z" fill="black"/>
<path d="M24.8384 20.3006C24.8492 19.4659 25.0715 18.6475 25.4847 17.9216C25.8978 17.1956 26.4885 16.5857 27.2015 16.1485C26.7485 15.5034 26.1509 14.9724 25.4561 14.5979C24.7614 14.2233 23.9886 14.0155 23.1992 13.9908C21.5152 13.8146 19.8827 14.9957 19.0246 14.9957C18.1499 14.9957 16.8287 14.0083 15.406 14.0375C14.4857 14.0672 13.5889 14.334 12.8028 14.8121C12.0167 15.2901 11.3682 15.9631 10.9205 16.7654C8.98105 20.1138 10.4277 25.0349 12.2855 27.7415C13.215 29.0668 14.3013 30.5473 15.7228 30.4948C17.1137 30.4372 17.6332 29.6103 19.3122 29.6103C20.9756 29.6103 21.463 30.4948 22.9133 30.4614C24.4058 30.4372 25.3462 29.1301 26.2431 27.7923C26.911 26.8479 27.4249 25.8042 27.7658 24.6997C26.8987 24.334 26.1587 23.7218 25.6381 22.9395C25.1175 22.1572 24.8394 21.2394 24.8384 20.3006Z" fill="white"/>
<path d="M22.0991 12.2108C22.9129 11.2366 23.3138 9.98445 23.2167 8.72021C21.9734 8.85044 20.8249 9.44299 20.0001 10.3798C19.5968 10.8375 19.288 11.3699 19.0912 11.9467C18.8944 12.5235 18.8135 13.1333 18.8532 13.7412C19.4751 13.7476 20.0903 13.6132 20.6525 13.3481C21.2148 13.083 21.7094 12.6942 22.0991 12.2108Z" fill="white"/>
<path d="M42.421 27.1397H37.6743L36.5344 30.4961H34.5239L39.0199 18.0781H41.1088L45.6047 30.4961H43.56L42.421 27.1397ZM38.166 25.5908H41.9285L40.0737 20.1436H40.0218L38.166 25.5908Z" fill="white"/>
<path d="M55.3145 25.9699C55.3145 28.7834 53.8044 30.591 51.5256 30.591C50.9483 30.6211 50.3742 30.4885 49.869 30.2084C49.3638 29.9283 48.9479 29.5119 48.6689 29.007H48.6258V33.4914H46.7622V21.4426H48.5661V22.9484H48.6004C48.8922 22.446 49.3151 22.0318 49.8241 21.7499C50.3332 21.4681 50.9093 21.3291 51.4913 21.3479C53.7956 21.3479 55.3145 23.1643 55.3145 25.9699ZM53.399 25.9699C53.399 24.1369 52.449 22.9319 50.9997 22.9319C49.5758 22.9319 48.618 24.1623 48.618 25.9699C48.618 27.7942 49.5758 29.0158 50.9997 29.0158C52.4491 29.0158 53.399 27.8195 53.399 25.9699Z" fill="white"/>
<path d="M65.3074 25.9699C65.3074 28.7834 63.7973 30.591 61.5185 30.591C60.9412 30.6211 60.3671 30.4885 59.8619 30.2084C59.3567 29.9282 58.9408 29.5119 58.6619 29.007H58.6187V33.4914H56.7551V21.4426H58.559V22.9484H58.5933C58.885 22.446 59.308 22.0318 59.817 21.7499C60.3261 21.4681 60.9022 21.3291 61.4842 21.3479C63.7885 21.3479 65.3074 23.1643 65.3074 25.9699ZM63.3919 25.9699C63.3919 24.1369 62.442 22.9318 60.9926 22.9318C59.5687 22.9318 58.6109 24.1623 58.6109 25.9699C58.6109 27.7941 59.5687 29.0158 60.9926 29.0158C62.442 29.0158 63.3919 27.8195 63.3919 25.9699H63.3919Z" fill="white"/>
<path d="M71.9117 27.0362C72.0498 28.2676 73.2495 29.0762 74.8888 29.0762C76.4596 29.0762 77.5898 28.2676 77.5898 27.1572C77.5898 26.1934 76.9082 25.6162 75.2943 25.2207L73.6804 24.833C71.3937 24.2822 70.3321 23.2158 70.3321 21.4854C70.3321 19.3428 72.2046 17.8711 74.8634 17.8711C77.4947 17.8711 79.2986 19.3428 79.3594 21.4854H77.4781C77.3655 20.2461 76.3382 19.4981 74.8369 19.4981C73.3356 19.4981 72.3083 20.2549 72.3083 21.3565C72.3083 22.2344 72.9645 22.751 74.5696 23.1465L75.9416 23.4824C78.4966 24.0849 79.5581 25.1084 79.5581 26.9248C79.5581 29.248 77.7023 30.7031 74.7507 30.7031C71.9891 30.7031 70.1245 29.2822 70.004 27.0361L71.9117 27.0362Z" fill="white"/>
<path d="M83.5802 19.2998V21.4424H85.3067V22.9141H83.5802V27.9053C83.5802 28.6807 83.9259 29.042 84.6849 29.042C84.8898 29.0384 85.0945 29.0241 85.2979 28.999V30.4619C84.9567 30.5255 84.6099 30.5543 84.2628 30.5478C82.4247 30.5478 81.7078 29.8593 81.7078 28.1035V22.9141H80.3877V21.4424H81.7078V19.2998H83.5802Z" fill="white"/>
<path d="M86.3066 25.9697C86.3066 23.1211 87.9891 21.3311 90.6126 21.3311C93.245 21.3311 94.9196 23.1211 94.9196 25.9697C94.9196 28.8262 93.2538 30.6084 90.6126 30.6084C87.9724 30.6084 86.3066 28.8262 86.3066 25.9697ZM93.0207 25.9697C93.0207 24.0156 92.1227 22.8623 90.6126 22.8623C89.1025 22.8623 88.2055 24.0244 88.2055 25.9697C88.2055 27.9316 89.1025 29.0762 90.6126 29.0762C92.1227 29.0762 93.0207 27.9316 93.0207 25.9697H93.0207Z" fill="white"/>
<path d="M96.4561 21.4425H98.2335V22.9835H98.2766C98.3969 22.5022 98.6796 22.0769 99.0773 21.779C99.475 21.4811 99.9634 21.3288 100.46 21.3478C100.675 21.347 100.889 21.3703 101.099 21.4171V23.1554C100.828 23.0728 100.545 23.0348 100.262 23.0431C99.9909 23.0321 99.721 23.0797 99.4705 23.1826C99.2199 23.2855 98.9947 23.4412 98.8102 23.6391C98.6257 23.837 98.4863 24.0724 98.4016 24.3291C98.317 24.5857 98.289 24.8576 98.3197 25.1261V30.4962H96.4561L96.4561 21.4425Z" fill="white"/>
<path d="M109.691 27.8369C109.441 29.4805 107.836 30.6084 105.782 30.6084C103.141 30.6084 101.501 28.8437 101.501 26.0127C101.501 23.1729 103.15 21.3311 105.704 21.3311C108.216 21.3311 109.795 23.0518 109.795 25.7969V26.4336H103.383V26.5459C103.353 26.8791 103.395 27.2148 103.505 27.5306C103.616 27.8464 103.793 28.1352 104.024 28.3778C104.255 28.6203 104.535 28.8111 104.845 28.9374C105.156 29.0637 105.49 29.1227 105.825 29.1103C106.266 29.1515 106.707 29.0498 107.085 28.8203C107.463 28.5909 107.756 28.246 107.922 27.8369L109.691 27.8369ZM103.392 25.1348H107.931C107.947 24.8352 107.902 24.5354 107.797 24.2541C107.692 23.9729 107.53 23.7164 107.321 23.5006C107.112 23.2849 106.86 23.1145 106.582 23.0003C106.303 22.8861 106.005 22.8305 105.704 22.8369C105.4 22.8351 105.099 22.8933 104.819 23.008C104.538 23.1227 104.282 23.2918 104.067 23.5054C103.853 23.7191 103.682 23.973 103.566 24.2527C103.45 24.5323 103.391 24.8321 103.392 25.1348V25.1348Z" fill="white"/>
<path d="M37.9324 8.73114C38.3231 8.70318 38.7152 8.76204 39.0803 8.90347C39.4455 9.0449 39.7746 9.26538 40.0439 9.54901C40.3133 9.83263 40.5161 10.1723 40.6379 10.5436C40.7596 10.9149 40.7972 11.3085 40.7479 11.696C40.7479 13.6022 39.7148 14.698 37.9324 14.698H35.7711V8.73114H37.9324ZM36.7005 13.8541H37.8286C38.1078 13.8708 38.3872 13.8251 38.6465 13.7205C38.9057 13.6159 39.1384 13.455 39.3274 13.2494C39.5164 13.0438 39.6571 12.7988 39.7392 12.5322C39.8213 12.2656 39.8427 11.9841 39.8019 11.7081C39.8397 11.4333 39.8161 11.1535 39.7328 10.8889C39.6494 10.6242 39.5084 10.3812 39.3198 10.1773C39.1312 9.97334 38.8997 9.81353 38.6419 9.70929C38.3841 9.60506 38.1064 9.55897 37.8286 9.57435H36.7005V13.8541Z" fill="white"/>
<path d="M41.7978 12.4443C41.7694 12.1484 41.8034 11.8498 41.8975 11.5677C41.9916 11.2857 42.1437 11.0263 42.3442 10.8063C42.5447 10.5864 42.7891 10.4106 43.0618 10.2903C43.3344 10.17 43.6292 10.1079 43.9273 10.1079C44.2254 10.1079 44.5202 10.17 44.7928 10.2903C45.0654 10.4106 45.3098 10.5864 45.5103 10.8063C45.7108 11.0263 45.863 11.2857 45.9571 11.5677C46.0512 11.8498 46.0852 12.1484 46.0568 12.4443C46.0857 12.7405 46.0522 13.0395 45.9583 13.322C45.8645 13.6045 45.7124 13.8644 45.5118 14.0848C45.3113 14.3052 45.0667 14.4813 44.7938 14.6019C44.5209 14.7224 44.2258 14.7847 43.9273 14.7847C43.6288 14.7847 43.3337 14.7224 43.0608 14.6019C42.7879 14.4813 42.5433 14.3052 42.3428 14.0848C42.1422 13.8644 41.9901 13.6045 41.8963 13.322C41.8024 13.0395 41.7689 12.7405 41.7978 12.4443ZM45.1402 12.4443C45.1402 11.4682 44.7004 10.8974 43.9288 10.8974C43.1541 10.8974 42.7184 11.4682 42.7184 12.4443C42.7184 13.4282 43.1542 13.9946 43.9288 13.9946C44.7005 13.9946 45.1402 13.4243 45.1402 12.4443H45.1402Z" fill="white"/>
<path d="M51.7181 14.6978H50.7937L49.8604 11.3813H49.7899L48.8605 14.6978H47.9449L46.7002 10.1948H47.6041L48.413 13.6308H48.4796L49.408 10.1948H50.2629L51.1913 13.6308H51.2618L52.0668 10.1948H52.9579L51.7181 14.6978Z" fill="white"/>
<path d="M54.0048 10.1949H54.8626V10.9102H54.9292C55.0422 10.6533 55.2327 10.4379 55.4743 10.2941C55.7158 10.1503 55.9963 10.0852 56.2767 10.1079C56.4965 10.0915 56.7171 10.1245 56.9222 10.2046C57.1274 10.2847 57.3119 10.4098 57.462 10.5707C57.6121 10.7315 57.724 10.924 57.7894 11.1338C57.8548 11.3436 57.872 11.5654 57.8397 11.7827V14.6977H56.9485V12.0059C56.9485 11.2823 56.6332 10.9224 55.9741 10.9224C55.825 10.9155 55.6761 10.9408 55.5376 10.9966C55.3992 11.0525 55.2745 11.1375 55.1721 11.2459C55.0696 11.3543 54.9919 11.4834 54.9443 11.6246C54.8966 11.7657 54.8801 11.9154 54.8959 12.0635V14.6978H54.0048L54.0048 10.1949Z" fill="white"/>
<path d="M59.2598 8.43701H60.1509V14.6978H59.2598V8.43701Z" fill="white"/>
<path d="M61.3897 12.4444C61.3613 12.1484 61.3953 11.8499 61.4894 11.5678C61.5835 11.2857 61.7357 11.0263 61.9363 10.8064C62.1368 10.5864 62.3812 10.4106 62.6538 10.2903C62.9265 10.17 63.2213 10.1079 63.5194 10.1079C63.8176 10.1079 64.1124 10.17 64.385 10.2903C64.6577 10.4106 64.9021 10.5864 65.1026 10.8064C65.3031 11.0263 65.4553 11.2857 65.5494 11.5678C65.6436 11.8499 65.6775 12.1484 65.6492 12.4444C65.6781 12.7406 65.6445 13.0396 65.5506 13.3221C65.4567 13.6046 65.3046 13.8645 65.104 14.0849C64.9035 14.3053 64.6589 14.4814 64.386 14.6019C64.1131 14.7225 63.8179 14.7847 63.5194 14.7847C63.221 14.7847 62.9258 14.7225 62.6529 14.6019C62.38 14.4814 62.1354 14.3053 61.9348 14.0849C61.7343 13.8645 61.5821 13.6046 61.4883 13.3221C61.3944 13.0396 61.3608 12.7406 61.3897 12.4444ZM64.732 12.4444C64.732 11.4683 64.2923 10.8975 63.5207 10.8975C62.746 10.8975 62.3103 11.4683 62.3103 12.4444C62.3103 13.4283 62.7461 13.9947 63.5207 13.9947C64.2923 13.9947 64.7321 13.4244 64.7321 12.4444H64.732Z" fill="white"/>
<path d="M66.5874 13.4243C66.5874 12.6138 67.1926 12.1465 68.2669 12.0801L69.4901 12.0098V11.6211C69.4901 11.1455 69.1747 10.877 68.5656 10.877C68.0681 10.877 67.7234 11.0591 67.6245 11.3774H66.7617C66.8528 10.604 67.5824 10.1079 68.6067 10.1079C69.7388 10.1079 70.3773 10.6699 70.3773 11.6211V14.6978H69.5194V14.0649H69.4489C69.3058 14.2919 69.1048 14.477 68.8666 14.6012C68.6283 14.7254 68.3612 14.7843 68.0926 14.7719C67.903 14.7916 67.7114 14.7714 67.5302 14.7127C67.3489 14.654 67.182 14.5581 67.0402 14.4311C66.8983 14.3042 66.7848 14.149 66.7068 13.9756C66.6288 13.8022 66.5881 13.6144 66.5874 13.4243ZM69.4901 13.0395V12.6631L68.3874 12.7334C67.7655 12.7749 67.4835 12.9858 67.4835 13.3828C67.4835 13.7881 67.836 14.0239 68.3208 14.0239C68.4628 14.0383 68.6063 14.0239 68.7427 13.9819C68.8791 13.9398 69.0056 13.8707 69.1147 13.7789C69.2238 13.6871 69.3132 13.5743 69.3777 13.4473C69.4422 13.3202 69.4804 13.1816 69.4901 13.0395Z" fill="white"/>
<path d="M71.5485 12.4444C71.5485 11.0215 72.282 10.1201 73.4228 10.1201C73.7051 10.1072 73.9851 10.1746 74.2303 10.3145C74.4756 10.4544 74.6758 10.661 74.8076 10.9101H74.8742V8.43701H75.7653V14.6978H74.9114V13.9863H74.8409C74.6989 14.2338 74.4917 14.4378 74.2417 14.5763C73.9918 14.7148 73.7086 14.7825 73.4229 14.772C72.2741 14.772 71.5485 13.8706 71.5485 12.4444ZM72.469 12.4444C72.469 13.3994 72.9205 13.9741 73.6755 13.9741C74.4266 13.9741 74.8908 13.3911 74.8908 12.4483C74.8908 11.5098 74.4218 10.9185 73.6755 10.9185C72.9254 10.9185 72.469 11.4971 72.469 12.4444H72.469Z" fill="white"/>
<path d="M79.4525 12.4443C79.4241 12.1484 79.458 11.8498 79.5521 11.5677C79.6462 11.2857 79.7984 11.0263 79.9989 10.8063C80.1994 10.5864 80.4438 10.4106 80.7164 10.2903C80.989 10.17 81.2838 10.1079 81.5819 10.1079C81.88 10.1079 82.1749 10.17 82.4475 10.2903C82.7201 10.4106 82.9645 10.5864 83.165 10.8063C83.3655 11.0263 83.5177 11.2857 83.6118 11.5677C83.7059 11.8498 83.7398 12.1484 83.7114 12.4443C83.7404 12.7405 83.7068 13.0395 83.613 13.322C83.5191 13.6045 83.367 13.8644 83.1665 14.0848C82.9659 14.3052 82.7213 14.4813 82.4484 14.6019C82.1756 14.7224 81.8804 14.7847 81.5819 14.7847C81.2835 14.7847 80.9883 14.7224 80.7154 14.6019C80.4426 14.4813 80.198 14.3052 79.9974 14.0848C79.7969 13.8644 79.6448 13.6045 79.5509 13.322C79.4571 13.0395 79.4235 12.7405 79.4525 12.4443ZM82.7948 12.4443C82.7948 11.4682 82.3551 10.8974 81.5834 10.8974C80.8088 10.8974 80.373 11.4682 80.373 12.4443C80.373 13.4282 80.8088 13.9946 81.5834 13.9946C82.3551 13.9946 82.7948 13.4243 82.7948 12.4443Z" fill="white"/>
<path d="M84.9072 10.1949H85.7651V10.9102H85.8317C85.9447 10.6533 86.1352 10.4379 86.3768 10.2941C86.6183 10.1503 86.8988 10.0852 87.1792 10.1079C87.3989 10.0915 87.6195 10.1245 87.8247 10.2046C88.0299 10.2847 88.2144 10.4098 88.3645 10.5707C88.5146 10.7315 88.6265 10.924 88.6919 11.1338C88.7572 11.3436 88.7744 11.5654 88.7422 11.7827V14.6977H87.851V12.0059C87.851 11.2823 87.5357 10.9224 86.8766 10.9224C86.7274 10.9155 86.5785 10.9408 86.4401 10.9966C86.3016 11.0525 86.1769 11.1375 86.0745 11.2459C85.9721 11.3543 85.8944 11.4834 85.8467 11.6246C85.7991 11.7657 85.7826 11.9154 85.7984 12.0635V14.6978H84.9072V10.1949Z" fill="white"/>
<path d="M93.7777 9.07373V10.2153H94.756V10.9639H93.7777V13.2793C93.7777 13.751 93.9726 13.9575 94.4162 13.9575C94.5298 13.9572 94.6432 13.9503 94.756 13.937V14.6772C94.596 14.7058 94.4338 14.721 94.2713 14.7226C93.2802 14.7226 92.8856 14.375 92.8856 13.5068V10.9638H92.1687V10.2153H92.8856V9.07373H93.7777Z" fill="white"/>
<path d="M95.9734 8.43701H96.8567V10.9185H96.9272C97.0457 10.6591 97.2415 10.4425 97.4878 10.2982C97.7342 10.1539 98.0193 10.0888 98.3041 10.1118C98.5227 10.1 98.7412 10.1364 98.944 10.2184C99.1468 10.3004 99.329 10.4261 99.4776 10.5864C99.6261 10.7468 99.7373 10.9378 99.8033 11.146C99.8693 11.3541 99.8884 11.5742 99.8592 11.7905V14.6978H98.9672V12.0098C98.9672 11.2905 98.6312 10.9263 98.0016 10.9263C97.8484 10.9137 97.6943 10.9347 97.5502 10.9878C97.406 11.0408 97.2752 11.1247 97.1669 11.2334C97.0586 11.3421 96.9754 11.4732 96.9232 11.6173C96.871 11.7614 96.851 11.9152 96.8646 12.0679V14.6977H95.9734L95.9734 8.43701Z" fill="white"/>
<path d="M105.055 13.482C104.934 13.8935 104.672 14.2495 104.314 14.4877C103.957 14.7258 103.526 14.831 103.099 14.7847C102.801 14.7926 102.506 14.7357 102.232 14.6182C101.959 14.5007 101.715 14.3253 101.516 14.1041C101.318 13.883 101.17 13.6214 101.083 13.3376C100.996 13.0538 100.972 12.7545 101.013 12.4605C100.973 12.1656 100.998 11.8657 101.084 11.581C101.171 11.2964 101.318 11.0336 101.516 10.8105C101.713 10.5874 101.956 10.4093 102.229 10.2881C102.501 10.1669 102.797 10.1054 103.095 10.108C104.351 10.108 105.109 10.964 105.109 12.378V12.6881H101.921V12.7379C101.907 12.9031 101.928 13.0694 101.982 13.2262C102.036 13.3829 102.123 13.5267 102.236 13.6481C102.349 13.7696 102.487 13.8661 102.639 13.9315C102.792 13.9969 102.957 14.0297 103.123 14.0279C103.336 14.0534 103.552 14.0151 103.744 13.9179C103.935 13.8207 104.093 13.669 104.198 13.482L105.055 13.482ZM101.921 12.0308H104.202C104.213 11.8797 104.192 11.7279 104.141 11.5852C104.09 11.4425 104.009 11.312 103.905 11.2021C103.8 11.0923 103.674 11.0055 103.533 10.9473C103.393 10.8891 103.242 10.8609 103.09 10.8643C102.936 10.8624 102.783 10.8913 102.64 10.9492C102.497 11.0072 102.368 11.093 102.259 11.2017C102.15 11.3104 102.064 11.4398 102.006 11.5822C101.948 11.7246 101.919 11.8771 101.921 12.0308H101.921Z" fill="white"/>
</g>
<defs>
<clipPath id="clip0_14_2944">
<rect width="120" height="40" fill="white"/>
</clipPath>
</defs>
</svg>
