<svg width="138" height="40" viewBox="0 0 138 40" fill="none" xmlns="http://www.w3.org/2000/svg">
<path d="M132.889 0H5.11111C2.28832 0 0 2.23858 0 5V35C0 37.7614 2.28832 40 5.11111 40H132.889C135.712 40 138 37.7614 138 35V5C138 2.23858 135.712 0 132.889 0Z" fill="black"/>
<path d="M132.889 0.8C134.028 0.8 135.12 1.2425 135.925 2.03015C136.73 2.8178 137.182 3.88609 137.182 5V35C137.182 36.1139 136.73 37.1822 135.925 37.9698C135.12 38.7575 134.028 39.2 132.889 39.2H5.11111C3.97245 39.2 2.88042 38.7575 2.07527 37.9698C1.27011 37.1822 0.817778 36.1139 0.817778 35V5C0.817778 3.88609 1.27011 2.8178 2.07527 2.03015C2.88042 1.2425 3.97245 0.8 5.11111 0.8H132.889ZM132.889 0H5.11111C3.75556 0 2.45553 0.526784 1.49701 1.46447C0.538491 2.40215 0 3.67392 0 5V35C0 36.3261 0.538491 37.5979 1.49701 38.5355C2.45553 39.4732 3.75556 40 5.11111 40H132.889C134.244 40 135.544 39.4732 136.503 38.5355C137.462 37.5979 138 36.3261 138 35V5C138 3.67392 137.462 2.40215 136.503 1.46447C135.544 0.526784 134.244 0 132.889 0Z" fill="#A6A6A6"/>
<path d="M48.4738 10.24C48.4906 10.6067 48.4313 10.9729 48.2996 11.3167C48.1678 11.6604 47.9663 11.9745 47.7072 12.24C47.4168 12.5333 47.0663 12.7633 46.6788 12.9149C46.2912 13.0666 45.8753 13.1364 45.4583 13.12C45.0388 13.1291 44.6219 13.054 44.2333 12.8991C43.8447 12.7443 43.4928 12.5132 43.1992 12.22C42.6035 11.6239 42.27 10.8235 42.27 9.98996C42.27 9.15643 42.6035 8.356 43.1992 7.75996C43.6546 7.32465 44.2313 7.0307 44.857 6.91505C45.4826 6.79941 46.1292 6.86722 46.7156 7.10997C47.0842 7.2582 47.413 7.48745 47.6765 7.77997L47.1347 8.30996C46.9317 8.07074 46.6745 7.8811 46.3835 7.75612C46.0925 7.63113 45.7757 7.57424 45.4583 7.58996C45.0576 7.59268 44.6637 7.69136 44.311 7.87738C43.9583 8.0634 43.6575 8.33111 43.435 8.65709C43.2125 8.98308 43.075 9.35742 43.0345 9.7474C42.994 10.1374 43.0518 10.5311 43.2027 10.8942C43.3537 11.2573 43.5933 11.5787 43.9006 11.8303C44.2078 12.0819 44.5734 12.256 44.9654 12.3375C45.3573 12.419 45.7637 12.4053 46.149 12.2976C46.5343 12.19 46.8868 11.9916 47.1756 11.72C47.4878 11.3851 47.6689 10.9529 47.6867 10.5H45.4583V9.77997H48.4329C48.4562 9.93233 48.4699 10.086 48.4738 10.24Z" fill="white" stroke="white" stroke-width="0.411304" stroke-miterlimit="10"/>
<path d="M53.1555 7.74H50.3955V9.64H52.9101V10.36H50.3955V12.26H53.1555V13H49.5981V7H53.1555V7.74Z" fill="white" stroke="white" stroke-width="0.411304" stroke-miterlimit="10"/>
<path d="M56.5085 13H55.7214V7.74H54.004V7H58.2667V7.74H56.5085V13Z" fill="white" stroke="white" stroke-width="0.411304" stroke-miterlimit="10"/>
<path d="M61.272 13V7H62.0591V13H61.272Z" fill="white" stroke="white" stroke-width="0.411304" stroke-miterlimit="10"/>
<path d="M65.5551 13H64.768V7.74H63.0507V7H67.2622V7.74H65.5551V13Z" fill="white" stroke="white" stroke-width="0.411304" stroke-miterlimit="10"/>
<path d="M75.2458 12.2199C74.9506 12.509 74.6 12.7383 74.2141 12.8947C73.8282 13.0512 73.4146 13.1317 72.9969 13.1317C72.5792 13.1317 72.1656 13.0512 71.7797 12.8947C71.3938 12.7383 71.0433 12.509 70.748 12.2199C70.1701 11.6189 69.8484 10.825 69.8484 9.9999C69.8484 9.17484 70.1701 8.38085 70.748 7.7799C71.0369 7.4827 71.3863 7.24813 71.7737 7.09138C72.1611 6.93462 72.5778 6.85917 72.9969 6.8699C73.4154 6.86342 73.8308 6.94082 74.2176 7.09732C74.6043 7.25382 74.9543 7.48612 75.2458 7.7799C75.5397 8.07239 75.7708 8.41953 75.9253 8.80083C76.0798 9.18212 76.1546 9.58984 76.1453 9.9999C76.1588 10.4105 76.0858 10.8194 75.9311 11.2012C75.7764 11.5831 75.5431 11.9298 75.2458 12.2199ZM71.3307 11.7199C71.5485 11.9358 71.8079 12.1072 72.0939 12.2242C72.3799 12.3412 72.6869 12.4014 72.9969 12.4014C73.3069 12.4014 73.6139 12.3412 73.8999 12.2242C74.1859 12.1072 74.4454 11.9358 74.6631 11.7199C75.1042 11.251 75.349 10.6371 75.349 9.9999C75.349 9.3627 75.1042 8.74877 74.6631 8.2799C74.4454 8.06402 74.1859 7.89261 73.8999 7.77562C73.6139 7.65862 73.3069 7.59838 72.9969 7.59838C72.6869 7.59838 72.3799 7.65862 72.0939 7.77562C71.8079 7.89261 71.5485 8.06402 71.3307 8.2799C70.8896 8.74877 70.6448 9.3627 70.6448 9.9999C70.6448 10.6371 70.8896 11.251 71.3307 11.7199Z" fill="white" stroke="white" stroke-width="0.411304" stroke-miterlimit="10"/>
<path d="M77.2595 13V7H78.2102L81.1951 11.67V10.51V7H81.9822V13H81.1644L78.0466 8.11V9.26V13H77.2595Z" fill="white" stroke="white" stroke-width="0.411304" stroke-miterlimit="10"/>
<path d="M69.6542 21.7499C68.793 21.7519 67.9516 22.0037 67.2367 22.4734C66.5217 22.9432 65.9651 23.6098 65.6374 24.3889C65.3097 25.1681 65.2255 26.0248 65.3955 26.8508C65.5655 27.6768 65.9821 28.4349 66.5925 29.0293C67.2029 29.6236 67.9798 30.0276 68.825 30.19C69.6701 30.3524 70.5454 30.2661 71.3404 29.9418C72.1353 29.6176 72.8141 29.07 73.2909 28.3683C73.7677 27.6667 74.0212 26.8425 74.0191 25.9999C74.0275 25.4379 73.9201 24.8799 73.7034 24.3593C73.4868 23.8386 73.1652 23.366 72.758 22.9694C72.3507 22.5729 71.866 22.2606 71.3328 22.051C70.7996 21.8415 70.2288 21.7391 69.6542 21.7499ZM69.6542 28.5799C69.1263 28.616 68.5996 28.496 68.1423 28.2353C67.6851 27.9747 67.3186 27.5855 67.0905 27.1184C66.8624 26.6513 66.7832 26.1278 66.8632 25.6161C66.9433 25.1043 67.1788 24.628 67.5392 24.249C67.8997 23.8699 68.3683 23.6057 68.8843 23.4907C69.4002 23.3757 69.9396 23.4152 70.4323 23.604C70.9251 23.7929 71.3483 24.1223 71.6471 24.5496C71.9458 24.9769 72.1063 25.4822 72.1076 25.9999C72.124 26.3279 72.0732 26.6559 71.9581 26.9643C71.8429 27.2728 71.6658 27.5556 71.4371 27.7961C71.2085 28.0366 70.9329 28.2298 70.6267 28.3644C70.3205 28.499 69.9899 28.5723 69.6542 28.5799ZM60.1271 21.7499C59.2659 21.7519 58.4245 22.0037 57.7095 22.4734C56.9945 22.9432 56.438 23.6098 56.1103 24.3889C55.7825 25.1681 55.6984 26.0248 55.8684 26.8508C56.0384 27.6768 56.4549 28.4349 57.0654 29.0293C57.6758 29.6236 58.4527 30.0276 59.2978 30.19C60.143 30.3524 61.0183 30.2661 61.8133 29.9418C62.6082 29.6176 63.287 29.07 63.7638 28.3683C64.2406 27.6667 64.494 26.8425 64.492 25.9999C64.5004 25.4379 64.393 24.8799 64.1763 24.3593C63.9597 23.8386 63.6381 23.366 63.2309 22.9694C62.8236 22.5729 62.3389 22.2606 61.8057 22.051C61.2725 21.8415 60.7016 21.7391 60.1271 21.7499ZM60.1271 28.5799C59.5992 28.616 59.0724 28.496 58.6152 28.2353C58.158 27.9747 57.7915 27.5855 57.5634 27.1184C57.3353 26.6513 57.2561 26.1278 57.3361 25.6161C57.4162 25.1043 57.6517 24.628 58.0121 24.249C58.3726 23.8699 58.8412 23.6057 59.3572 23.4907C59.8731 23.3757 60.4125 23.4152 60.9052 23.604C61.3979 23.7929 61.8212 24.1223 62.12 24.5496C62.4187 24.9769 62.5792 25.4822 62.5805 25.9999C62.5969 26.3279 62.5461 26.6559 62.4309 26.9643C62.3158 27.2728 62.1387 27.5556 61.91 27.7961C61.6814 28.0366 61.4058 28.2298 61.0996 28.3644C60.7934 28.499 60.4627 28.5723 60.1271 28.5799ZM48.8009 23.0599V24.8599H53.2169C53.1477 25.7077 52.7874 26.5077 52.1947 27.1299C51.7517 27.5714 51.2189 27.9171 50.6308 28.1444C50.0427 28.3718 49.4123 28.4759 48.7805 28.4499C47.4791 28.4499 46.2311 27.9442 45.3109 27.044C44.3907 26.1439 43.8738 24.923 43.8738 23.6499C43.8738 22.3769 44.3907 21.156 45.3109 20.2558C46.2311 19.3556 47.4791 18.8499 48.7805 18.8499C50.028 18.8318 51.2327 19.2952 52.1334 20.1399L53.4316 18.8699C52.8223 18.2804 52.0989 17.8158 51.3038 17.5033C50.5086 17.1908 49.6577 17.0366 48.8009 17.0499C47.8921 17.0153 46.9856 17.1605 46.1356 17.4769C45.2856 17.7932 44.5096 18.2742 43.8541 18.8909C43.1987 19.5077 42.6772 20.2475 42.321 21.0661C41.9648 21.8847 41.7812 22.7652 41.7812 23.6549C41.7812 24.5446 41.9648 25.4251 42.321 26.2437C42.6772 27.0623 43.1987 27.8022 43.8541 28.4189C44.5096 29.0357 45.2856 29.5166 46.1356 29.833C46.9856 30.1493 47.8921 30.2945 48.8009 30.2599C49.6753 30.2941 50.5473 30.1469 51.3594 29.8281C52.1716 29.5092 52.9056 29.0259 53.5133 28.4099C54.5868 27.2563 55.1588 25.7391 55.108 24.1799C55.1117 23.8047 55.0809 23.4298 55.016 23.0599H48.8009ZM95.1178 24.4599C94.8512 23.6927 94.3527 23.0227 93.6882 22.5388C93.0238 22.0548 92.2247 21.7797 91.3969 21.7499C90.8378 21.7489 90.2843 21.86 89.7708 22.0765C89.2573 22.2929 88.7946 22.6101 88.4114 23.0085C88.0282 23.4068 87.7325 23.8778 87.5427 24.3923C87.353 24.9068 87.2731 25.454 87.308 25.9999C87.2993 26.9128 87.5927 27.8039 88.1443 28.5402C88.696 29.2765 89.4763 29.8184 90.3688 30.0851C91.2613 30.3517 92.218 30.3288 93.0961 30.0196C93.9741 29.7105 94.7264 29.1318 95.2405 28.3699L93.7583 27.3699C93.5373 27.7302 93.2239 28.0277 92.8491 28.233C92.4744 28.4382 92.0513 28.544 91.6218 28.5399C91.1787 28.5578 90.7405 28.4442 90.3647 28.214C89.9889 27.9837 89.693 27.6477 89.516 27.2499L95.3325 24.8999L95.1178 24.4599ZM89.1889 25.8799C89.1682 25.5693 89.211 25.2578 89.3149 24.9635C89.4188 24.6693 89.5817 24.3983 89.794 24.1664C90.0063 23.9346 90.2637 23.7464 90.5512 23.6131C90.8388 23.4798 91.1506 23.4039 91.4685 23.3899C91.7978 23.3703 92.1258 23.4461 92.4113 23.608C92.6968 23.7699 92.9271 24.0106 93.0734 24.2999L89.1889 25.8799ZM84.4662 29.9999H86.3778V17.4999H84.4662V29.9999ZM81.3382 22.6999H81.2667C80.9811 22.3818 80.6287 22.1277 80.2335 21.9551C79.8383 21.7825 79.4097 21.6955 78.9769 21.6999C77.8598 21.7529 76.8064 22.2243 76.0349 23.0165C75.2635 23.8087 74.8332 24.8608 74.8332 25.9549C74.8332 27.049 75.2635 28.1012 76.0349 28.8933C76.8064 29.6855 77.8598 30.1569 78.9769 30.2099C79.4103 30.2184 79.8403 30.1332 80.2361 29.9603C80.6319 29.7875 80.9838 29.5312 81.2667 29.2099H81.3382V29.8199C81.3382 31.4499 80.4489 32.3199 79.0178 32.3199C78.5397 32.3097 78.0756 32.1606 77.6843 31.8918C77.2929 31.6229 76.9921 31.2464 76.82 30.8099L75.164 31.4799C75.4702 32.2322 76.0025 32.8758 76.6906 33.3258C77.3787 33.7757 78.1902 34.0108 79.0178 33.9999C81.2565 33.9999 83.1067 32.7099 83.1067 29.5699V21.9999H81.3382V22.6999ZM79.1405 28.5799C78.4707 28.5391 77.8421 28.25 77.3826 27.7716C76.923 27.2932 76.6673 26.6614 76.6673 26.0049C76.6673 25.3485 76.923 24.7167 77.3826 24.2383C77.8421 23.7598 78.4707 23.4708 79.1405 23.4299C79.4678 23.4437 79.789 23.5218 80.0849 23.6596C80.3807 23.7973 80.6453 23.9918 80.8627 24.2316C81.0802 24.4714 81.2461 24.7515 81.3506 25.0553C81.4551 25.3591 81.4961 25.6803 81.4711 25.9999C81.499 26.3206 81.4601 26.6435 81.3568 26.9491C81.2535 27.2546 81.0879 27.5365 80.87 27.7777C80.6522 28.0189 80.3866 28.2143 80.0893 28.3522C79.792 28.4901 79.4692 28.5676 79.1405 28.5799ZM104.072 17.4999H99.4929V29.9999H101.404V25.2599H104.072C104.617 25.2982 105.164 25.2263 105.679 25.0487C106.195 24.871 106.667 24.5915 107.067 24.2274C107.466 23.8634 107.785 23.4227 108.003 22.9328C108.221 22.4429 108.334 21.9143 108.334 21.3799C108.334 20.8456 108.221 20.317 108.003 19.8271C107.785 19.3372 107.466 18.8965 107.067 18.5324C106.667 18.1684 106.195 17.8888 105.679 17.7112C105.164 17.5336 104.617 17.4616 104.072 17.4999ZM104.072 23.4999H101.404V19.2399H104.113C104.401 19.2399 104.685 19.2953 104.951 19.4028C105.216 19.5104 105.457 19.668 105.66 19.8667C105.863 20.0654 106.024 20.3013 106.134 20.561C106.244 20.8206 106.301 21.0989 106.301 21.3799C106.301 21.661 106.244 21.9392 106.134 22.1989C106.024 22.4585 105.863 22.6944 105.66 22.8931C105.457 23.0918 105.216 23.2495 104.951 23.357C104.685 23.4646 104.401 23.5199 104.113 23.5199L104.072 23.4999ZM115.869 21.7099C115.173 21.6679 114.479 21.8265 113.874 22.1659C113.269 22.5054 112.779 23.0109 112.465 23.6199L114.152 24.3099C114.322 24.0093 114.578 23.7634 114.888 23.602C115.198 23.4405 115.55 23.3703 115.9 23.3999C116.142 23.3722 116.388 23.392 116.623 23.4582C116.858 23.5245 117.077 23.6358 117.267 23.7856C117.457 23.9355 117.615 24.1209 117.731 24.3311C117.848 24.5413 117.92 24.7721 117.944 25.0099V25.1299C117.329 24.8138 116.645 24.6491 115.951 24.6499C114.131 24.6499 112.271 25.6499 112.271 27.4699C112.289 27.8568 112.386 28.2361 112.557 28.5855C112.728 28.9348 112.968 29.247 113.265 29.5035C113.561 29.7601 113.908 29.9557 114.283 30.0787C114.658 30.2018 115.055 30.2498 115.45 30.2199C115.929 30.2459 116.408 30.1466 116.835 29.9322C117.263 29.7178 117.624 29.3961 117.883 28.9999H117.944V29.9999H119.784V25.1899C119.784 22.9999 118.087 21.7299 115.91 21.7299L115.869 21.7099ZM115.634 28.5599C115.01 28.5599 114.141 28.2499 114.141 27.4999C114.141 26.4999 115.225 26.1599 116.186 26.1599C116.793 26.1453 117.393 26.2903 117.924 26.5799C117.859 27.123 117.596 27.6249 117.183 27.9926C116.769 28.3604 116.233 28.569 115.675 28.5799L115.634 28.5599ZM126.49 21.9999L124.302 27.4199H124.241L121.972 21.9999H119.927L123.331 29.5799L121.389 33.7899H123.382L128.616 21.9999H126.49ZM109.316 29.9999H111.218V17.4999H109.316V29.9999Z" fill="white"/>
<path d="M10.672 7.53997C10.3351 7.92959 10.1632 8.43044 10.1915 8.93997V31.06C10.1567 31.5704 10.3294 32.0735 10.672 32.46L10.7435 32.54L23.4089 20.15V19.85L10.7435 7.46997L10.672 7.53997Z" fill="url(#paint0_linear_14_2925)"/>
<path d="M27.5999 24.28L23.4088 20.15V19.85L27.5999 15.72L27.6919 15.78L32.711 18.56C34.1421 19.35 34.1421 20.65 32.711 21.45L27.7124 24.23L27.5999 24.28Z" fill="url(#paint1_linear_14_2925)"/>
<path d="M27.7227 24.22L23.4089 20L10.672 32.46C10.9609 32.7115 11.3306 32.8562 11.7171 32.869C12.1036 32.8818 12.4824 32.7619 12.788 32.53L27.7227 24.22Z" fill="url(#paint2_linear_14_2925)"/>
<path d="M27.7227 15.78L12.788 7.47997C12.4844 7.24488 12.1058 7.12203 11.7188 7.133C11.3318 7.14397 10.9611 7.28808 10.672 7.53997L23.4089 20L27.7227 15.78Z" fill="url(#paint3_linear_14_2925)"/>
<path opacity="0.2" d="M27.6 24.1299L12.788 32.3799C12.4935 32.5973 12.1347 32.7149 11.7658 32.7149C11.3969 32.7149 11.038 32.5973 10.7436 32.3799L10.672 32.4499L10.7436 32.5299C11.038 32.7473 11.3969 32.8649 11.7658 32.8649C12.1347 32.8649 12.4935 32.7473 12.788 32.5299L27.7227 24.2199L27.6 24.1299Z" fill="black"/>
<path opacity="0.12" d="M10.672 32.3202C10.3436 31.9235 10.1827 31.4191 10.2222 30.9102V31.0602C10.1874 31.5705 10.3601 32.0737 10.7026 32.4602L10.7742 32.3902L10.672 32.3202Z" fill="black"/>
<path opacity="0.12" d="M32.7111 21.3L27.6 24.13L27.692 24.22L32.7111 21.44C33.0074 21.3175 33.2644 21.119 33.4551 20.8656C33.6457 20.6122 33.7631 20.3132 33.7946 20C33.7307 20.2846 33.5994 20.5505 33.4112 20.7763C33.223 21.0021 32.9832 21.1815 32.7111 21.3Z" fill="black"/>
<path opacity="0.25" d="M12.788 7.61998L32.7111 18.7C32.9832 18.8185 33.223 18.9979 33.4112 19.2237C33.5994 19.4495 33.7307 19.7154 33.7946 20C33.7631 19.6868 33.6457 19.3878 33.455 19.1344C33.2644 18.881 33.0074 18.6825 32.7111 18.56L12.788 7.47998C11.3671 6.67998 10.1915 7.33998 10.1915 8.93998V9.08998C10.2222 7.48998 11.3671 6.82998 12.788 7.61998Z" fill="white"/>
<defs>
<linearGradient id="paint0_linear_14_2925" x1="22.2844" y1="8.70997" x2="5.50847" y2="25.8587" gradientUnits="userSpaceOnUse">
<stop stop-color="#00A0FF"/>
<stop offset="0.01" stop-color="#00A1FF"/>
<stop offset="0.26" stop-color="#00BEFF"/>
<stop offset="0.51" stop-color="#00D2FF"/>
<stop offset="0.76" stop-color="#00DFFF"/>
<stop offset="1" stop-color="#00E3FF"/>
</linearGradient>
<linearGradient id="paint1_linear_14_2925" x1="34.5817" y1="20" x2="9.85416" y2="20" gradientUnits="userSpaceOnUse">
<stop stop-color="#FFE000"/>
<stop offset="0.41" stop-color="#FFBD00"/>
<stop offset="0.78" stop-color="#FFA500"/>
<stop offset="1" stop-color="#FF9C00"/>
</linearGradient>
<linearGradient id="paint2_linear_14_2925" x1="25.3818" y1="22.3" x2="2.62704" y2="45.5502" gradientUnits="userSpaceOnUse">
<stop stop-color="#FF3A44"/>
<stop offset="1" stop-color="#C31162"/>
</linearGradient>
<linearGradient id="paint3_linear_14_2925" x1="7.46222" y1="0.179971" x2="17.6198" y2="10.5632" gradientUnits="userSpaceOnUse">
<stop stop-color="#32A071"/>
<stop offset="0.07" stop-color="#2DA771"/>
<stop offset="0.48" stop-color="#15CF74"/>
<stop offset="0.8" stop-color="#06E775"/>
<stop offset="1" stop-color="#00F076"/>
</linearGradient>
</defs>
</svg>
