<svg width="208" height="40" viewBox="0 0 208 40" fill="none" xmlns="http://www.w3.org/2000/svg">
<path fill-rule="evenodd" clip-rule="evenodd" d="M9.36014 18.7825C9.36014 22.4222 9.12525 26.5636 9.35309 30.1295C9.49285 28.2368 12.8083 26.7832 13.0573 25.8948C12.6368 11.9499 11.3332 4.12669 27.4664 3.86508C31.7308 3.7957 35.5488 3.62508 39.8367 3.90944C39.8367 9.00058 40.5414 12.9258 37.7133 16.7772C36.5731 18.135 35.1624 19.2568 33.5652 20.0757C31.1306 21.0027 29.0495 20.6319 26.5186 20.7184L26.5774 24.2148C29.8604 24.5632 33.1797 24.046 36.1842 22.718C36.6481 22.9974 37.0046 23.4166 37.1989 23.9111C38.4908 26.3464 39.8296 33.4246 38.7879 36.1101C35.8824 36.374 16.6522 36.1749 11.776 36.2238C3.29419 36.3125 3.83561 32.5124 3.82622 26.4772L3.84618 0.461883C2.84204 2.64916 0.755064 3.4192 0.0410081 5.22772C0.0468803 7.67205 0.105604 10.262 0.102081 11.2823C0.0868133 15.1313 -0.265509 30.8176 0.429756 33.4485C0.844278 34.7844 1.57237 36.0093 2.55707 37.0273C3.54178 38.0453 4.75637 38.8288 6.10579 39.3165C10.0026 40.3607 19.5871 39.8977 24.2848 39.8977C25.5767 39.8977 40.9947 40.0763 42.2607 39.6202C43.5268 39.1641 43.3999 26.5705 40.5085 22.1174C40.31 21.8114 40.1162 21.5203 39.9565 21.3087L39.3881 20.6353C39.3716 20.5637 39.3164 20.558 39.2859 20.5148L40.7434 18.7552C41.196 18.1489 41.5963 17.5075 41.9401 16.8375C42.7048 15.3481 43.2065 13.7453 43.4246 12.0955C43.8171 8.19103 43.8493 4.26045 43.5209 0.350424C40.8127 -0.242177 26.3859 0.0706238 22.7968 0.194604C20.4594 0.257595 18.1764 0.891483 16.1595 2.03744C14.1427 3.1834 12.4575 4.80429 11.2604 6.74961C9.06889 10.4383 9.35428 14.6798 9.35662 18.7836" fill="#323846"/>
<path d="M58.126 8.372H67.366C68.378 8.372 69.324 8.537 70.204 8.867C71.084 9.175 71.843 9.615 72.481 10.187C73.141 10.737 73.658 11.386 74.032 12.134C74.406 12.882 74.593 13.685 74.593 14.543C74.593 15.797 74.285 16.853 73.669 17.711C73.075 18.547 72.327 19.185 71.425 19.625V19.889C72.635 20.329 73.603 21.022 74.329 21.968C75.077 22.892 75.451 24.047 75.451 25.433C75.451 26.445 75.242 27.358 74.824 28.172C74.428 28.964 73.878 29.646 73.174 30.218C72.47 30.79 71.645 31.23 70.699 31.538C69.775 31.846 68.774 32 67.696 32H58.126V8.372ZM67.036 18.008C68.07 18.008 68.862 17.733 69.412 17.183C69.984 16.611 70.27 15.94 70.27 15.17C70.27 14.4 69.995 13.74 69.445 13.19C68.895 12.64 68.136 12.365 67.168 12.365H62.581V18.008H67.036ZM67.531 27.908C68.653 27.908 69.511 27.633 70.105 27.083C70.699 26.511 70.996 25.785 70.996 24.905C70.996 24.025 70.688 23.299 70.072 22.727C69.478 22.133 68.587 21.836 67.399 21.836H62.581V27.908H67.531ZM93.6639 28.106C92.9159 29.426 91.9039 30.493 90.6279 31.307C89.3739 32.121 87.8339 32.528 86.0079 32.528C84.7759 32.528 83.6319 32.319 82.5759 31.901C81.5419 31.461 80.6399 30.856 79.8699 30.086C79.0999 29.316 78.4949 28.414 78.0549 27.38C77.6369 26.324 77.4279 25.169 77.4279 23.915C77.4279 22.749 77.6369 21.649 78.0549 20.615C78.4729 19.559 79.0559 18.646 79.8039 17.876C80.5519 17.084 81.4319 16.457 82.4439 15.995C83.4779 15.533 84.6109 15.302 85.8429 15.302C87.1409 15.302 88.2959 15.522 89.3079 15.962C90.3199 16.38 91.1669 16.974 91.8489 17.744C92.5309 18.492 93.0479 19.383 93.3999 20.417C93.7519 21.451 93.9279 22.573 93.9279 23.783C93.9279 23.937 93.9279 24.069 93.9279 24.179C93.9059 24.311 93.8949 24.432 93.8949 24.542C93.8729 24.652 93.8619 24.773 93.8619 24.905H81.6849C81.7729 25.565 81.9489 26.137 82.2129 26.621C82.4989 27.083 82.8399 27.479 83.2359 27.809C83.6539 28.117 84.1049 28.348 84.5889 28.502C85.0729 28.634 85.5679 28.7 86.0739 28.7C87.0639 28.7 87.8779 28.48 88.5159 28.04C89.1759 27.578 89.6929 27.006 90.0669 26.324L93.6639 28.106ZM89.7369 21.836C89.7149 21.55 89.6159 21.231 89.4399 20.879C89.2859 20.527 89.0439 20.197 88.7139 19.889C88.4059 19.581 88.0099 19.328 87.5259 19.13C87.0639 18.932 86.5029 18.833 85.8429 18.833C84.9189 18.833 84.1049 19.097 83.4009 19.625C82.6969 20.153 82.2019 20.89 81.9159 21.836H89.7369ZM106.816 30.284H106.552C106.046 30.9 105.43 31.428 104.704 31.868C104 32.308 103.087 32.528 101.965 32.528C101.129 32.528 100.337 32.385 99.589 32.099C98.863 31.835 98.225 31.461 97.675 30.977C97.125 30.493 96.696 29.91 96.388 29.228C96.08 28.546 95.926 27.798 95.926 26.984C95.926 26.148 96.091 25.4 96.421 24.74C96.751 24.058 97.213 23.475 97.807 22.991C98.401 22.507 99.094 22.144 99.886 21.902C100.7 21.638 101.58 21.506 102.526 21.506C103.582 21.506 104.451 21.594 105.133 21.77C105.815 21.924 106.376 22.089 106.816 22.265V21.77C106.816 20.912 106.475 20.208 105.793 19.658C105.111 19.086 104.264 18.8 103.252 18.8C101.756 18.8 100.491 19.427 99.457 20.681L96.322 18.536C98.038 16.38 100.381 15.302 103.351 15.302C105.859 15.302 107.773 15.896 109.093 17.084C110.413 18.25 111.073 19.988 111.073 22.298V32H106.816V30.284ZM106.816 25.433C106.31 25.191 105.782 25.004 105.232 24.872C104.704 24.718 104.121 24.641 103.483 24.641C102.449 24.641 101.646 24.872 101.074 25.334C100.524 25.774 100.249 26.324 100.249 26.984C100.249 27.644 100.513 28.172 101.041 28.568C101.591 28.964 102.218 29.162 102.922 29.162C103.494 29.162 104.022 29.063 104.506 28.865C104.99 28.645 105.397 28.37 105.727 28.04C106.079 27.688 106.343 27.292 106.519 26.852C106.717 26.39 106.816 25.917 106.816 25.433ZM125.697 29.888H125.433C124.927 30.702 124.245 31.351 123.387 31.835C122.529 32.297 121.55 32.528 120.45 32.528C118.404 32.528 116.875 31.901 115.863 30.647C114.873 29.393 114.378 27.721 114.378 25.631V15.83H118.701V25.103C118.701 26.269 118.954 27.138 119.46 27.71C119.988 28.26 120.747 28.535 121.737 28.535C122.331 28.535 122.848 28.414 123.288 28.172C123.75 27.908 124.135 27.567 124.443 27.149C124.773 26.709 125.015 26.203 125.169 25.631C125.345 25.037 125.433 24.41 125.433 23.75V15.83H129.756V32H125.697V29.888ZM135.402 19.526H132.564V15.83H135.402V10.88H139.725V15.83H143.685V19.526H139.725V25.796C139.725 26.17 139.758 26.522 139.824 26.852C139.912 27.16 140.066 27.424 140.286 27.644C140.594 27.996 141.034 28.172 141.606 28.172C141.98 28.172 142.277 28.139 142.497 28.073C142.717 27.985 142.926 27.875 143.124 27.743L144.345 31.538C143.839 31.78 143.289 31.956 142.695 32.066C142.123 32.198 141.485 32.264 140.781 32.264C139.967 32.264 139.23 32.143 138.57 31.901C137.932 31.637 137.393 31.285 136.953 30.845C135.919 29.855 135.402 28.447 135.402 26.621V19.526ZM152.109 31.208L145.311 15.83H150.228L154.32 25.631H154.551L158.478 15.83H163.296L153.165 39.128H148.512L152.109 31.208ZM164.945 32V8.372H169.268V32H164.945ZM182.774 30.284H182.51C182.004 30.9 181.388 31.428 180.662 31.868C179.958 32.308 179.045 32.528 177.923 32.528C177.087 32.528 176.295 32.385 175.547 32.099C174.821 31.835 174.183 31.461 173.633 30.977C173.083 30.493 172.654 29.91 172.346 29.228C172.038 28.546 171.884 27.798 171.884 26.984C171.884 26.148 172.049 25.4 172.379 24.74C172.709 24.058 173.171 23.475 173.765 22.991C174.359 22.507 175.052 22.144 175.844 21.902C176.658 21.638 177.538 21.506 178.484 21.506C179.54 21.506 180.409 21.594 181.091 21.77C181.773 21.924 182.334 22.089 182.774 22.265V21.77C182.774 20.912 182.433 20.208 181.751 19.658C181.069 19.086 180.222 18.8 179.21 18.8C177.714 18.8 176.449 19.427 175.415 20.681L172.28 18.536C173.996 16.38 176.339 15.302 179.309 15.302C181.817 15.302 183.731 15.896 185.051 17.084C186.371 18.25 187.031 19.988 187.031 22.298V32H182.774V30.284ZM182.774 25.433C182.268 25.191 181.74 25.004 181.19 24.872C180.662 24.718 180.079 24.641 179.441 24.641C178.407 24.641 177.604 24.872 177.032 25.334C176.482 25.774 176.207 26.324 176.207 26.984C176.207 27.644 176.471 28.172 176.999 28.568C177.549 28.964 178.176 29.162 178.88 29.162C179.452 29.162 179.98 29.063 180.464 28.865C180.948 28.645 181.355 28.37 181.685 28.04C182.037 27.688 182.301 27.292 182.477 26.852C182.675 26.39 182.774 25.917 182.774 25.433ZM190.468 8.372H194.791V15.467L194.527 17.777H194.791C195.187 17.095 195.803 16.512 196.639 16.028C197.475 15.544 198.509 15.302 199.741 15.302C200.775 15.302 201.754 15.522 202.678 15.962C203.624 16.38 204.449 16.974 205.153 17.744C205.879 18.492 206.451 19.394 206.869 20.45C207.287 21.506 207.496 22.661 207.496 23.915C207.496 25.169 207.287 26.324 206.869 27.38C206.451 28.436 205.879 29.349 205.153 30.119C204.449 30.867 203.624 31.461 202.678 31.901C201.754 32.319 200.775 32.528 199.741 32.528C198.509 32.528 197.475 32.286 196.639 31.802C195.803 31.318 195.187 30.735 194.791 30.053H194.527V32H190.468V8.372ZM198.85 28.535C199.422 28.535 199.961 28.425 200.467 28.205C200.995 27.985 201.457 27.677 201.853 27.281C202.249 26.885 202.568 26.401 202.81 25.829C203.052 25.257 203.173 24.619 203.173 23.915C203.173 23.211 203.052 22.573 202.81 22.001C202.568 21.429 202.249 20.945 201.853 20.549C201.457 20.153 200.995 19.845 200.467 19.625C199.961 19.405 199.422 19.295 198.85 19.295C198.278 19.295 197.728 19.405 197.2 19.625C196.694 19.823 196.243 20.12 195.847 20.516C195.451 20.912 195.132 21.396 194.89 21.968C194.648 22.54 194.527 23.189 194.527 23.915C194.527 24.641 194.648 25.29 194.89 25.862C195.132 26.434 195.451 26.918 195.847 27.314C196.243 27.71 196.694 28.018 197.2 28.238C197.728 28.436 198.278 28.535 198.85 28.535Z" fill="#1F2937"/>
</svg>
