<svg width="14" height="10" viewBox="0 0 14 10" fill="none" xmlns="http://www.w3.org/2000/svg">
<path d="M0.602376 1.7074L6.99998 4.9058L13.3976 1.7074C13.3739 1.29975 13.1952 0.916586 12.8982 0.636377C12.6012 0.356168 12.2083 0.20012 11.8 0.200195H2.19998C1.79164 0.20012 1.39873 0.356168 1.10172 0.636377C0.804702 0.916586 0.626059 1.29975 0.602376 1.7074Z" fill="#6B7280"/>
<path d="M13.4 3.4946L6.99998 6.6946L0.599976 3.4946V8.2002C0.599976 8.62454 0.768546 9.03151 1.0686 9.33157C1.36866 9.63163 1.77563 9.8002 2.19998 9.8002H11.8C12.2243 9.8002 12.6313 9.63163 12.9313 9.33157C13.2314 9.03151 13.4 8.62454 13.4 8.2002V3.4946Z" fill="#6B7280"/>
</svg>
