<svg width="14" height="14" viewBox="0 0 14 14" fill="none" xmlns="http://www.w3.org/2000/svg">
<path fill-rule="evenodd" clip-rule="evenodd" d="M8.59998 0.268555L5.39998 3.46855V13.7313L8.59998 10.5313V0.268555Z" fill="#6B7280"/>
<path fill-rule="evenodd" clip-rule="evenodd" d="M1.96566 1.63424C1.73686 1.40544 1.39277 1.337 1.09383 1.46082C0.794889 1.58465 0.599976 1.87636 0.599976 2.19993V10.1999C0.599976 10.4121 0.684261 10.6156 0.83429 10.7656L3.79998 13.7313V3.46855L1.96566 1.63424Z" fill="#6B7280"/>
<path fill-rule="evenodd" clip-rule="evenodd" d="M13.1657 3.23424L10.2 0.268555V10.5313L12.0343 12.3656C12.2631 12.5944 12.6072 12.6629 12.9061 12.539C13.2051 12.4152 13.4 12.1235 13.4 11.7999V3.79993C13.4 3.58775 13.3157 3.38427 13.1657 3.23424Z" fill="#6B7280"/>
</svg>
