<svg width="14" height="14" viewBox="0 0 14 14" fill="none" xmlns="http://www.w3.org/2000/svg">
<path d="M0.599976 1.4001C0.599976 0.95827 0.958148 0.600098 1.39998 0.600098H3.12227C3.51335 0.600098 3.8471 0.882828 3.91139 1.26858L4.50284 4.81728C4.56058 5.1637 4.38562 5.50727 4.07149 5.66434L2.83298 6.28359C3.72602 8.50275 5.49732 10.2741 7.71648 11.1671L8.33573 9.92858C8.4928 9.61445 8.83637 9.4395 9.1828 9.49723L12.7315 10.0887C13.1172 10.153 13.4 10.4867 13.4 10.8778V12.6001C13.4 13.0419 13.0418 13.4001 12.6 13.4001H11C5.25621 13.4001 0.599976 8.74386 0.599976 3.0001V1.4001Z" fill="#6B7280"/>
</svg>
