<svg width="356" height="210" viewBox="0 0 356 210" fill="none" xmlns="http://www.w3.org/2000/svg">
<g filter="url(#filter0_d_1441_1800)">
<rect x="237.719" y="159.323" width="44.0208" height="29.3542" rx="6.67708" fill="white" stroke="#D9D9D9" stroke-width="2.64583"/>
<path fill-rule="evenodd" clip-rule="evenodd" d="M265.965 183.075C270.99 183.075 275.063 178.954 275.063 173.871C275.063 168.787 270.99 164.667 265.965 164.667C263.713 164.667 261.652 165.494 260.063 166.865C258.474 165.494 256.414 164.667 254.162 164.667C249.137 164.667 245.063 168.787 245.063 173.871C245.063 178.954 249.137 183.075 254.162 183.075C256.414 183.075 258.474 182.247 260.063 180.876C261.652 182.247 263.713 183.075 265.965 183.075Z" fill="#ED0006"/>
<path fill-rule="evenodd" clip-rule="evenodd" d="M260.063 180.876C262.019 179.188 263.26 176.676 263.26 173.871C263.26 171.066 262.019 168.554 260.063 166.865C261.652 165.494 263.713 164.667 265.965 164.667C270.99 164.667 275.063 168.787 275.063 173.871C275.063 178.954 270.99 183.075 265.965 183.075C263.713 183.075 261.652 182.247 260.063 180.876Z" fill="#F9A000"/>
<path fill-rule="evenodd" clip-rule="evenodd" d="M260.063 180.876C262.019 179.188 263.26 176.676 263.26 173.871C263.26 171.066 262.019 168.554 260.063 166.865C258.107 168.554 256.866 171.066 256.866 173.871C256.866 176.676 258.107 179.188 260.063 180.876Z" fill="#FF5E00"/>
</g>
<g filter="url(#filter1_d_1441_1800)">
<rect x="185.323" y="159.323" width="44.0208" height="29.3542" rx="6.67708" fill="white" stroke="#D9D9D9" stroke-width="2.64583"/>
<path fill-rule="evenodd" clip-rule="evenodd" d="M198.167 179.678H195.34L193.22 171.59C193.119 171.218 192.906 170.889 192.591 170.734C191.807 170.345 190.943 170.034 190 169.878V169.567H194.554C195.183 169.567 195.654 170.034 195.733 170.578L196.833 176.412L199.658 169.567H202.407L198.167 179.678ZM203.978 179.678H201.308L203.507 169.567H206.177L203.978 179.678ZM209.631 172.368C209.71 171.823 210.181 171.512 210.731 171.512C211.595 171.434 212.537 171.59 213.323 171.978L213.794 169.801C213.008 169.49 212.144 169.333 211.36 169.333C208.768 169.333 206.883 170.734 206.883 172.678C206.883 174.156 208.218 174.933 209.161 175.401C210.181 175.867 210.574 176.178 210.495 176.645C210.495 177.344 209.71 177.656 208.925 177.656C207.983 177.656 207.04 177.423 206.177 177.033L205.705 179.211C206.648 179.6 207.668 179.756 208.611 179.756C211.517 179.833 213.323 178.434 213.323 176.333C213.323 173.689 209.631 173.534 209.631 172.368ZM222.667 179.678L220.547 169.567H218.27C217.798 169.567 217.327 169.878 217.17 170.345L213.244 179.678H215.992L216.541 178.201H219.918L220.232 179.678H222.667ZM218.662 172.289L219.447 176.1H217.248L218.662 172.289Z" fill="#172B85"/>
</g>
<g filter="url(#filter2_d_1441_1800)">
<rect x="290.116" y="159.323" width="44.0208" height="29.3542" rx="6.67708" fill="#1F72CD" stroke="#D9D9D9" stroke-width="2.64583"/>
<path fill-rule="evenodd" clip-rule="evenodd" d="M297.159 169.333L292.793 178.996H298.02L298.668 177.455H300.149L300.797 178.996H306.551V177.82L307.063 178.996H310.04L310.552 177.795V178.996H322.518L323.973 177.495L325.335 178.996L331.481 179.008L327.101 174.192L331.481 169.333H325.431L324.014 170.806L322.695 169.333H309.678L308.56 171.827L307.416 169.333H302.2V170.469L301.62 169.333H297.159ZM315.028 170.705H321.899L324 172.976L326.17 170.705H328.271L325.078 174.19L328.271 177.635H326.074L323.973 175.338L321.792 177.635H315.028V170.705ZM316.724 173.407V172.141V172.14H321.012L322.883 174.164L320.929 176.199H316.724V174.817H320.473V173.407H316.724ZM298.171 170.705H300.719L303.615 177.258V170.705H306.406L308.643 175.403L310.704 170.705H313.481V177.639H311.792L311.778 172.206L309.314 177.639H307.803L305.325 172.206V177.639H301.849L301.19 176.084H297.629L296.971 177.637H295.109L298.171 170.705ZM298.237 174.647L299.41 171.878L300.582 174.647H298.237Z" fill="white"/>
</g>
<g clip-path="url(#clip0_1441_1800)">
<path d="M21.2115 182.866C21.2115 183.288 21.105 183.407 20.9779 183.512C20.7828 183.646 20.5459 183.714 20.3052 183.704H10.9593V180.421H20.302C20.5422 180.412 20.7789 180.479 20.9746 180.611C21.1022 180.717 21.2082 180.836 21.2082 181.258L21.2115 182.866ZM22.9968 178.793C22.3219 178.267 21.4722 177.986 20.5995 178.001H8V189.999H10.9593V186.123H20.5995C21.4725 186.138 22.3224 185.856 22.9964 185.329C23.3774 185.007 23.68 184.609 23.8831 184.164C24.0862 183.72 24.185 183.238 24.1726 182.753V181.371C24.1849 180.886 24.0862 180.404 23.8832 179.959C23.6802 179.514 23.3777 179.116 22.9968 178.793Z" fill="white"/>
<path d="M77.6838 180.42V182.791H89.8036V185.209H77.6838V187.578H90.5869V189.997H74.7222V178.001H90.5869V180.42H77.6838Z" fill="white"/>
<path d="M70.9507 187.581H60.5336L64.3025 184.001L62.3779 182.172L56.0618 188.171L57.9873 190H73.4984L70.9507 187.581Z" fill="white"/>
<path d="M29.5138 185.162L32.446 181.154L35.3782 185.162H29.5138ZM57.5255 178.601L59.4407 180.42H68.7241L64.9548 184.001L66.8794 185.829L73.1955 179.83L71.2704 178.002H58.1575H54.014L48.4496 183.286L44.5831 178H40.9834L46.3255 185.303L42.0503 189.365L33.7381 178.001H31.1535L22.3774 189.999H25.9767L27.7439 187.583H37.1477L38.9149 189.999H42.5142H45.53L57.5255 178.601Z" fill="white"/>
</g>
<path d="M10.712 166.464V163.896H12.176C12.392 163.896 12.6 163.912 12.8 163.944C13 163.976 13.176 164.04 13.328 164.136C13.48 164.224 13.6 164.352 13.688 164.52C13.784 164.688 13.832 164.908 13.832 165.18C13.832 165.452 13.784 165.672 13.688 165.84C13.6 166.008 13.48 166.14 13.328 166.236C13.176 166.324 13 166.384 12.8 166.416C12.6 166.448 12.392 166.464 12.176 166.464H10.712ZM8.828 162.432V171H10.712V167.928H12.692C13.228 167.928 13.684 167.852 14.06 167.7C14.436 167.54 14.74 167.332 14.972 167.076C15.212 166.82 15.384 166.528 15.488 166.2C15.6 165.864 15.656 165.524 15.656 165.18C15.656 164.828 15.6 164.488 15.488 164.16C15.384 163.832 15.212 163.54 14.972 163.284C14.74 163.028 14.436 162.824 14.06 162.672C13.684 162.512 13.228 162.432 12.692 162.432H8.828ZM19.0159 166.308V163.896H21.0799C21.5119 163.896 21.8359 163.992 22.0519 164.184C22.2679 164.368 22.3759 164.668 22.3759 165.084C22.3759 165.516 22.2679 165.828 22.0519 166.02C21.8359 166.212 21.5119 166.308 21.0799 166.308H19.0159ZM17.1319 162.432V171H19.0159V167.652H20.8999C21.3719 167.652 21.7119 167.756 21.9199 167.964C22.1279 168.172 22.2639 168.5 22.3279 168.948C22.3759 169.292 22.4119 169.652 22.4359 170.028C22.4599 170.404 22.5239 170.728 22.6279 171H24.5119C24.4239 170.88 24.3559 170.736 24.3079 170.568C24.2679 170.392 24.2359 170.208 24.2119 170.016C24.1959 169.824 24.1839 169.636 24.1759 169.452C24.1679 169.268 24.1599 169.108 24.1519 168.972C24.1359 168.756 24.1039 168.54 24.0559 168.324C24.0159 168.108 23.9479 167.912 23.8519 167.736C23.7559 167.552 23.6319 167.396 23.4799 167.268C23.3279 167.132 23.1359 167.032 22.9039 166.968V166.944C23.3839 166.752 23.7279 166.472 23.9359 166.104C24.1519 165.736 24.2599 165.3 24.2599 164.796C24.2599 164.468 24.1999 164.164 24.0799 163.884C23.9679 163.596 23.7999 163.344 23.5759 163.128C23.3599 162.912 23.0959 162.744 22.7839 162.624C22.4799 162.496 22.1359 162.432 21.7519 162.432H17.1319ZM27.6041 166.752C27.6041 166.376 27.6441 166.012 27.7241 165.66C27.8121 165.308 27.9481 164.996 28.1321 164.724C28.3161 164.444 28.5561 164.224 28.8521 164.064C29.1481 163.896 29.5081 163.812 29.9321 163.812C30.3561 163.812 30.7161 163.896 31.0121 164.064C31.3081 164.224 31.5481 164.444 31.7321 164.724C31.9161 164.996 32.0481 165.308 32.1281 165.66C32.2161 166.012 32.2601 166.376 32.2601 166.752C32.2601 167.112 32.2161 167.464 32.1281 167.808C32.0481 168.144 31.9161 168.448 31.7321 168.72C31.5481 168.992 31.3081 169.212 31.0121 169.38C30.7161 169.54 30.3561 169.62 29.9321 169.62C29.5081 169.62 29.1481 169.54 28.8521 169.38C28.5561 169.212 28.3161 168.992 28.1321 168.72C27.9481 168.448 27.8121 168.144 27.7241 167.808C27.6441 167.464 27.6041 167.112 27.6041 166.752ZM25.7201 166.752C25.7201 167.376 25.8161 167.96 26.0081 168.504C26.2001 169.04 26.4761 169.508 26.8361 169.908C27.1961 170.308 27.6361 170.624 28.1561 170.856C28.6841 171.08 29.2761 171.192 29.9321 171.192C30.5961 171.192 31.1881 171.08 31.7081 170.856C32.2281 170.624 32.6681 170.308 33.0281 169.908C33.3881 169.508 33.6641 169.04 33.8561 168.504C34.0481 167.96 34.1441 167.376 34.1441 166.752C34.1441 166.112 34.0481 165.52 33.8561 164.976C33.6641 164.424 33.3881 163.944 33.0281 163.536C32.6681 163.128 32.2281 162.808 31.7081 162.576C31.1881 162.344 30.5961 162.228 29.9321 162.228C29.2761 162.228 28.6841 162.344 28.1561 162.576C27.6361 162.808 27.1961 163.128 26.8361 163.536C26.4761 163.944 26.2001 164.424 26.0081 164.976C25.8161 165.52 25.7201 166.112 25.7201 166.752ZM41.4439 165.312H43.2679C43.2119 164.816 43.0759 164.376 42.8599 163.992C42.6439 163.608 42.3679 163.288 42.0319 163.032C41.7039 162.768 41.3279 162.568 40.9039 162.432C40.4879 162.296 40.0439 162.228 39.5719 162.228C38.9159 162.228 38.3239 162.344 37.7959 162.576C37.2759 162.808 36.8359 163.128 36.4759 163.536C36.1159 163.944 35.8399 164.424 35.6479 164.976C35.4559 165.52 35.3599 166.112 35.3599 166.752C35.3599 167.376 35.4559 167.96 35.6479 168.504C35.8399 169.04 36.1159 169.508 36.4759 169.908C36.8359 170.308 37.2759 170.624 37.7959 170.856C38.3239 171.08 38.9159 171.192 39.5719 171.192C40.0999 171.192 40.5839 171.112 41.0239 170.952C41.4639 170.792 41.8479 170.56 42.1759 170.256C42.5039 169.952 42.7679 169.584 42.9679 169.152C43.1679 168.72 43.2919 168.236 43.3399 167.7H41.5159C41.4439 168.276 41.2439 168.74 40.9159 169.092C40.5959 169.444 40.1479 169.62 39.5719 169.62C39.1479 169.62 38.7879 169.54 38.4919 169.38C38.1959 169.212 37.9559 168.992 37.7719 168.72C37.5879 168.448 37.4519 168.144 37.3639 167.808C37.2839 167.464 37.2439 167.112 37.2439 166.752C37.2439 166.376 37.2839 166.012 37.3639 165.66C37.4519 165.308 37.5879 164.996 37.7719 164.724C37.9559 164.444 38.1959 164.224 38.4919 164.064C38.7879 163.896 39.1479 163.812 39.5719 163.812C39.8039 163.812 40.0239 163.852 40.2319 163.932C40.4479 164.004 40.6399 164.108 40.8079 164.244C40.9759 164.38 41.1159 164.54 41.2279 164.724C41.3399 164.9 41.4119 165.096 41.4439 165.312ZM44.9264 162.432V171H51.4304V169.416H46.8104V167.316H50.9624V165.852H46.8104V164.016H51.3344V162.432H44.9264ZM54.2917 168.156H52.4677C52.4597 168.684 52.5557 169.14 52.7557 169.524C52.9557 169.908 53.2237 170.224 53.5597 170.472C53.9037 170.72 54.2957 170.9 54.7357 171.012C55.1837 171.132 55.6437 171.192 56.1157 171.192C56.6997 171.192 57.2117 171.124 57.6517 170.988C58.0997 170.852 58.4717 170.664 58.7677 170.424C59.0717 170.176 59.2997 169.884 59.4517 169.548C59.6037 169.212 59.6797 168.848 59.6797 168.456C59.6797 167.976 59.5757 167.584 59.3677 167.28C59.1677 166.968 58.9277 166.72 58.6477 166.536C58.3677 166.352 58.0837 166.22 57.7957 166.14C57.5157 166.052 57.2957 165.992 57.1357 165.96C56.5997 165.824 56.1637 165.712 55.8277 165.624C55.4997 165.536 55.2397 165.448 55.0477 165.36C54.8637 165.272 54.7397 165.176 54.6757 165.072C54.6117 164.968 54.5797 164.832 54.5797 164.664C54.5797 164.48 54.6197 164.328 54.6997 164.208C54.7797 164.088 54.8797 163.988 54.9997 163.908C55.1277 163.828 55.2677 163.772 55.4197 163.74C55.5717 163.708 55.7237 163.692 55.8757 163.692C56.1077 163.692 56.3197 163.712 56.5117 163.752C56.7117 163.792 56.8877 163.86 57.0397 163.956C57.1917 164.052 57.3117 164.184 57.3997 164.352C57.4957 164.52 57.5517 164.732 57.5677 164.988H59.3917C59.3917 164.492 59.2957 164.072 59.1037 163.728C58.9197 163.376 58.6677 163.088 58.3477 162.864C58.0277 162.64 57.6597 162.48 57.2437 162.384C56.8357 162.28 56.4077 162.228 55.9597 162.228C55.5757 162.228 55.1917 162.28 54.8077 162.384C54.4237 162.488 54.0797 162.648 53.7757 162.864C53.4717 163.08 53.2237 163.352 53.0317 163.68C52.8477 164 52.7557 164.38 52.7557 164.82C52.7557 165.212 52.8277 165.548 52.9717 165.828C53.1237 166.1 53.3197 166.328 53.5597 166.512C53.7997 166.696 54.0717 166.848 54.3757 166.968C54.6797 167.08 54.9917 167.176 55.3117 167.256C55.6237 167.344 55.9317 167.424 56.2357 167.496C56.5397 167.568 56.8117 167.652 57.0517 167.748C57.2917 167.844 57.4837 167.964 57.6277 168.108C57.7797 168.252 57.8557 168.44 57.8557 168.672C57.8557 168.888 57.7997 169.068 57.6877 169.212C57.5757 169.348 57.4357 169.456 57.2677 169.536C57.0997 169.616 56.9197 169.672 56.7277 169.704C56.5357 169.728 56.3557 169.74 56.1877 169.74C55.9397 169.74 55.6997 169.712 55.4677 169.656C55.2357 169.592 55.0317 169.5 54.8557 169.38C54.6877 169.252 54.5517 169.088 54.4477 168.888C54.3437 168.688 54.2917 168.444 54.2917 168.156ZM62.3847 168.156H60.5607C60.5527 168.684 60.6487 169.14 60.8487 169.524C61.0487 169.908 61.3167 170.224 61.6527 170.472C61.9967 170.72 62.3887 170.9 62.8287 171.012C63.2767 171.132 63.7367 171.192 64.2087 171.192C64.7927 171.192 65.3047 171.124 65.7447 170.988C66.1927 170.852 66.5647 170.664 66.8607 170.424C67.1647 170.176 67.3927 169.884 67.5447 169.548C67.6967 169.212 67.7727 168.848 67.7727 168.456C67.7727 167.976 67.6687 167.584 67.4607 167.28C67.2607 166.968 67.0207 166.72 66.7407 166.536C66.4607 166.352 66.1767 166.22 65.8887 166.14C65.6087 166.052 65.3887 165.992 65.2287 165.96C64.6927 165.824 64.2567 165.712 63.9207 165.624C63.5927 165.536 63.3327 165.448 63.1407 165.36C62.9567 165.272 62.8327 165.176 62.7687 165.072C62.7047 164.968 62.6727 164.832 62.6727 164.664C62.6727 164.48 62.7127 164.328 62.7927 164.208C62.8727 164.088 62.9727 163.988 63.0927 163.908C63.2207 163.828 63.3607 163.772 63.5127 163.74C63.6647 163.708 63.8167 163.692 63.9687 163.692C64.2007 163.692 64.4127 163.712 64.6047 163.752C64.8047 163.792 64.9807 163.86 65.1327 163.956C65.2847 164.052 65.4047 164.184 65.4927 164.352C65.5887 164.52 65.6447 164.732 65.6607 164.988H67.4847C67.4847 164.492 67.3887 164.072 67.1967 163.728C67.0127 163.376 66.7607 163.088 66.4407 162.864C66.1207 162.64 65.7527 162.48 65.3367 162.384C64.9287 162.28 64.5007 162.228 64.0527 162.228C63.6687 162.228 63.2847 162.28 62.9007 162.384C62.5167 162.488 62.1727 162.648 61.8687 162.864C61.5647 163.08 61.3167 163.352 61.1247 163.68C60.9407 164 60.8487 164.38 60.8487 164.82C60.8487 165.212 60.9207 165.548 61.0647 165.828C61.2167 166.1 61.4127 166.328 61.6527 166.512C61.8927 166.696 62.1647 166.848 62.4687 166.968C62.7727 167.08 63.0847 167.176 63.4047 167.256C63.7167 167.344 64.0247 167.424 64.3287 167.496C64.6327 167.568 64.9047 167.652 65.1447 167.748C65.3847 167.844 65.5767 167.964 65.7207 168.108C65.8727 168.252 65.9487 168.44 65.9487 168.672C65.9487 168.888 65.8927 169.068 65.7807 169.212C65.6687 169.348 65.5287 169.456 65.3607 169.536C65.1927 169.616 65.0127 169.672 64.8207 169.704C64.6287 169.728 64.4487 169.74 64.2807 169.74C64.0327 169.74 63.7927 169.712 63.5607 169.656C63.3287 169.592 63.1247 169.5 62.9487 169.38C62.7807 169.252 62.6447 169.088 62.5407 168.888C62.4367 168.688 62.3847 168.444 62.3847 168.156ZM69.1936 162.432V171H75.6976V169.416H71.0776V167.316H75.2296V165.852H71.0776V164.016H75.6016V162.432H69.1936ZM79.1589 169.416V164.016H80.5029C80.9669 164.016 81.3549 164.084 81.6669 164.22C81.9869 164.348 82.2429 164.536 82.4349 164.784C82.6269 165.032 82.7629 165.332 82.8429 165.684C82.9309 166.028 82.9749 166.416 82.9749 166.848C82.9749 167.32 82.9149 167.72 82.7949 168.048C82.6749 168.376 82.5149 168.644 82.3149 168.852C82.1149 169.052 81.8869 169.196 81.6309 169.284C81.3749 169.372 81.1109 169.416 80.8389 169.416H79.1589ZM77.2749 162.432V171H80.9709C81.6269 171 82.1949 170.892 82.6749 170.676C83.1629 170.452 83.5669 170.148 83.8869 169.764C84.2149 169.38 84.4589 168.924 84.6189 168.396C84.7789 167.868 84.8589 167.292 84.8589 166.668C84.8589 165.956 84.7589 165.336 84.5589 164.808C84.3669 164.28 84.0949 163.84 83.7429 163.488C83.3989 163.136 82.9869 162.872 82.5069 162.696C82.0349 162.52 81.5229 162.432 80.9709 162.432H77.2749ZM91.9933 165.9V163.896H93.7573C93.9253 163.896 94.0853 163.912 94.2373 163.944C94.3973 163.968 94.5373 164.016 94.6573 164.088C94.7773 164.16 94.8733 164.26 94.9453 164.388C95.0173 164.516 95.0533 164.68 95.0533 164.88C95.0533 165.24 94.9453 165.5 94.7293 165.66C94.5133 165.82 94.2373 165.9 93.9013 165.9H91.9933ZM90.1093 162.432V171H94.2613C94.6453 171 95.0173 170.952 95.3773 170.856C95.7453 170.76 96.0693 170.612 96.3493 170.412C96.6373 170.212 96.8653 169.956 97.0333 169.644C97.2013 169.324 97.2853 168.948 97.2853 168.516C97.2853 167.98 97.1533 167.524 96.8893 167.148C96.6333 166.764 96.2413 166.496 95.7133 166.344C96.0973 166.16 96.3853 165.924 96.5773 165.636C96.7773 165.348 96.8773 164.988 96.8773 164.556C96.8773 164.156 96.8093 163.82 96.6733 163.548C96.5453 163.276 96.3613 163.06 96.1213 162.9C95.8813 162.732 95.5933 162.612 95.2573 162.54C94.9213 162.468 94.5493 162.432 94.1413 162.432H90.1093ZM91.9933 169.536V167.184H94.0453C94.4533 167.184 94.7813 167.28 95.0293 167.472C95.2773 167.656 95.4013 167.968 95.4013 168.408C95.4013 168.632 95.3613 168.816 95.2812 168.96C95.2093 169.104 95.1093 169.22 94.9813 169.308C94.8533 169.388 94.7053 169.448 94.5373 169.488C94.3693 169.52 94.1933 169.536 94.0093 169.536H91.9933ZM101.078 167.664V171H102.962V167.712L106.142 162.432H104.042L102.05 165.816L100.046 162.432H97.9345L101.078 167.664Z" fill="#D1D5DB"/>
<g filter="url(#filter3_dd_1441_1800)">
<rect x="12" y="2" width="325" height="136" rx="8" fill="#374151"/>
<path d="M32.444 28.264C32.444 27.48 32.68 26.852 33.152 26.38C33.624 25.908 34.204 25.572 34.892 25.372C35.412 25.228 35.792 25.068 36.032 24.892C36.272 24.708 36.392 24.5 36.392 24.268C36.392 24.14 36.356 24.024 36.284 23.92C36.22 23.808 36.124 23.72 35.996 23.656C35.876 23.584 35.736 23.548 35.576 23.548C35.328 23.548 35.124 23.632 34.964 23.8C34.812 23.96 34.736 24.168 34.736 24.424H32.936C32.936 24.016 33.052 23.644 33.284 23.308C33.516 22.972 33.832 22.708 34.232 22.516C34.632 22.324 35.072 22.228 35.552 22.228C36.048 22.228 36.488 22.312 36.872 22.48C37.264 22.648 37.568 22.88 37.784 23.176C38 23.472 38.108 23.8 38.108 24.16C38.108 24.528 38.004 24.836 37.796 25.084C37.596 25.324 37.324 25.516 36.98 25.66V25.72C37.38 25.808 37.732 25.972 38.036 26.212C38.34 26.452 38.572 26.752 38.732 27.112C38.9 27.464 38.984 27.848 38.984 28.264C38.984 28.888 38.836 29.42 38.54 29.86C38.244 30.3 37.848 30.636 37.352 30.868C36.856 31.092 36.308 31.204 35.708 31.204C35.116 31.204 34.572 31.092 34.076 30.868C33.58 30.636 33.184 30.3 32.888 29.86C32.592 29.42 32.444 28.888 32.444 28.264ZM37.136 28.24C37.136 27.912 37.076 27.628 36.956 27.388C36.836 27.14 36.668 26.952 36.452 26.824C36.236 26.696 35.988 26.632 35.708 26.632C35.436 26.632 35.192 26.696 34.976 26.824C34.768 26.952 34.604 27.14 34.484 27.388C34.364 27.628 34.304 27.912 34.304 28.24C34.304 28.552 34.364 28.824 34.484 29.056C34.604 29.288 34.768 29.468 34.976 29.596C35.192 29.724 35.436 29.788 35.708 29.788C35.988 29.788 36.236 29.724 36.452 29.596C36.668 29.468 36.836 29.288 36.956 29.056C37.076 28.824 37.136 28.552 37.136 28.24ZM40.0897 28.3C40.0897 27.828 40.1977 27.36 40.4137 26.896H42.2137C42.0457 27.352 41.9617 27.784 41.9617 28.192C41.9617 28.496 42.0137 28.768 42.1177 29.008C42.2297 29.248 42.3857 29.44 42.5857 29.584C42.7857 29.72 43.0257 29.788 43.3057 29.788C43.5857 29.788 43.8257 29.72 44.0257 29.584C44.2337 29.448 44.3897 29.26 44.4937 29.02C44.5977 28.78 44.6497 28.508 44.6497 28.204C44.6497 27.828 44.5897 27.492 44.4697 27.196C44.3577 26.9 44.2217 26.648 44.0617 26.44C43.9017 26.232 43.6777 25.972 43.3897 25.66C43.1257 25.372 42.9057 25.1 42.7297 24.844C42.5617 24.58 42.4177 24.252 42.2977 23.86C42.1857 23.46 42.1297 22.984 42.1297 22.432H44.0017C44.0017 22.792 44.0457 23.112 44.1337 23.392C44.2217 23.672 44.3337 23.924 44.4697 24.148C44.6137 24.372 44.7937 24.612 45.0097 24.868C45.3457 25.276 45.6097 25.616 45.8017 25.888C45.9937 26.16 46.1617 26.5 46.3057 26.908C46.4497 27.308 46.5217 27.772 46.5217 28.3C46.5217 28.852 46.3817 29.352 46.1017 29.8C45.8217 30.24 45.4337 30.584 44.9377 30.832C44.4497 31.08 43.8977 31.204 43.2817 31.204C42.6657 31.204 42.1137 31.08 41.6257 30.832C41.1457 30.584 40.7697 30.24 40.4977 29.8C40.2257 29.352 40.0897 28.852 40.0897 28.3ZM50.9199 29.956H48.7239V28.744H49.8879V28.696C49.4799 28.536 49.1119 28.3 48.7839 27.988C48.4559 27.676 48.1959 27.304 48.0039 26.872C47.8119 26.44 47.7159 25.968 47.7159 25.456C47.7159 24.824 47.8279 24.264 48.0519 23.776C48.2839 23.28 48.5999 22.9 48.9999 22.636C49.4079 22.364 49.8679 22.228 50.3799 22.228C50.8199 22.228 51.2199 22.328 51.5799 22.528C51.9399 22.728 52.2119 23.024 52.3959 23.416H52.4559C52.6799 23.032 52.9839 22.74 53.3679 22.54C53.7599 22.332 54.2079 22.228 54.7119 22.228C55.2559 22.228 55.7559 22.364 56.2119 22.636C56.6679 22.9 57.0279 23.264 57.2919 23.728C57.5559 24.192 57.6879 24.704 57.6879 25.264C57.6879 25.824 57.5559 26.336 57.2919 26.8C57.0359 27.264 56.6719 27.632 56.1999 27.904C55.7359 28.168 55.2039 28.3 54.6039 28.3C54.0199 28.3 53.4959 28.164 53.0319 27.892C52.5679 27.62 52.2079 27.252 51.9519 26.788C51.6959 26.324 51.5679 25.816 51.5679 25.264V24.712C51.5679 24.36 51.4839 24.092 51.3159 23.908C51.1479 23.716 50.9399 23.62 50.6919 23.62C50.3479 23.62 50.0759 23.784 49.8759 24.112C49.6839 24.432 49.5879 24.892 49.5879 25.492C49.5879 26.076 49.7199 26.596 49.9839 27.052C50.2479 27.5 50.5999 27.868 51.0399 28.156C51.4799 28.436 51.9559 28.632 52.4679 28.744C53.2999 28.928 53.9479 29.196 54.4119 29.548C54.8839 29.9 55.1279 30.384 55.1439 31H53.0559C53.0479 30.784 52.9519 30.6 52.7679 30.448C52.5919 30.288 52.3399 30.168 52.0119 30.088C51.6919 30 51.3279 29.956 50.9199 29.956ZM55.9719 25.252C55.9719 24.932 55.9119 24.648 55.7919 24.4C55.6719 24.152 55.5079 23.96 55.2999 23.824C55.0919 23.688 54.8519 23.62 54.5799 23.62C54.3239 23.62 54.0959 23.688 53.8959 23.824C53.6959 23.96 53.5399 24.152 53.4279 24.4C53.3159 24.648 53.2599 24.932 53.2599 25.252C53.2599 25.58 53.3119 25.868 53.4159 26.116C53.5279 26.364 53.6839 26.56 53.8839 26.704C54.0839 26.84 54.3159 26.908 54.5799 26.908C54.8519 26.908 55.0919 26.836 55.2999 26.692C55.5159 26.548 55.6799 26.352 55.7919 26.104C55.9119 25.848 55.9719 25.564 55.9719 25.252ZM58.7834 28.3C58.7834 27.828 58.8914 27.36 59.1074 26.896H60.9074C60.7394 27.352 60.6554 27.784 60.6554 28.192C60.6554 28.496 60.7074 28.768 60.8114 29.008C60.9234 29.248 61.0794 29.44 61.2794 29.584C61.4794 29.72 61.7194 29.788 61.9994 29.788C62.2794 29.788 62.5194 29.72 62.7194 29.584C62.9274 29.448 63.0834 29.26 63.1874 29.02C63.2914 28.78 63.3434 28.508 63.3434 28.204C63.3434 27.828 63.2834 27.492 63.1634 27.196C63.0514 26.9 62.9154 26.648 62.7554 26.44C62.5954 26.232 62.3714 25.972 62.0834 25.66C61.8194 25.372 61.5994 25.1 61.4234 24.844C61.2554 24.58 61.1114 24.252 60.9914 23.86C60.8794 23.46 60.8234 22.984 60.8234 22.432H62.6954C62.6954 22.792 62.7394 23.112 62.8274 23.392C62.9154 23.672 63.0274 23.924 63.1634 24.148C63.3074 24.372 63.4874 24.612 63.7034 24.868C64.0394 25.276 64.3034 25.616 64.4954 25.888C64.6874 26.16 64.8554 26.5 64.9994 26.908C65.1434 27.308 65.2154 27.772 65.2154 28.3C65.2154 28.852 65.0754 29.352 64.7954 29.8C64.5154 30.24 64.1274 30.584 63.6314 30.832C63.1434 31.08 62.5914 31.204 61.9754 31.204C61.3594 31.204 60.8074 31.08 60.3194 30.832C59.8394 30.584 59.4634 30.24 59.1914 29.8C58.9194 29.352 58.7834 28.852 58.7834 28.3ZM66.6856 28.168V22.432H68.5576V26.068H68.5816C68.7656 25.796 69.0256 25.584 69.3616 25.432C69.7056 25.272 70.0736 25.192 70.4656 25.192C70.9696 25.192 71.4296 25.316 71.8456 25.564C72.2616 25.812 72.5896 26.164 72.8296 26.62C73.0776 27.068 73.2016 27.584 73.2016 28.168C73.2016 28.744 73.0656 29.264 72.7936 29.728C72.5216 30.192 72.1376 30.556 71.6416 30.82C71.1456 31.076 70.5776 31.204 69.9376 31.204C69.2896 31.204 68.7176 31.076 68.2216 30.82C67.7336 30.556 67.3536 30.192 67.0816 29.728C66.8176 29.264 66.6856 28.744 66.6856 28.168ZM71.3296 28.216C71.3296 27.896 71.2696 27.616 71.1496 27.376C71.0376 27.128 70.8736 26.94 70.6576 26.812C70.4496 26.684 70.2096 26.62 69.9376 26.62C69.6576 26.62 69.4096 26.684 69.1936 26.812C68.9776 26.94 68.8056 27.128 68.6776 27.376C68.5576 27.616 68.4976 27.896 68.4976 28.216C68.4976 28.536 68.5576 28.816 68.6776 29.056C68.8056 29.288 68.9776 29.468 69.1936 29.596C69.4096 29.724 69.6576 29.788 69.9376 29.788C70.2016 29.788 70.4376 29.724 70.6456 29.596C70.8616 29.468 71.0296 29.284 71.1496 29.044C71.2696 28.804 71.3296 28.528 71.3296 28.216ZM77.6128 29.956H75.4168V28.744H76.5808V28.696C76.1728 28.536 75.8048 28.3 75.4768 27.988C75.1488 27.676 74.8888 27.304 74.6968 26.872C74.5048 26.44 74.4088 25.968 74.4088 25.456C74.4088 24.824 74.5208 24.264 74.7448 23.776C74.9768 23.28 75.2928 22.9 75.6928 22.636C76.1008 22.364 76.5608 22.228 77.0728 22.228C77.5128 22.228 77.9128 22.328 78.2728 22.528C78.6328 22.728 78.9048 23.024 79.0888 23.416H79.1488C79.3728 23.032 79.6768 22.74 80.0608 22.54C80.4528 22.332 80.9008 22.228 81.4048 22.228C81.9488 22.228 82.4488 22.364 82.9048 22.636C83.3608 22.9 83.7208 23.264 83.9848 23.728C84.2488 24.192 84.3808 24.704 84.3808 25.264C84.3808 25.824 84.2488 26.336 83.9848 26.8C83.7288 27.264 83.3648 27.632 82.8928 27.904C82.4288 28.168 81.8968 28.3 81.2968 28.3C80.7128 28.3 80.1888 28.164 79.7248 27.892C79.2608 27.62 78.9008 27.252 78.6448 26.788C78.3888 26.324 78.2608 25.816 78.2608 25.264V24.712C78.2608 24.36 78.1768 24.092 78.0088 23.908C77.8408 23.716 77.6328 23.62 77.3848 23.62C77.0408 23.62 76.7688 23.784 76.5688 24.112C76.3768 24.432 76.2808 24.892 76.2808 25.492C76.2808 26.076 76.4128 26.596 76.6768 27.052C76.9408 27.5 77.2928 27.868 77.7328 28.156C78.1728 28.436 78.6488 28.632 79.1608 28.744C79.9928 28.928 80.6408 29.196 81.1048 29.548C81.5768 29.9 81.8208 30.384 81.8368 31H79.7488C79.7408 30.784 79.6448 30.6 79.4608 30.448C79.2848 30.288 79.0328 30.168 78.7048 30.088C78.3848 30 78.0208 29.956 77.6128 29.956ZM82.6648 25.252C82.6648 24.932 82.6048 24.648 82.4848 24.4C82.3648 24.152 82.2008 23.96 81.9928 23.824C81.7848 23.688 81.5448 23.62 81.2728 23.62C81.0168 23.62 80.7888 23.688 80.5888 23.824C80.3888 23.96 80.2328 24.152 80.1208 24.4C80.0088 24.648 79.9528 24.932 79.9528 25.252C79.9528 25.58 80.0048 25.868 80.1088 26.116C80.2208 26.364 80.3768 26.56 80.5768 26.704C80.7768 26.84 81.0088 26.908 81.2728 26.908C81.5448 26.908 81.7848 26.836 81.9928 26.692C82.2088 26.548 82.3728 26.352 82.4848 26.104C82.6048 25.848 82.6648 25.564 82.6648 25.252ZM85.4764 28.3C85.4764 27.828 85.5844 27.36 85.8004 26.896H87.6004C87.4324 27.352 87.3484 27.784 87.3484 28.192C87.3484 28.496 87.4004 28.768 87.5044 29.008C87.6164 29.248 87.7724 29.44 87.9724 29.584C88.1724 29.72 88.4124 29.788 88.6924 29.788C88.9724 29.788 89.2124 29.72 89.4124 29.584C89.6204 29.448 89.7764 29.26 89.8804 29.02C89.9844 28.78 90.0364 28.508 90.0364 28.204C90.0364 27.828 89.9764 27.492 89.8564 27.196C89.7444 26.9 89.6084 26.648 89.4484 26.44C89.2884 26.232 89.0644 25.972 88.7764 25.66C88.5124 25.372 88.2924 25.1 88.1164 24.844C87.9484 24.58 87.8044 24.252 87.6844 23.86C87.5724 23.46 87.5164 22.984 87.5164 22.432H89.3884C89.3884 22.792 89.4324 23.112 89.5204 23.392C89.6084 23.672 89.7204 23.924 89.8564 24.148C90.0004 24.372 90.1804 24.612 90.3964 24.868C90.7324 25.276 90.9964 25.616 91.1884 25.888C91.3804 26.16 91.5484 26.5 91.6924 26.908C91.8364 27.308 91.9084 27.772 91.9084 28.3C91.9084 28.852 91.7684 29.352 91.4884 29.8C91.2084 30.24 90.8204 30.584 90.3244 30.832C89.8364 31.08 89.2844 31.204 88.6684 31.204C88.0524 31.204 87.5004 31.08 87.0124 30.832C86.5324 30.584 86.1564 30.24 85.8844 29.8C85.6124 29.352 85.4764 28.852 85.4764 28.3ZM96.7424 28.168C96.7424 27.624 96.8544 27.14 97.0784 26.716C97.3104 26.292 97.6224 25.952 98.0144 25.696C98.4064 25.432 98.8544 25.26 99.3584 25.18V24.964C99.3584 24.812 99.3264 24.68 99.2624 24.568C99.2064 24.456 99.1264 24.364 99.0224 24.292C98.9264 24.212 98.8024 24.124 98.6504 24.028C98.4824 23.932 98.3424 23.828 98.2304 23.716C98.1184 23.604 98.0264 23.444 97.9544 23.236C97.8904 23.028 97.8584 22.76 97.8584 22.432H99.5864C99.5864 22.624 99.6344 22.792 99.7304 22.936C99.8264 23.072 99.9664 23.2 100.15 23.32C100.358 23.456 100.526 23.58 100.654 23.692C100.782 23.804 100.894 23.952 100.99 24.136C101.094 24.32 101.146 24.54 101.146 24.796V25.276C101.562 25.388 101.934 25.58 102.262 25.852C102.59 26.116 102.846 26.448 103.03 26.848C103.222 27.248 103.318 27.688 103.318 28.168C103.318 28.776 103.174 29.312 102.886 29.776C102.598 30.232 102.202 30.584 101.698 30.832C101.194 31.08 100.634 31.204 100.018 31.204C99.4104 31.204 98.8584 31.08 98.3624 30.832C97.8664 30.584 97.4704 30.228 97.1744 29.764C96.8864 29.3 96.7424 28.768 96.7424 28.168ZM101.458 28.168C101.458 27.84 101.398 27.556 101.278 27.316C101.158 27.076 100.99 26.892 100.774 26.764C100.558 26.636 100.306 26.572 100.018 26.572C99.7464 26.572 99.5024 26.636 99.2864 26.764C99.0784 26.892 98.9144 27.076 98.7944 27.316C98.6744 27.556 98.6144 27.84 98.6144 28.168C98.6144 28.504 98.6744 28.796 98.7944 29.044C98.9144 29.284 99.0784 29.468 99.2864 29.596C99.4944 29.724 99.7384 29.788 100.018 29.788C100.306 29.788 100.558 29.724 100.774 29.596C100.99 29.468 101.158 29.284 101.278 29.044C101.398 28.796 101.458 28.504 101.458 28.168ZM104.423 28.3C104.423 27.828 104.531 27.36 104.747 26.896H106.547C106.379 27.352 106.295 27.784 106.295 28.192C106.295 28.496 106.347 28.768 106.451 29.008C106.563 29.248 106.719 29.44 106.919 29.584C107.119 29.72 107.359 29.788 107.639 29.788C107.919 29.788 108.159 29.72 108.359 29.584C108.567 29.448 108.723 29.26 108.827 29.02C108.931 28.78 108.983 28.508 108.983 28.204C108.983 27.828 108.923 27.492 108.803 27.196C108.691 26.9 108.555 26.648 108.395 26.44C108.235 26.232 108.011 25.972 107.723 25.66C107.459 25.372 107.239 25.1 107.063 24.844C106.895 24.58 106.751 24.252 106.631 23.86C106.519 23.46 106.463 22.984 106.463 22.432H108.335C108.335 22.792 108.379 23.112 108.467 23.392C108.555 23.672 108.667 23.924 108.803 24.148C108.947 24.372 109.127 24.612 109.343 24.868C109.679 25.276 109.943 25.616 110.135 25.888C110.327 26.16 110.495 26.5 110.639 26.908C110.783 27.308 110.855 27.772 110.855 28.3C110.855 28.852 110.715 29.352 110.435 29.8C110.155 30.24 109.767 30.584 109.271 30.832C108.783 31.08 108.231 31.204 107.615 31.204C106.999 31.204 106.447 31.08 105.959 30.832C105.479 30.584 105.103 30.24 104.831 29.8C104.559 29.352 104.423 28.852 104.423 28.3ZM118.973 28.096C118.973 27.576 118.889 27.188 118.721 26.932C118.553 26.676 118.329 26.548 118.049 26.548C117.809 26.548 117.617 26.656 117.473 26.872C117.329 27.08 117.257 27.36 117.257 27.712V29.476H115.625V27.724C115.625 27.356 115.553 27.068 115.409 26.86C115.273 26.652 115.085 26.548 114.845 26.548C114.573 26.548 114.349 26.668 114.173 26.908C113.997 27.148 113.909 27.536 113.909 28.072C113.909 29.12 114.177 30.096 114.713 31H112.913C112.633 30.568 112.417 30.072 112.265 29.512C112.121 28.952 112.049 28.236 112.049 27.364C112.049 25.98 112.377 24.956 113.033 24.292C113.689 23.628 114.557 23.196 115.637 22.996L116.645 22.804C116.813 22.772 116.953 22.728 117.065 22.672C117.177 22.616 117.253 22.536 117.293 22.432H119.153C119.105 22.904 118.933 23.284 118.637 23.572C118.341 23.852 117.869 24.04 117.221 24.136L116.189 24.292C115.453 24.404 114.837 24.584 114.341 24.832C113.853 25.08 113.553 25.456 113.441 25.96H113.477C113.653 25.696 113.877 25.504 114.149 25.384C114.429 25.256 114.697 25.192 114.953 25.192C115.265 25.192 115.557 25.28 115.829 25.456C116.101 25.632 116.309 25.884 116.453 26.212H116.489C116.665 25.876 116.913 25.624 117.233 25.456C117.561 25.28 117.929 25.192 118.337 25.192C118.793 25.192 119.209 25.304 119.585 25.528C119.969 25.752 120.273 26.072 120.497 26.488C120.721 26.904 120.833 27.396 120.833 27.964C120.833 28.612 120.757 29.18 120.605 29.668C120.453 30.148 120.241 30.592 119.969 31H118.169C118.433 30.536 118.633 30.076 118.769 29.62C118.905 29.156 118.973 28.648 118.973 28.096ZM121.933 28.3C121.933 27.828 122.041 27.36 122.257 26.896H124.057C123.889 27.352 123.805 27.784 123.805 28.192C123.805 28.496 123.857 28.768 123.961 29.008C124.073 29.248 124.229 29.44 124.429 29.584C124.629 29.72 124.869 29.788 125.149 29.788C125.429 29.788 125.669 29.72 125.869 29.584C126.077 29.448 126.233 29.26 126.337 29.02C126.441 28.78 126.493 28.508 126.493 28.204C126.493 27.828 126.433 27.492 126.313 27.196C126.201 26.9 126.065 26.648 125.905 26.44C125.745 26.232 125.521 25.972 125.233 25.66C124.969 25.372 124.749 25.1 124.573 24.844C124.405 24.58 124.261 24.252 124.141 23.86C124.029 23.46 123.973 22.984 123.973 22.432H125.845C125.845 22.792 125.889 23.112 125.977 23.392C126.065 23.672 126.177 23.924 126.313 24.148C126.457 24.372 126.637 24.612 126.853 24.868C127.189 25.276 127.453 25.616 127.645 25.888C127.837 26.16 128.005 26.5 128.149 26.908C128.293 27.308 128.365 27.772 128.365 28.3C128.365 28.852 128.225 29.352 127.945 29.8C127.665 30.24 127.277 30.584 126.781 30.832C126.293 31.08 125.741 31.204 125.125 31.204C124.509 31.204 123.957 31.08 123.469 30.832C122.989 30.584 122.613 30.24 122.341 29.8C122.069 29.352 121.933 28.852 121.933 28.3ZM138.092 27.256V25.276C138.092 24.684 138 24.252 137.816 23.98C137.64 23.708 137.392 23.572 137.072 23.572C136.768 23.572 136.524 23.7 136.34 23.956C136.156 24.204 136.064 24.592 136.064 25.12V27.868C136.064 28.58 135.928 29.188 135.656 29.692C135.384 30.188 135.012 30.564 134.54 30.82C134.068 31.076 133.536 31.204 132.944 31.204C132.352 31.204 131.812 31.076 131.324 30.82C130.844 30.564 130.46 30.188 130.172 29.692C129.892 29.188 129.752 28.58 129.752 27.868V25.564C129.752 24.868 129.884 24.268 130.148 23.764C130.42 23.26 130.784 22.88 131.24 22.624C131.704 22.36 132.216 22.228 132.776 22.228C133.288 22.228 133.752 22.34 134.168 22.564C134.584 22.788 134.896 23.1 135.104 23.5H135.152C135.264 23.236 135.428 23.008 135.644 22.816C135.868 22.624 136.12 22.48 136.4 22.384C136.68 22.28 136.964 22.228 137.252 22.228C137.772 22.228 138.236 22.352 138.644 22.6C139.06 22.848 139.384 23.208 139.616 23.68C139.856 24.144 139.976 24.704 139.976 25.36V27.208C139.976 27.968 139.896 28.692 139.736 29.38C139.576 30.06 139.372 30.6 139.124 31H137.264C137.528 30.552 137.732 29.988 137.876 29.308C138.02 28.628 138.092 27.944 138.092 27.256ZM134.24 27.844V25.6C134.24 24.96 134.136 24.476 133.928 24.148C133.72 23.812 133.392 23.644 132.944 23.644C132.504 23.644 132.172 23.812 131.948 24.148C131.732 24.476 131.624 24.956 131.624 25.588V27.844C131.624 28.476 131.732 28.96 131.948 29.296C132.172 29.624 132.504 29.788 132.944 29.788C133.384 29.788 133.708 29.624 133.916 29.296C134.132 28.968 134.24 28.484 134.24 27.844ZM146.012 27.196V25.504C146.012 24.928 145.9 24.476 145.676 24.148C145.46 23.812 145.14 23.644 144.716 23.644C144.284 23.644 143.956 23.812 143.732 24.148C143.516 24.484 143.408 24.936 143.408 25.504V27.196C143.408 27.892 143.468 28.592 143.588 29.296C143.716 29.992 143.872 30.56 144.056 31H142.244C142.036 30.584 141.864 30.016 141.728 29.296C141.6 28.576 141.536 27.852 141.536 27.124V25.456C141.536 24.784 141.676 24.204 141.956 23.716C142.236 23.228 142.616 22.86 143.096 22.612C143.576 22.356 144.116 22.228 144.716 22.228C145.308 22.228 145.844 22.356 146.324 22.612C146.812 22.868 147.196 23.24 147.476 23.728C147.756 24.216 147.896 24.796 147.896 25.468V27.124C147.896 27.852 147.828 28.576 147.692 29.296C147.556 30.016 147.384 30.584 147.176 31H145.364C145.556 30.568 145.712 30 145.832 29.296C145.952 28.592 146.012 27.892 146.012 27.196ZM157.793 27.256V25.276C157.793 24.684 157.701 24.252 157.517 23.98C157.341 23.708 157.093 23.572 156.773 23.572C156.469 23.572 156.225 23.7 156.041 23.956C155.857 24.204 155.765 24.592 155.765 25.12V27.868C155.765 28.58 155.629 29.188 155.357 29.692C155.085 30.188 154.713 30.564 154.241 30.82C153.769 31.076 153.237 31.204 152.645 31.204C152.053 31.204 151.513 31.076 151.025 30.82C150.545 30.564 150.161 30.188 149.873 29.692C149.593 29.188 149.453 28.58 149.453 27.868V25.564C149.453 24.868 149.585 24.268 149.849 23.764C150.121 23.26 150.485 22.88 150.941 22.624C151.405 22.36 151.917 22.228 152.477 22.228C152.989 22.228 153.453 22.34 153.869 22.564C154.285 22.788 154.597 23.1 154.805 23.5H154.853C154.965 23.236 155.129 23.008 155.345 22.816C155.569 22.624 155.821 22.48 156.101 22.384C156.381 22.28 156.665 22.228 156.953 22.228C157.473 22.228 157.937 22.352 158.345 22.6C158.761 22.848 159.085 23.208 159.317 23.68C159.557 24.144 159.677 24.704 159.677 25.36V27.208C159.677 27.968 159.597 28.692 159.437 29.38C159.277 30.06 159.073 30.6 158.825 31H156.965C157.229 30.552 157.433 29.988 157.577 29.308C157.721 28.628 157.793 27.944 157.793 27.256ZM153.941 27.844V25.6C153.941 24.96 153.837 24.476 153.629 24.148C153.421 23.812 153.093 23.644 152.645 23.644C152.205 23.644 151.873 23.812 151.649 24.148C151.433 24.476 151.325 24.956 151.325 25.588V27.844C151.325 28.476 151.433 28.96 151.649 29.296C151.873 29.624 152.205 29.788 152.645 29.788C153.085 29.788 153.409 29.624 153.617 29.296C153.833 28.968 153.941 28.484 153.941 27.844Z" fill="white"/>
<g filter="url(#filter4_dd_1441_1800)">
<path d="M32 50C32 45.5817 35.5817 42 40 42H309C313.418 42 317 45.5817 317 50V82H32V50Z" fill="white"/>
<path d="M47.7266 68H49.4375V56.7266H47.7109L44.7422 58.8359V60.4922L47.6875 58.4609H47.7266V68ZM52.2675 68H59.9784V66.5234H54.6112V66.4531L57.1737 63.9375C59.1972 61.9375 59.7987 61.0234 59.7987 59.7344V59.7188C59.7987 57.8984 58.2519 56.5391 56.0878 56.5391C53.8847 56.5391 52.1737 58 52.1737 60.0156V60.0625H53.83V60.0156C53.8456 58.875 54.7909 57.9844 56.1112 57.9844C57.2519 57.9844 58.0644 58.75 58.0722 59.8203V59.8359C58.0722 60.7109 57.7362 61.3047 56.2362 62.8047L52.2675 66.7969V68ZM65.5506 68.1875C67.9412 68.1875 69.6366 66.8125 69.6366 64.8828V64.8672C69.6366 63.2891 68.5272 62.2891 66.8709 62.1406V62.1016C68.2459 61.8125 69.2459 60.875 69.2459 59.4766V59.4609C69.2459 57.7266 67.7772 56.5391 65.535 56.5391C63.3319 56.5391 61.8319 57.7812 61.66 59.6641L61.6522 59.7422H63.2928L63.3006 59.6719C63.41 58.625 64.285 57.9688 65.535 57.9688C66.8084 57.9688 67.5428 58.6016 67.5428 59.6875V59.7031C67.5428 60.75 66.6678 61.5078 65.3787 61.5078H64.0584V62.8672H65.4256C66.9334 62.8672 67.8553 63.5781 67.8553 64.8516V64.8672C67.8553 65.9609 66.9256 66.7266 65.5506 66.7266C64.1522 66.7266 63.2069 66.0234 63.0975 65.0234L63.0897 64.9375H61.41L61.4178 65.0391C61.5741 66.875 63.1444 68.1875 65.5506 68.1875ZM76.74 68H78.4197V65.7578H79.9744V64.2891H78.4197V56.7266H75.8884L71.0994 64.2344V65.7578H76.74V68ZM72.7244 64.3125V64.2656L76.7087 58.1094H76.7556V64.3125H72.7244ZM87.5641 68H89.275V56.7266H87.5484L84.5797 58.8359V60.4922L87.525 58.4609H87.5641V68ZM92.105 68H99.8159V66.5234H94.4487V66.4531L97.0112 63.9375C99.0347 61.9375 99.6362 61.0234 99.6362 59.7344V59.7188C99.6362 57.8984 98.0894 56.5391 95.9253 56.5391C93.7222 56.5391 92.0112 58 92.0112 60.0156V60.0625H93.6675V60.0156C93.6831 58.875 94.6284 57.9844 95.9487 57.9844C97.0894 57.9844 97.9019 58.75 97.9097 59.8203V59.8359C97.9097 60.7109 97.5737 61.3047 96.0737 62.8047L92.105 66.7969V68ZM105.388 68.1875C107.779 68.1875 109.474 66.8125 109.474 64.8828V64.8672C109.474 63.2891 108.365 62.2891 106.708 62.1406V62.1016C108.083 61.8125 109.083 60.875 109.083 59.4766V59.4609C109.083 57.7266 107.615 56.5391 105.373 56.5391C103.169 56.5391 101.669 57.7812 101.498 59.6641L101.49 59.7422H103.13L103.138 59.6719C103.248 58.625 104.123 57.9688 105.373 57.9688C106.646 57.9688 107.38 58.6016 107.38 59.6875V59.7031C107.38 60.75 106.505 61.5078 105.216 61.5078H103.896V62.8672H105.263C106.771 62.8672 107.693 63.5781 107.693 64.8516V64.8672C107.693 65.9609 106.763 66.7266 105.388 66.7266C103.99 66.7266 103.044 66.0234 102.935 65.0234L102.927 64.9375H101.248L101.255 65.0391C101.412 66.875 102.982 68.1875 105.388 68.1875ZM116.577 68H118.257V65.7578H119.812V64.2891H118.257V56.7266H115.726L110.937 64.2344V65.7578H116.577V68ZM112.562 64.3125V64.2656L116.546 58.1094H116.593V64.3125H112.562ZM127.402 68H129.113V56.7266H127.386L124.417 58.8359V60.4922L127.363 58.4609H127.402V68ZM131.942 68H139.653V66.5234H134.286V66.4531L136.849 63.9375C138.872 61.9375 139.474 61.0234 139.474 59.7344V59.7188C139.474 57.8984 137.927 56.5391 135.763 56.5391C133.56 56.5391 131.849 58 131.849 60.0156V60.0625H133.505V60.0156C133.521 58.875 134.466 57.9844 135.786 57.9844C136.927 57.9844 137.739 58.75 137.747 59.8203V59.8359C137.747 60.7109 137.411 61.3047 135.911 62.8047L131.942 66.7969V68ZM145.226 68.1875C147.616 68.1875 149.312 66.8125 149.312 64.8828V64.8672C149.312 63.2891 148.202 62.2891 146.546 62.1406V62.1016C147.921 61.8125 148.921 60.875 148.921 59.4766V59.4609C148.921 57.7266 147.452 56.5391 145.21 56.5391C143.007 56.5391 141.507 57.7812 141.335 59.6641L141.327 59.7422H142.968L142.976 59.6719C143.085 58.625 143.96 57.9688 145.21 57.9688C146.483 57.9688 147.218 58.6016 147.218 59.6875V59.7031C147.218 60.75 146.343 61.5078 145.054 61.5078H143.733V62.8672H145.101C146.608 62.8672 147.53 63.5781 147.53 64.8516V64.8672C147.53 65.9609 146.601 66.7266 145.226 66.7266C143.827 66.7266 142.882 66.0234 142.772 65.0234L142.765 64.9375H141.085L141.093 65.0391C141.249 66.875 142.819 68.1875 145.226 68.1875ZM156.415 68H158.095V65.7578H159.649V64.2891H158.095V56.7266H155.563L150.774 64.2344V65.7578H156.415V68ZM152.399 64.3125V64.2656L156.384 58.1094H156.431V64.3125H152.399ZM167.239 68H168.95V56.7266H167.223L164.255 58.8359V60.4922L167.2 58.4609H167.239V68ZM171.78 68H179.491V66.5234H174.124V66.4531L176.686 63.9375C178.71 61.9375 179.311 61.0234 179.311 59.7344V59.7188C179.311 57.8984 177.764 56.5391 175.6 56.5391C173.397 56.5391 171.686 58 171.686 60.0156V60.0625H173.342V60.0156C173.358 58.875 174.303 57.9844 175.624 57.9844C176.764 57.9844 177.577 58.75 177.585 59.8203V59.8359C177.585 60.7109 177.249 61.3047 175.749 62.8047L171.78 66.7969V68ZM185.063 68.1875C187.454 68.1875 189.149 66.8125 189.149 64.8828V64.8672C189.149 63.2891 188.04 62.2891 186.383 62.1406V62.1016C187.758 61.8125 188.758 60.875 188.758 59.4766V59.4609C188.758 57.7266 187.29 56.5391 185.048 56.5391C182.844 56.5391 181.344 57.7812 181.173 59.6641L181.165 59.7422H182.805L182.813 59.6719C182.923 58.625 183.798 57.9688 185.048 57.9688C186.321 57.9688 187.055 58.6016 187.055 59.6875V59.7031C187.055 60.75 186.18 61.5078 184.891 61.5078H183.571V62.8672H184.938C186.446 62.8672 187.368 63.5781 187.368 64.8516V64.8672C187.368 65.9609 186.438 66.7266 185.063 66.7266C183.665 66.7266 182.719 66.0234 182.61 65.0234L182.602 64.9375H180.923L180.93 65.0391C181.087 66.875 182.657 68.1875 185.063 68.1875ZM196.253 68H197.932V65.7578H199.487V64.2891H197.932V56.7266H195.401L190.612 64.2344V65.7578H196.253V68ZM192.237 64.3125V64.2656L196.221 58.1094H196.268V64.3125H192.237Z" fill="#8792A2"/>
<path d="M40 42.5H309C313.142 42.5 316.5 45.8579 316.5 50V81.5H32.5V50C32.5 45.8579 35.8579 42.5 40 42.5Z" stroke="#3C4257" stroke-opacity="0.12"/>
</g>
<g filter="url(#filter5_dd_1441_1800)">
<path d="M32 82H174.499V122H40C35.5817 122 32 118.418 32 114V82Z" fill="white"/>
<path d="M45.0391 108H46.6328V99.6797H46.6875L50.0859 108H51.3828L54.7812 99.6797H54.8359V108H56.4297V96.7266H54.4141L50.7578 105.727H50.7109L47.0625 96.7266H45.0391V108ZM58.5878 108H60.1816V99.6797H60.2362L63.6347 108H64.9316L68.33 99.6797H68.3847V108H69.9784V96.7266H67.9628L64.3066 105.727H64.2597L60.6112 96.7266H58.5878V108ZM79.0369 96.7266H77.4822L74.4275 110.734H75.99L79.0369 96.7266ZM86.6188 108H88.3688V103.383L92.3453 96.7266H90.4L87.525 101.703H87.4703L84.5953 96.7266H82.65L86.6188 103.383V108ZM96.8081 108H98.5581V103.383L102.535 96.7266H100.589L97.7144 101.703H97.6597L94.7847 96.7266H92.8394L96.8081 103.383V108Z" fill="#8792A2"/>
<path d="M32.5 82.5H173.999V121.5H40C35.8579 121.5 32.5 118.142 32.5 114V82.5Z" stroke="#3C4257" stroke-opacity="0.12"/>
<path d="M174.5 82H316.999V114C316.999 118.418 313.417 122 308.999 122H174.5V82Z" fill="white"/>
<path d="M192.359 108.188C194.851 108.188 196.718 106.68 197.07 104.438L197.078 104.359H195.343L195.32 104.43C194.898 105.859 193.859 106.641 192.359 106.641C190.273 106.641 188.921 104.969 188.921 102.359V102.352C188.921 99.7422 190.265 98.0859 192.359 98.0859C193.875 98.0859 194.921 98.8906 195.296 100.211L195.343 100.367H197.078L197.062 100.297C196.71 98.0703 194.843 96.5391 192.359 96.5391C189.164 96.5391 187.132 98.7734 187.132 102.352V102.359C187.132 105.938 189.164 108.188 192.359 108.188ZM201.861 108H203.79L207.806 96.7266H205.923L202.845 106.055H202.806L199.728 96.7266H197.845L201.861 108ZM213.894 108.188C216.386 108.188 218.253 106.68 218.605 104.438L218.613 104.359H216.878L216.855 104.43C216.433 105.859 215.394 106.641 213.894 106.641C211.808 106.641 210.456 104.969 210.456 102.359V102.352C210.456 99.7422 211.8 98.0859 213.894 98.0859C215.41 98.0859 216.456 98.8906 216.831 100.211L216.878 100.367H218.613L218.597 100.297C218.245 98.0703 216.378 96.5391 213.894 96.5391C210.699 96.5391 208.667 98.7734 208.667 102.352V102.359C208.667 105.938 210.699 108.188 213.894 108.188Z" fill="#8792A2"/>
<path d="M175 82.5H316.499V114C316.499 118.142 313.141 121.5 308.999 121.5H175V82.5Z" stroke="#3C4257" stroke-opacity="0.12"/>
<g clip-path="url(#clip1_1441_1800)">
<path opacity="0.2" d="M299.009 94.5674H284.55C283.874 94.5674 283.081 95.3462 283.081 96.0368V107.057C283.081 107.748 283.874 108.527 284.55 108.527H302.917C303.593 108.527 304.387 107.748 304.387 107.057V101.525C303.768 102.082 303.003 102.451 302.183 102.59V102.649C302.183 103.134 301.918 103.384 301.448 103.384H285.285C284.814 103.384 284.55 103.134 284.55 102.649V101.914C284.55 101.429 284.814 101.18 285.285 101.18H298.164C297.74 100.71 297.422 100.154 297.233 99.5494C297.044 98.9453 296.987 98.3074 297.068 97.6795C297.148 97.0515 297.363 96.4483 297.698 95.9112C298.033 95.374 298.48 94.9156 299.009 94.5674V94.5674Z" fill="#697386"/>
<path d="M297.29 96.7715H283.081V98.9756H297.099C296.975 98.2365 297.041 97.4783 297.29 96.7715Z" fill="#697386"/>
</g>
<path d="M301.893 103.286C300.532 103.286 299.227 102.744 298.265 101.779C297.303 100.815 296.762 99.5068 296.762 98.1429C296.762 96.7789 297.303 95.4708 298.265 94.5063C299.227 93.5418 300.532 93 301.893 93C303.254 93 304.559 93.5418 305.521 94.5063C306.483 95.4708 307.024 96.7789 307.024 98.1429C307.024 99.5068 306.483 100.815 305.521 101.779C304.559 102.744 303.254 103.286 301.893 103.286ZM299.856 96.0122H299.276L297.862 96.7322V97.4669L298.983 96.8792V100.273H299.863V96.0122H299.856ZM301.541 96.6C301.959 96.6 302.252 96.8351 302.252 97.1731C302.252 97.5404 301.908 97.7976 301.409 97.7976H301.189V98.422H301.453C301.981 98.422 302.34 98.6865 302.34 99.0686C302.34 99.4359 301.988 99.6857 301.49 99.6857C301.124 99.6857 300.757 99.5682 300.376 99.3404V100.075C300.786 100.251 301.197 100.347 301.6 100.347C302.56 100.347 303.22 99.8547 303.22 99.142C303.22 98.6424 302.912 98.2384 302.399 98.0767C302.839 97.9298 303.124 97.5404 303.124 97.0996C303.124 96.409 302.516 95.9388 301.637 95.9388C301.24 95.9432 300.849 96.0282 300.486 96.1886V96.9086C300.838 96.7102 301.197 96.6 301.541 96.6ZM304.708 98.2016C305.243 98.2016 305.617 98.5176 305.617 98.929C305.617 99.3624 305.243 99.6637 304.708 99.6637C304.385 99.6637 304.048 99.5608 303.704 99.3478V100.104C304.063 100.266 304.429 100.347 304.788 100.347C304.979 100.347 305.155 100.318 305.323 100.273C305.704 99.649 305.924 98.929 305.924 98.1576L305.91 97.849C305.637 97.6873 305.325 97.6058 305.008 97.6139C304.876 97.6139 304.737 97.6212 304.59 97.6433V96.6882H305.646C305.554 96.453 305.441 96.2267 305.309 96.0122H303.828V98.3265C304.121 98.2531 304.414 98.2016 304.708 98.2016Z" fill="#697386"/>
</g>
</g>
<defs>
<filter id="filter0_d_1441_1800" x="216.396" y="138" width="86.6667" height="72" filterUnits="userSpaceOnUse" color-interpolation-filters="sRGB">
<feFlood flood-opacity="0" result="BackgroundImageFix"/>
<feColorMatrix in="SourceAlpha" type="matrix" values="0 0 0 0 0 0 0 0 0 0 0 0 0 0 0 0 0 0 127 0" result="hardAlpha"/>
<feOffset/>
<feGaussianBlur stdDeviation="10"/>
<feComposite in2="hardAlpha" operator="out"/>
<feColorMatrix type="matrix" values="0 0 0 0 0 0 0 0 0 0 0 0 0 0 0 0 0 0 0.07 0"/>
<feBlend mode="normal" in2="BackgroundImageFix" result="effect1_dropShadow_1441_1800"/>
<feBlend mode="normal" in="SourceGraphic" in2="effect1_dropShadow_1441_1800" result="shape"/>
</filter>
<filter id="filter1_d_1441_1800" x="164" y="138" width="86.6667" height="72" filterUnits="userSpaceOnUse" color-interpolation-filters="sRGB">
<feFlood flood-opacity="0" result="BackgroundImageFix"/>
<feColorMatrix in="SourceAlpha" type="matrix" values="0 0 0 0 0 0 0 0 0 0 0 0 0 0 0 0 0 0 127 0" result="hardAlpha"/>
<feOffset/>
<feGaussianBlur stdDeviation="10"/>
<feComposite in2="hardAlpha" operator="out"/>
<feColorMatrix type="matrix" values="0 0 0 0 0 0 0 0 0 0 0 0 0 0 0 0 0 0 0.07 0"/>
<feBlend mode="normal" in2="BackgroundImageFix" result="effect1_dropShadow_1441_1800"/>
<feBlend mode="normal" in="SourceGraphic" in2="effect1_dropShadow_1441_1800" result="shape"/>
</filter>
<filter id="filter2_d_1441_1800" x="268.793" y="138" width="86.6667" height="72" filterUnits="userSpaceOnUse" color-interpolation-filters="sRGB">
<feFlood flood-opacity="0" result="BackgroundImageFix"/>
<feColorMatrix in="SourceAlpha" type="matrix" values="0 0 0 0 0 0 0 0 0 0 0 0 0 0 0 0 0 0 127 0" result="hardAlpha"/>
<feOffset/>
<feGaussianBlur stdDeviation="10"/>
<feComposite in2="hardAlpha" operator="out"/>
<feColorMatrix type="matrix" values="0 0 0 0 0 0 0 0 0 0 0 0 0 0 0 0 0 0 0.07 0"/>
<feBlend mode="normal" in2="BackgroundImageFix" result="effect1_dropShadow_1441_1800"/>
<feBlend mode="normal" in="SourceGraphic" in2="effect1_dropShadow_1441_1800" result="shape"/>
</filter>
<filter id="filter3_dd_1441_1800" x="0" y="0" width="349" height="160" filterUnits="userSpaceOnUse" color-interpolation-filters="sRGB">
<feFlood flood-opacity="0" result="BackgroundImageFix"/>
<feColorMatrix in="SourceAlpha" type="matrix" values="0 0 0 0 0 0 0 0 0 0 0 0 0 0 0 0 0 0 127 0" result="hardAlpha"/>
<feMorphology radius="2" operator="erode" in="SourceAlpha" result="effect1_dropShadow_1441_1800"/>
<feOffset dy="4"/>
<feGaussianBlur stdDeviation="3"/>
<feColorMatrix type="matrix" values="0 0 0 0 0 0 0 0 0 0 0 0 0 0 0 0 0 0 0.05 0"/>
<feBlend mode="normal" in2="BackgroundImageFix" result="effect1_dropShadow_1441_1800"/>
<feColorMatrix in="SourceAlpha" type="matrix" values="0 0 0 0 0 0 0 0 0 0 0 0 0 0 0 0 0 0 127 0" result="hardAlpha"/>
<feMorphology radius="3" operator="erode" in="SourceAlpha" result="effect2_dropShadow_1441_1800"/>
<feOffset dy="10"/>
<feGaussianBlur stdDeviation="7.5"/>
<feColorMatrix type="matrix" values="0 0 0 0 0 0 0 0 0 0 0 0 0 0 0 0 0 0 0.1 0"/>
<feBlend mode="normal" in2="effect1_dropShadow_1441_1800" result="effect2_dropShadow_1441_1800"/>
<feBlend mode="normal" in="SourceGraphic" in2="effect2_dropShadow_1441_1800" result="shape"/>
</filter>
<filter id="filter4_dd_1441_1800" x="27" y="39" width="295" height="50" filterUnits="userSpaceOnUse" color-interpolation-filters="sRGB">
<feFlood flood-opacity="0" result="BackgroundImageFix"/>
<feColorMatrix in="SourceAlpha" type="matrix" values="0 0 0 0 0 0 0 0 0 0 0 0 0 0 0 0 0 0 127 0" result="hardAlpha"/>
<feOffset dy="1"/>
<feGaussianBlur stdDeviation="0.5"/>
<feColorMatrix type="matrix" values="0 0 0 0 0 0 0 0 0 0 0 0 0 0 0 0 0 0 0.04 0"/>
<feBlend mode="normal" in2="BackgroundImageFix" result="effect1_dropShadow_1441_1800"/>
<feColorMatrix in="SourceAlpha" type="matrix" values="0 0 0 0 0 0 0 0 0 0 0 0 0 0 0 0 0 0 127 0" result="hardAlpha"/>
<feOffset dy="2"/>
<feGaussianBlur stdDeviation="2.5"/>
<feColorMatrix type="matrix" values="0 0 0 0 0 0 0 0 0 0 0 0 0 0 0 0 0 0 0.08 0"/>
<feBlend mode="normal" in2="effect1_dropShadow_1441_1800" result="effect2_dropShadow_1441_1800"/>
<feBlend mode="normal" in="SourceGraphic" in2="effect2_dropShadow_1441_1800" result="shape"/>
</filter>
<filter id="filter5_dd_1441_1800" x="27" y="79" width="295" height="50" filterUnits="userSpaceOnUse" color-interpolation-filters="sRGB">
<feFlood flood-opacity="0" result="BackgroundImageFix"/>
<feColorMatrix in="SourceAlpha" type="matrix" values="0 0 0 0 0 0 0 0 0 0 0 0 0 0 0 0 0 0 127 0" result="hardAlpha"/>
<feOffset dy="1"/>
<feGaussianBlur stdDeviation="0.5"/>
<feColorMatrix type="matrix" values="0 0 0 0 0 0 0 0 0 0 0 0 0 0 0 0 0 0 0.04 0"/>
<feBlend mode="normal" in2="BackgroundImageFix" result="effect1_dropShadow_1441_1800"/>
<feColorMatrix in="SourceAlpha" type="matrix" values="0 0 0 0 0 0 0 0 0 0 0 0 0 0 0 0 0 0 127 0" result="hardAlpha"/>
<feOffset dy="2"/>
<feGaussianBlur stdDeviation="2.5"/>
<feColorMatrix type="matrix" values="0 0 0 0 0 0 0 0 0 0 0 0 0 0 0 0 0 0 0.08 0"/>
<feBlend mode="normal" in2="effect1_dropShadow_1441_1800" result="effect2_dropShadow_1441_1800"/>
<feBlend mode="normal" in="SourceGraphic" in2="effect2_dropShadow_1441_1800" result="shape"/>
</filter>
<clipPath id="clip0_1441_1800">
<rect width="82.5882" height="12" fill="white" transform="translate(8 178)"/>
</clipPath>
<clipPath id="clip1_1441_1800">
<rect width="23.5102" height="15.4286" fill="white" transform="translate(283.081 94.5674)"/>
</clipPath>
</defs>
</svg>
