<svg width="563" height="287" viewBox="0 0 563 287" fill="none" xmlns="http://www.w3.org/2000/svg">
<g filter="url(#filter0_d_1532_1800)">
<rect x="419.819" y="228.323" width="55.6875" height="37.3542" rx="6.67708" fill="white" stroke="#D9D9D9" stroke-width="2.64583"/>
<path fill-rule="evenodd" clip-rule="evenodd" d="M455.456 258.343C461.737 258.343 466.829 253.192 466.829 246.838C466.829 240.484 461.737 235.333 455.456 235.333C452.641 235.333 450.065 236.368 448.079 238.082C446.093 236.368 443.517 235.333 440.702 235.333C434.421 235.333 429.329 240.484 429.329 246.838C429.329 253.192 434.421 258.343 440.702 258.343C443.517 258.343 446.093 257.309 448.079 255.595C450.065 257.309 452.641 258.343 455.456 258.343Z" fill="#ED0006"/>
<path fill-rule="evenodd" clip-rule="evenodd" d="M448.079 255.595C450.524 253.485 452.075 250.345 452.075 246.838C452.075 243.332 450.524 240.192 448.079 238.082C450.065 236.368 452.641 235.333 455.456 235.333C461.737 235.333 466.829 240.484 466.829 246.838C466.829 253.192 461.737 258.343 455.456 258.343C452.641 258.343 450.065 257.309 448.079 255.595Z" fill="#F9A000"/>
<path fill-rule="evenodd" clip-rule="evenodd" d="M448.079 255.595C450.524 253.485 452.075 250.345 452.075 246.838C452.075 243.332 450.524 240.192 448.079 238.082C445.634 240.192 444.083 243.332 444.083 246.838C444.083 250.345 445.634 253.485 448.079 255.595Z" fill="#FF5E00"/>
</g>
<g filter="url(#filter1_d_1532_1800)">
<rect x="354.323" y="228.323" width="55.6875" height="37.3542" rx="6.67708" fill="white" stroke="#D9D9D9" stroke-width="2.64583"/>
<path fill-rule="evenodd" clip-rule="evenodd" d="M370.709 254.097H367.175L364.525 243.987C364.399 243.522 364.132 243.111 363.739 242.918C362.759 242.431 361.679 242.043 360.5 241.848V241.458H366.193C366.978 241.458 367.568 242.043 367.666 242.722L369.041 250.015L372.573 241.458H376.009L370.709 254.097ZM377.973 254.097H374.635L377.384 241.458H380.721L377.973 254.097ZM385.039 244.96C385.137 244.279 385.726 243.89 386.414 243.89C387.494 243.792 388.671 243.987 389.653 244.473L390.242 241.751C389.26 241.362 388.18 241.167 387.2 241.167C383.96 241.167 381.603 242.917 381.603 245.347C381.603 247.196 383.273 248.166 384.451 248.751C385.726 249.334 386.217 249.723 386.119 250.306C386.119 251.18 385.137 251.57 384.157 251.57C382.978 251.57 381.8 251.278 380.721 250.791L380.132 253.514C381.31 253.999 382.585 254.195 383.764 254.195C387.396 254.291 389.653 252.542 389.653 249.917C389.653 246.611 385.039 246.417 385.039 244.96ZM401.333 254.097L398.683 241.458H395.837C395.248 241.458 394.658 241.848 394.462 242.431L389.555 254.097H392.991L393.676 252.251H397.898L398.29 254.097H401.333ZM396.328 244.862L397.308 249.625H394.56L396.328 244.862Z" fill="#172B85"/>
</g>
<g filter="url(#filter2_d_1532_1800)">
<rect x="485.314" y="228.323" width="55.6875" height="37.3542" rx="6.67708" fill="#1F72CD" stroke="#D9D9D9" stroke-width="2.64583"/>
<path fill-rule="evenodd" clip-rule="evenodd" d="M494.449 241.167L488.991 253.245H495.525L496.335 251.319H498.187L498.997 253.245H506.188V251.775L506.829 253.245H510.549L511.19 251.744V253.245H526.147L527.966 251.369L529.669 253.245L537.351 253.26L531.876 247.239L537.351 241.167H529.788L528.018 243.008L526.368 241.167H510.097L508.7 244.284L507.27 241.167H500.75V242.587L500.024 241.167H494.449ZM516.784 242.882H525.373L528 245.719L530.712 242.882H533.339L529.348 247.238L533.339 251.543H530.593L527.966 248.673L525.24 251.543H516.784V242.882ZM518.905 246.258V244.676V244.675H524.265L526.603 247.205L524.161 249.749H518.905V248.022H523.591V246.258H518.905ZM495.713 242.882H498.898L502.518 251.072V242.882H506.007L508.803 248.754L511.38 242.882H514.852V251.548H512.739L512.722 244.757L509.643 251.548H507.753L504.656 244.757V251.548H500.311L499.487 249.606H495.036L494.214 251.547H491.886L495.713 242.882ZM495.796 247.809L497.263 244.348L498.727 247.809H495.796Z" fill="white"/>
</g>
<g clip-path="url(#clip0_1532_1800)">
<path d="M30.7162 256.893C30.7162 257.491 30.5654 257.66 30.3854 257.808C30.109 257.998 29.7733 258.094 29.4324 258.081H16.1923V253.429H29.4278C29.7682 253.416 30.1034 253.512 30.3807 253.699C30.5614 253.848 30.7116 254.017 30.7116 254.615L30.7162 256.893ZM33.2455 251.123C32.2894 250.378 31.0856 249.981 29.8493 250.001H12V266.999H16.1923V261.508H29.8493C31.086 261.529 32.29 261.13 33.2449 260.383C33.7847 259.926 34.2133 259.363 34.5011 258.733C34.7888 258.103 34.9288 257.421 34.9112 256.734V254.776C34.9287 254.089 34.7888 253.406 34.5012 252.775C34.2136 252.145 33.7851 251.581 33.2455 251.123Z" fill="white"/>
<path d="M110.719 253.428V256.787H127.888V260.213H110.719V263.57H128.998V266.996H106.523V250.001H128.998V253.428H110.719Z" fill="white"/>
<path d="M101.18 263.573H86.4229L91.7621 258.501L89.0356 255.911L80.0878 264.409L82.8156 267H104.79L101.18 263.573Z" fill="white"/>
<path d="M42.4779 260.147L46.6319 254.468L50.7858 260.147H42.4779ZM82.1611 250.851L84.8744 253.429H98.0258L92.6859 258.501L95.4124 261.092L104.36 252.593L101.633 250.003H83.0565H77.1866L69.3035 257.488L63.826 250H58.7264L66.2945 260.347L60.2379 266.1L48.4623 250.001H44.8008L32.368 266.998H37.467L39.9705 263.576H53.2926L55.7961 266.998H60.8951H65.1675L82.1611 250.851Z" fill="white"/>
</g>
<path d="M14.712 233.464V230.896H16.176C16.392 230.896 16.6 230.912 16.8 230.944C17 230.976 17.176 231.04 17.328 231.136C17.48 231.224 17.6 231.352 17.688 231.52C17.784 231.688 17.832 231.908 17.832 232.18C17.832 232.452 17.784 232.672 17.688 232.84C17.6 233.008 17.48 233.14 17.328 233.236C17.176 233.324 17 233.384 16.8 233.416C16.6 233.448 16.392 233.464 16.176 233.464H14.712ZM12.828 229.432V238H14.712V234.928H16.692C17.228 234.928 17.684 234.852 18.06 234.7C18.436 234.54 18.74 234.332 18.972 234.076C19.212 233.82 19.384 233.528 19.488 233.2C19.6 232.864 19.656 232.524 19.656 232.18C19.656 231.828 19.6 231.488 19.488 231.16C19.384 230.832 19.212 230.54 18.972 230.284C18.74 230.028 18.436 229.824 18.06 229.672C17.684 229.512 17.228 229.432 16.692 229.432H12.828ZM23.0159 233.308V230.896H25.0799C25.5119 230.896 25.8359 230.992 26.0519 231.184C26.2679 231.368 26.3759 231.668 26.3759 232.084C26.3759 232.516 26.2679 232.828 26.0519 233.02C25.8359 233.212 25.5119 233.308 25.0799 233.308H23.0159ZM21.1319 229.432V238H23.0159V234.652H24.8999C25.3719 234.652 25.7119 234.756 25.9199 234.964C26.1279 235.172 26.2639 235.5 26.3279 235.948C26.3759 236.292 26.4119 236.652 26.4359 237.028C26.4599 237.404 26.5239 237.728 26.6279 238H28.5119C28.4239 237.88 28.3559 237.736 28.3079 237.568C28.2679 237.392 28.2359 237.208 28.2119 237.016C28.1959 236.824 28.1839 236.636 28.1759 236.452C28.1679 236.268 28.1599 236.108 28.1519 235.972C28.1359 235.756 28.1039 235.54 28.0559 235.324C28.0159 235.108 27.9479 234.912 27.8519 234.736C27.7559 234.552 27.6319 234.396 27.4799 234.268C27.3279 234.132 27.1359 234.032 26.9039 233.968V233.944C27.3839 233.752 27.7279 233.472 27.9359 233.104C28.1519 232.736 28.2599 232.3 28.2599 231.796C28.2599 231.468 28.1999 231.164 28.0799 230.884C27.9679 230.596 27.7999 230.344 27.5759 230.128C27.3599 229.912 27.0959 229.744 26.7839 229.624C26.4799 229.496 26.1359 229.432 25.7519 229.432H21.1319ZM31.6041 233.752C31.6041 233.376 31.6441 233.012 31.7241 232.66C31.8121 232.308 31.9481 231.996 32.1321 231.724C32.3161 231.444 32.5561 231.224 32.8521 231.064C33.1481 230.896 33.5081 230.812 33.9321 230.812C34.3561 230.812 34.7161 230.896 35.0121 231.064C35.3081 231.224 35.5481 231.444 35.7321 231.724C35.9161 231.996 36.0481 232.308 36.1281 232.66C36.2161 233.012 36.2601 233.376 36.2601 233.752C36.2601 234.112 36.2161 234.464 36.1281 234.808C36.0481 235.144 35.9161 235.448 35.7321 235.72C35.5481 235.992 35.3081 236.212 35.0121 236.38C34.7161 236.54 34.3561 236.62 33.9321 236.62C33.5081 236.62 33.1481 236.54 32.8521 236.38C32.5561 236.212 32.3161 235.992 32.1321 235.72C31.9481 235.448 31.8121 235.144 31.7241 234.808C31.6441 234.464 31.6041 234.112 31.6041 233.752ZM29.7201 233.752C29.7201 234.376 29.8161 234.96 30.0081 235.504C30.2001 236.04 30.4761 236.508 30.8361 236.908C31.1961 237.308 31.6361 237.624 32.1561 237.856C32.6841 238.08 33.2761 238.192 33.9321 238.192C34.5961 238.192 35.1881 238.08 35.7081 237.856C36.2281 237.624 36.6681 237.308 37.0281 236.908C37.3881 236.508 37.6641 236.04 37.8561 235.504C38.0481 234.96 38.1441 234.376 38.1441 233.752C38.1441 233.112 38.0481 232.52 37.8561 231.976C37.6641 231.424 37.3881 230.944 37.0281 230.536C36.6681 230.128 36.2281 229.808 35.7081 229.576C35.1881 229.344 34.5961 229.228 33.9321 229.228C33.2761 229.228 32.6841 229.344 32.1561 229.576C31.6361 229.808 31.1961 230.128 30.8361 230.536C30.4761 230.944 30.2001 231.424 30.0081 231.976C29.8161 232.52 29.7201 233.112 29.7201 233.752ZM45.4439 232.312H47.2679C47.2119 231.816 47.0759 231.376 46.8599 230.992C46.6439 230.608 46.3679 230.288 46.0319 230.032C45.7039 229.768 45.3279 229.568 44.9039 229.432C44.4879 229.296 44.0439 229.228 43.5719 229.228C42.9159 229.228 42.3239 229.344 41.7959 229.576C41.2759 229.808 40.8359 230.128 40.4759 230.536C40.1159 230.944 39.8399 231.424 39.6479 231.976C39.4559 232.52 39.3599 233.112 39.3599 233.752C39.3599 234.376 39.4559 234.96 39.6479 235.504C39.8399 236.04 40.1159 236.508 40.4759 236.908C40.8359 237.308 41.2759 237.624 41.7959 237.856C42.3239 238.08 42.9159 238.192 43.5719 238.192C44.0999 238.192 44.5839 238.112 45.0239 237.952C45.4639 237.792 45.8479 237.56 46.1759 237.256C46.5039 236.952 46.7679 236.584 46.9679 236.152C47.1679 235.72 47.2919 235.236 47.3399 234.7H45.5159C45.4439 235.276 45.2439 235.74 44.9159 236.092C44.5959 236.444 44.1479 236.62 43.5719 236.62C43.1479 236.62 42.7879 236.54 42.4919 236.38C42.1959 236.212 41.9559 235.992 41.7719 235.72C41.5879 235.448 41.4519 235.144 41.3639 234.808C41.2839 234.464 41.2439 234.112 41.2439 233.752C41.2439 233.376 41.2839 233.012 41.3639 232.66C41.4519 232.308 41.5879 231.996 41.7719 231.724C41.9559 231.444 42.1959 231.224 42.4919 231.064C42.7879 230.896 43.1479 230.812 43.5719 230.812C43.8039 230.812 44.0239 230.852 44.2319 230.932C44.4479 231.004 44.6399 231.108 44.8079 231.244C44.9759 231.38 45.1159 231.54 45.2279 231.724C45.3399 231.9 45.4119 232.096 45.4439 232.312ZM48.9264 229.432V238H55.4304V236.416H50.8104V234.316H54.9624V232.852H50.8104V231.016H55.3344V229.432H48.9264ZM58.2917 235.156H56.4677C56.4597 235.684 56.5557 236.14 56.7557 236.524C56.9557 236.908 57.2237 237.224 57.5597 237.472C57.9037 237.72 58.2957 237.9 58.7357 238.012C59.1837 238.132 59.6437 238.192 60.1157 238.192C60.6997 238.192 61.2117 238.124 61.6517 237.988C62.0997 237.852 62.4717 237.664 62.7677 237.424C63.0717 237.176 63.2997 236.884 63.4517 236.548C63.6037 236.212 63.6797 235.848 63.6797 235.456C63.6797 234.976 63.5757 234.584 63.3677 234.28C63.1677 233.968 62.9277 233.72 62.6477 233.536C62.3677 233.352 62.0837 233.22 61.7957 233.14C61.5157 233.052 61.2957 232.992 61.1357 232.96C60.5997 232.824 60.1637 232.712 59.8277 232.624C59.4997 232.536 59.2397 232.448 59.0477 232.36C58.8637 232.272 58.7397 232.176 58.6757 232.072C58.6117 231.968 58.5797 231.832 58.5797 231.664C58.5797 231.48 58.6197 231.328 58.6997 231.208C58.7797 231.088 58.8797 230.988 58.9997 230.908C59.1277 230.828 59.2677 230.772 59.4197 230.74C59.5717 230.708 59.7237 230.692 59.8757 230.692C60.1077 230.692 60.3197 230.712 60.5117 230.752C60.7117 230.792 60.8877 230.86 61.0397 230.956C61.1917 231.052 61.3117 231.184 61.3997 231.352C61.4957 231.52 61.5517 231.732 61.5677 231.988H63.3917C63.3917 231.492 63.2957 231.072 63.1037 230.728C62.9197 230.376 62.6677 230.088 62.3477 229.864C62.0277 229.64 61.6597 229.48 61.2437 229.384C60.8357 229.28 60.4077 229.228 59.9597 229.228C59.5757 229.228 59.1917 229.28 58.8077 229.384C58.4237 229.488 58.0797 229.648 57.7757 229.864C57.4717 230.08 57.2237 230.352 57.0317 230.68C56.8477 231 56.7557 231.38 56.7557 231.82C56.7557 232.212 56.8277 232.548 56.9717 232.828C57.1237 233.1 57.3197 233.328 57.5597 233.512C57.7997 233.696 58.0717 233.848 58.3757 233.968C58.6797 234.08 58.9917 234.176 59.3117 234.256C59.6237 234.344 59.9317 234.424 60.2357 234.496C60.5397 234.568 60.8117 234.652 61.0517 234.748C61.2917 234.844 61.4837 234.964 61.6277 235.108C61.7797 235.252 61.8557 235.44 61.8557 235.672C61.8557 235.888 61.7997 236.068 61.6877 236.212C61.5757 236.348 61.4357 236.456 61.2677 236.536C61.0997 236.616 60.9197 236.672 60.7277 236.704C60.5357 236.728 60.3557 236.74 60.1877 236.74C59.9397 236.74 59.6997 236.712 59.4677 236.656C59.2357 236.592 59.0317 236.5 58.8557 236.38C58.6877 236.252 58.5517 236.088 58.4477 235.888C58.3437 235.688 58.2917 235.444 58.2917 235.156ZM66.3847 235.156H64.5607C64.5527 235.684 64.6487 236.14 64.8487 236.524C65.0487 236.908 65.3167 237.224 65.6527 237.472C65.9967 237.72 66.3887 237.9 66.8287 238.012C67.2767 238.132 67.7367 238.192 68.2087 238.192C68.7927 238.192 69.3047 238.124 69.7447 237.988C70.1927 237.852 70.5647 237.664 70.8607 237.424C71.1647 237.176 71.3927 236.884 71.5447 236.548C71.6967 236.212 71.7727 235.848 71.7727 235.456C71.7727 234.976 71.6687 234.584 71.4607 234.28C71.2607 233.968 71.0207 233.72 70.7407 233.536C70.4607 233.352 70.1767 233.22 69.8887 233.14C69.6087 233.052 69.3887 232.992 69.2287 232.96C68.6927 232.824 68.2567 232.712 67.9207 232.624C67.5927 232.536 67.3327 232.448 67.1407 232.36C66.9567 232.272 66.8327 232.176 66.7687 232.072C66.7047 231.968 66.6727 231.832 66.6727 231.664C66.6727 231.48 66.7127 231.328 66.7927 231.208C66.8727 231.088 66.9727 230.988 67.0927 230.908C67.2207 230.828 67.3607 230.772 67.5127 230.74C67.6647 230.708 67.8167 230.692 67.9687 230.692C68.2007 230.692 68.4127 230.712 68.6047 230.752C68.8047 230.792 68.9807 230.86 69.1327 230.956C69.2847 231.052 69.4047 231.184 69.4927 231.352C69.5887 231.52 69.6447 231.732 69.6607 231.988H71.4847C71.4847 231.492 71.3887 231.072 71.1967 230.728C71.0127 230.376 70.7607 230.088 70.4407 229.864C70.1207 229.64 69.7527 229.48 69.3367 229.384C68.9287 229.28 68.5007 229.228 68.0527 229.228C67.6687 229.228 67.2847 229.28 66.9007 229.384C66.5167 229.488 66.1727 229.648 65.8687 229.864C65.5647 230.08 65.3167 230.352 65.1247 230.68C64.9407 231 64.8487 231.38 64.8487 231.82C64.8487 232.212 64.9207 232.548 65.0647 232.828C65.2167 233.1 65.4127 233.328 65.6527 233.512C65.8927 233.696 66.1647 233.848 66.4687 233.968C66.7727 234.08 67.0847 234.176 67.4047 234.256C67.7167 234.344 68.0247 234.424 68.3287 234.496C68.6327 234.568 68.9047 234.652 69.1447 234.748C69.3847 234.844 69.5767 234.964 69.7207 235.108C69.8727 235.252 69.9487 235.44 69.9487 235.672C69.9487 235.888 69.8927 236.068 69.7807 236.212C69.6687 236.348 69.5287 236.456 69.3607 236.536C69.1927 236.616 69.0127 236.672 68.8207 236.704C68.6287 236.728 68.4487 236.74 68.2807 236.74C68.0327 236.74 67.7927 236.712 67.5607 236.656C67.3287 236.592 67.1247 236.5 66.9487 236.38C66.7807 236.252 66.6447 236.088 66.5407 235.888C66.4367 235.688 66.3847 235.444 66.3847 235.156ZM73.1936 229.432V238H79.6976V236.416H75.0776V234.316H79.2296V232.852H75.0776V231.016H79.6016V229.432H73.1936ZM83.1589 236.416V231.016H84.5029C84.9669 231.016 85.3549 231.084 85.6669 231.22C85.9869 231.348 86.2429 231.536 86.4349 231.784C86.6269 232.032 86.7629 232.332 86.8429 232.684C86.9309 233.028 86.9749 233.416 86.9749 233.848C86.9749 234.32 86.9149 234.72 86.7949 235.048C86.6749 235.376 86.5149 235.644 86.3149 235.852C86.1149 236.052 85.8869 236.196 85.6309 236.284C85.3749 236.372 85.1109 236.416 84.8389 236.416H83.1589ZM81.2749 229.432V238H84.9709C85.6269 238 86.1949 237.892 86.6749 237.676C87.1629 237.452 87.5669 237.148 87.8869 236.764C88.2149 236.38 88.4589 235.924 88.6189 235.396C88.7789 234.868 88.8589 234.292 88.8589 233.668C88.8589 232.956 88.7589 232.336 88.5589 231.808C88.3669 231.28 88.0949 230.84 87.7429 230.488C87.3989 230.136 86.9869 229.872 86.5069 229.696C86.0349 229.52 85.5229 229.432 84.9709 229.432H81.2749ZM95.9933 232.9V230.896H97.7573C97.9253 230.896 98.0853 230.912 98.2373 230.944C98.3973 230.968 98.5373 231.016 98.6573 231.088C98.7773 231.16 98.8733 231.26 98.9453 231.388C99.0173 231.516 99.0533 231.68 99.0533 231.88C99.0533 232.24 98.9453 232.5 98.7293 232.66C98.5133 232.82 98.2373 232.9 97.9013 232.9H95.9933ZM94.1093 229.432V238H98.2613C98.6453 238 99.0173 237.952 99.3773 237.856C99.7453 237.76 100.069 237.612 100.349 237.412C100.637 237.212 100.865 236.956 101.033 236.644C101.201 236.324 101.285 235.948 101.285 235.516C101.285 234.98 101.153 234.524 100.889 234.148C100.633 233.764 100.241 233.496 99.7133 233.344C100.097 233.16 100.385 232.924 100.577 232.636C100.777 232.348 100.877 231.988 100.877 231.556C100.877 231.156 100.809 230.82 100.673 230.548C100.545 230.276 100.361 230.06 100.121 229.9C99.8813 229.732 99.5933 229.612 99.2573 229.54C98.9213 229.468 98.5493 229.432 98.1413 229.432H94.1093ZM95.9933 236.536V234.184H98.0453C98.4533 234.184 98.7813 234.28 99.0293 234.472C99.2773 234.656 99.4013 234.968 99.4013 235.408C99.4013 235.632 99.3613 235.816 99.2812 235.96C99.2093 236.104 99.1093 236.22 98.9813 236.308C98.8533 236.388 98.7053 236.448 98.5373 236.488C98.3693 236.52 98.1933 236.536 98.0093 236.536H95.9933ZM105.078 234.664V238H106.962V234.712L110.142 229.432H108.042L106.05 232.816L104.046 229.432H101.934L105.078 234.664Z" fill="#D1D5DB"/>
<g filter="url(#filter3_dd_1532_1800)">
<rect x="12" y="2" width="530" height="191" rx="16" fill="#374151"/>
<path d="M32.444 55.764C32.444 54.98 32.68 54.352 33.152 53.88C33.624 53.408 34.204 53.072 34.892 52.872C35.412 52.728 35.792 52.568 36.032 52.392C36.272 52.208 36.392 52 36.392 51.768C36.392 51.64 36.356 51.524 36.284 51.42C36.22 51.308 36.124 51.22 35.996 51.156C35.876 51.084 35.736 51.048 35.576 51.048C35.328 51.048 35.124 51.132 34.964 51.3C34.812 51.46 34.736 51.668 34.736 51.924H32.936C32.936 51.516 33.052 51.144 33.284 50.808C33.516 50.472 33.832 50.208 34.232 50.016C34.632 49.824 35.072 49.728 35.552 49.728C36.048 49.728 36.488 49.812 36.872 49.98C37.264 50.148 37.568 50.38 37.784 50.676C38 50.972 38.108 51.3 38.108 51.66C38.108 52.028 38.004 52.336 37.796 52.584C37.596 52.824 37.324 53.016 36.98 53.16V53.22C37.38 53.308 37.732 53.472 38.036 53.712C38.34 53.952 38.572 54.252 38.732 54.612C38.9 54.964 38.984 55.348 38.984 55.764C38.984 56.388 38.836 56.92 38.54 57.36C38.244 57.8 37.848 58.136 37.352 58.368C36.856 58.592 36.308 58.704 35.708 58.704C35.116 58.704 34.572 58.592 34.076 58.368C33.58 58.136 33.184 57.8 32.888 57.36C32.592 56.92 32.444 56.388 32.444 55.764ZM37.136 55.74C37.136 55.412 37.076 55.128 36.956 54.888C36.836 54.64 36.668 54.452 36.452 54.324C36.236 54.196 35.988 54.132 35.708 54.132C35.436 54.132 35.192 54.196 34.976 54.324C34.768 54.452 34.604 54.64 34.484 54.888C34.364 55.128 34.304 55.412 34.304 55.74C34.304 56.052 34.364 56.324 34.484 56.556C34.604 56.788 34.768 56.968 34.976 57.096C35.192 57.224 35.436 57.288 35.708 57.288C35.988 57.288 36.236 57.224 36.452 57.096C36.668 56.968 36.836 56.788 36.956 56.556C37.076 56.324 37.136 56.052 37.136 55.74ZM40.0897 55.8C40.0897 55.328 40.1977 54.86 40.4137 54.396H42.2137C42.0457 54.852 41.9617 55.284 41.9617 55.692C41.9617 55.996 42.0137 56.268 42.1177 56.508C42.2297 56.748 42.3857 56.94 42.5857 57.084C42.7857 57.22 43.0257 57.288 43.3057 57.288C43.5857 57.288 43.8257 57.22 44.0257 57.084C44.2337 56.948 44.3897 56.76 44.4937 56.52C44.5977 56.28 44.6497 56.008 44.6497 55.704C44.6497 55.328 44.5897 54.992 44.4697 54.696C44.3577 54.4 44.2217 54.148 44.0617 53.94C43.9017 53.732 43.6777 53.472 43.3897 53.16C43.1257 52.872 42.9057 52.6 42.7297 52.344C42.5617 52.08 42.4177 51.752 42.2977 51.36C42.1857 50.96 42.1297 50.484 42.1297 49.932H44.0017C44.0017 50.292 44.0457 50.612 44.1337 50.892C44.2217 51.172 44.3337 51.424 44.4697 51.648C44.6137 51.872 44.7937 52.112 45.0097 52.368C45.3457 52.776 45.6097 53.116 45.8017 53.388C45.9937 53.66 46.1617 54 46.3057 54.408C46.4497 54.808 46.5217 55.272 46.5217 55.8C46.5217 56.352 46.3817 56.852 46.1017 57.3C45.8217 57.74 45.4337 58.084 44.9377 58.332C44.4497 58.58 43.8977 58.704 43.2817 58.704C42.6657 58.704 42.1137 58.58 41.6257 58.332C41.1457 58.084 40.7697 57.74 40.4977 57.3C40.2257 56.852 40.0897 56.352 40.0897 55.8ZM50.9199 57.456H48.7239V56.244H49.8879V56.196C49.4799 56.036 49.1119 55.8 48.7839 55.488C48.4559 55.176 48.1959 54.804 48.0039 54.372C47.8119 53.94 47.7159 53.468 47.7159 52.956C47.7159 52.324 47.8279 51.764 48.0519 51.276C48.2839 50.78 48.5999 50.4 48.9999 50.136C49.4079 49.864 49.8679 49.728 50.3799 49.728C50.8199 49.728 51.2199 49.828 51.5799 50.028C51.9399 50.228 52.2119 50.524 52.3959 50.916H52.4559C52.6799 50.532 52.9839 50.24 53.3679 50.04C53.7599 49.832 54.2079 49.728 54.7119 49.728C55.2559 49.728 55.7559 49.864 56.2119 50.136C56.6679 50.4 57.0279 50.764 57.2919 51.228C57.5559 51.692 57.6879 52.204 57.6879 52.764C57.6879 53.324 57.5559 53.836 57.2919 54.3C57.0359 54.764 56.6719 55.132 56.1999 55.404C55.7359 55.668 55.2039 55.8 54.6039 55.8C54.0199 55.8 53.4959 55.664 53.0319 55.392C52.5679 55.12 52.2079 54.752 51.9519 54.288C51.6959 53.824 51.5679 53.316 51.5679 52.764V52.212C51.5679 51.86 51.4839 51.592 51.3159 51.408C51.1479 51.216 50.9399 51.12 50.6919 51.12C50.3479 51.12 50.0759 51.284 49.8759 51.612C49.6839 51.932 49.5879 52.392 49.5879 52.992C49.5879 53.576 49.7199 54.096 49.9839 54.552C50.2479 55 50.5999 55.368 51.0399 55.656C51.4799 55.936 51.9559 56.132 52.4679 56.244C53.2999 56.428 53.9479 56.696 54.4119 57.048C54.8839 57.4 55.1279 57.884 55.1439 58.5H53.0559C53.0479 58.284 52.9519 58.1 52.7679 57.948C52.5919 57.788 52.3399 57.668 52.0119 57.588C51.6919 57.5 51.3279 57.456 50.9199 57.456ZM55.9719 52.752C55.9719 52.432 55.9119 52.148 55.7919 51.9C55.6719 51.652 55.5079 51.46 55.2999 51.324C55.0919 51.188 54.8519 51.12 54.5799 51.12C54.3239 51.12 54.0959 51.188 53.8959 51.324C53.6959 51.46 53.5399 51.652 53.4279 51.9C53.3159 52.148 53.2599 52.432 53.2599 52.752C53.2599 53.08 53.3119 53.368 53.4159 53.616C53.5279 53.864 53.6839 54.06 53.8839 54.204C54.0839 54.34 54.3159 54.408 54.5799 54.408C54.8519 54.408 55.0919 54.336 55.2999 54.192C55.5159 54.048 55.6799 53.852 55.7919 53.604C55.9119 53.348 55.9719 53.064 55.9719 52.752ZM58.7834 55.8C58.7834 55.328 58.8914 54.86 59.1074 54.396H60.9074C60.7394 54.852 60.6554 55.284 60.6554 55.692C60.6554 55.996 60.7074 56.268 60.8114 56.508C60.9234 56.748 61.0794 56.94 61.2794 57.084C61.4794 57.22 61.7194 57.288 61.9994 57.288C62.2794 57.288 62.5194 57.22 62.7194 57.084C62.9274 56.948 63.0834 56.76 63.1874 56.52C63.2914 56.28 63.3434 56.008 63.3434 55.704C63.3434 55.328 63.2834 54.992 63.1634 54.696C63.0514 54.4 62.9154 54.148 62.7554 53.94C62.5954 53.732 62.3714 53.472 62.0834 53.16C61.8194 52.872 61.5994 52.6 61.4234 52.344C61.2554 52.08 61.1114 51.752 60.9914 51.36C60.8794 50.96 60.8234 50.484 60.8234 49.932H62.6954C62.6954 50.292 62.7394 50.612 62.8274 50.892C62.9154 51.172 63.0274 51.424 63.1634 51.648C63.3074 51.872 63.4874 52.112 63.7034 52.368C64.0394 52.776 64.3034 53.116 64.4954 53.388C64.6874 53.66 64.8554 54 64.9994 54.408C65.1434 54.808 65.2154 55.272 65.2154 55.8C65.2154 56.352 65.0754 56.852 64.7954 57.3C64.5154 57.74 64.1274 58.084 63.6314 58.332C63.1434 58.58 62.5914 58.704 61.9754 58.704C61.3594 58.704 60.8074 58.58 60.3194 58.332C59.8394 58.084 59.4634 57.74 59.1914 57.3C58.9194 56.852 58.7834 56.352 58.7834 55.8ZM66.6856 55.668V49.932H68.5576V53.568H68.5816C68.7656 53.296 69.0256 53.084 69.3616 52.932C69.7056 52.772 70.0736 52.692 70.4656 52.692C70.9696 52.692 71.4296 52.816 71.8456 53.064C72.2616 53.312 72.5896 53.664 72.8296 54.12C73.0776 54.568 73.2016 55.084 73.2016 55.668C73.2016 56.244 73.0656 56.764 72.7936 57.228C72.5216 57.692 72.1376 58.056 71.6416 58.32C71.1456 58.576 70.5776 58.704 69.9376 58.704C69.2896 58.704 68.7176 58.576 68.2216 58.32C67.7336 58.056 67.3536 57.692 67.0816 57.228C66.8176 56.764 66.6856 56.244 66.6856 55.668ZM71.3296 55.716C71.3296 55.396 71.2696 55.116 71.1496 54.876C71.0376 54.628 70.8736 54.44 70.6576 54.312C70.4496 54.184 70.2096 54.12 69.9376 54.12C69.6576 54.12 69.4096 54.184 69.1936 54.312C68.9776 54.44 68.8056 54.628 68.6776 54.876C68.5576 55.116 68.4976 55.396 68.4976 55.716C68.4976 56.036 68.5576 56.316 68.6776 56.556C68.8056 56.788 68.9776 56.968 69.1936 57.096C69.4096 57.224 69.6576 57.288 69.9376 57.288C70.2016 57.288 70.4376 57.224 70.6456 57.096C70.8616 56.968 71.0296 56.784 71.1496 56.544C71.2696 56.304 71.3296 56.028 71.3296 55.716ZM77.6128 57.456H75.4168V56.244H76.5808V56.196C76.1728 56.036 75.8048 55.8 75.4768 55.488C75.1488 55.176 74.8888 54.804 74.6968 54.372C74.5048 53.94 74.4088 53.468 74.4088 52.956C74.4088 52.324 74.5208 51.764 74.7448 51.276C74.9768 50.78 75.2928 50.4 75.6928 50.136C76.1008 49.864 76.5608 49.728 77.0728 49.728C77.5128 49.728 77.9128 49.828 78.2728 50.028C78.6328 50.228 78.9048 50.524 79.0888 50.916H79.1488C79.3728 50.532 79.6768 50.24 80.0608 50.04C80.4528 49.832 80.9008 49.728 81.4048 49.728C81.9488 49.728 82.4488 49.864 82.9048 50.136C83.3608 50.4 83.7208 50.764 83.9848 51.228C84.2488 51.692 84.3808 52.204 84.3808 52.764C84.3808 53.324 84.2488 53.836 83.9848 54.3C83.7288 54.764 83.3648 55.132 82.8928 55.404C82.4288 55.668 81.8968 55.8 81.2968 55.8C80.7128 55.8 80.1888 55.664 79.7248 55.392C79.2608 55.12 78.9008 54.752 78.6448 54.288C78.3888 53.824 78.2608 53.316 78.2608 52.764V52.212C78.2608 51.86 78.1768 51.592 78.0088 51.408C77.8408 51.216 77.6328 51.12 77.3848 51.12C77.0408 51.12 76.7688 51.284 76.5688 51.612C76.3768 51.932 76.2808 52.392 76.2808 52.992C76.2808 53.576 76.4128 54.096 76.6768 54.552C76.9408 55 77.2928 55.368 77.7328 55.656C78.1728 55.936 78.6488 56.132 79.1608 56.244C79.9928 56.428 80.6408 56.696 81.1048 57.048C81.5768 57.4 81.8208 57.884 81.8368 58.5H79.7488C79.7408 58.284 79.6448 58.1 79.4608 57.948C79.2848 57.788 79.0328 57.668 78.7048 57.588C78.3848 57.5 78.0208 57.456 77.6128 57.456ZM82.6648 52.752C82.6648 52.432 82.6048 52.148 82.4848 51.9C82.3648 51.652 82.2008 51.46 81.9928 51.324C81.7848 51.188 81.5448 51.12 81.2728 51.12C81.0168 51.12 80.7888 51.188 80.5888 51.324C80.3888 51.46 80.2328 51.652 80.1208 51.9C80.0088 52.148 79.9528 52.432 79.9528 52.752C79.9528 53.08 80.0048 53.368 80.1088 53.616C80.2208 53.864 80.3768 54.06 80.5768 54.204C80.7768 54.34 81.0088 54.408 81.2728 54.408C81.5448 54.408 81.7848 54.336 81.9928 54.192C82.2088 54.048 82.3728 53.852 82.4848 53.604C82.6048 53.348 82.6648 53.064 82.6648 52.752ZM85.4764 55.8C85.4764 55.328 85.5844 54.86 85.8004 54.396H87.6004C87.4324 54.852 87.3484 55.284 87.3484 55.692C87.3484 55.996 87.4004 56.268 87.5044 56.508C87.6164 56.748 87.7724 56.94 87.9724 57.084C88.1724 57.22 88.4124 57.288 88.6924 57.288C88.9724 57.288 89.2124 57.22 89.4124 57.084C89.6204 56.948 89.7764 56.76 89.8804 56.52C89.9844 56.28 90.0364 56.008 90.0364 55.704C90.0364 55.328 89.9764 54.992 89.8564 54.696C89.7444 54.4 89.6084 54.148 89.4484 53.94C89.2884 53.732 89.0644 53.472 88.7764 53.16C88.5124 52.872 88.2924 52.6 88.1164 52.344C87.9484 52.08 87.8044 51.752 87.6844 51.36C87.5724 50.96 87.5164 50.484 87.5164 49.932H89.3884C89.3884 50.292 89.4324 50.612 89.5204 50.892C89.6084 51.172 89.7204 51.424 89.8564 51.648C90.0004 51.872 90.1804 52.112 90.3964 52.368C90.7324 52.776 90.9964 53.116 91.1884 53.388C91.3804 53.66 91.5484 54 91.6924 54.408C91.8364 54.808 91.9084 55.272 91.9084 55.8C91.9084 56.352 91.7684 56.852 91.4884 57.3C91.2084 57.74 90.8204 58.084 90.3244 58.332C89.8364 58.58 89.2844 58.704 88.6684 58.704C88.0524 58.704 87.5004 58.58 87.0124 58.332C86.5324 58.084 86.1564 57.74 85.8844 57.3C85.6124 56.852 85.4764 56.352 85.4764 55.8ZM96.7424 55.668C96.7424 55.124 96.8544 54.64 97.0784 54.216C97.3104 53.792 97.6224 53.452 98.0144 53.196C98.4064 52.932 98.8544 52.76 99.3584 52.68V52.464C99.3584 52.312 99.3264 52.18 99.2624 52.068C99.2064 51.956 99.1264 51.864 99.0224 51.792C98.9264 51.712 98.8024 51.624 98.6504 51.528C98.4824 51.432 98.3424 51.328 98.2304 51.216C98.1184 51.104 98.0264 50.944 97.9544 50.736C97.8904 50.528 97.8584 50.26 97.8584 49.932H99.5864C99.5864 50.124 99.6344 50.292 99.7304 50.436C99.8264 50.572 99.9664 50.7 100.15 50.82C100.358 50.956 100.526 51.08 100.654 51.192C100.782 51.304 100.894 51.452 100.99 51.636C101.094 51.82 101.146 52.04 101.146 52.296V52.776C101.562 52.888 101.934 53.08 102.262 53.352C102.59 53.616 102.846 53.948 103.03 54.348C103.222 54.748 103.318 55.188 103.318 55.668C103.318 56.276 103.174 56.812 102.886 57.276C102.598 57.732 102.202 58.084 101.698 58.332C101.194 58.58 100.634 58.704 100.018 58.704C99.4104 58.704 98.8584 58.58 98.3624 58.332C97.8664 58.084 97.4704 57.728 97.1744 57.264C96.8864 56.8 96.7424 56.268 96.7424 55.668ZM101.458 55.668C101.458 55.34 101.398 55.056 101.278 54.816C101.158 54.576 100.99 54.392 100.774 54.264C100.558 54.136 100.306 54.072 100.018 54.072C99.7464 54.072 99.5024 54.136 99.2864 54.264C99.0784 54.392 98.9144 54.576 98.7944 54.816C98.6744 55.056 98.6144 55.34 98.6144 55.668C98.6144 56.004 98.6744 56.296 98.7944 56.544C98.9144 56.784 99.0784 56.968 99.2864 57.096C99.4944 57.224 99.7384 57.288 100.018 57.288C100.306 57.288 100.558 57.224 100.774 57.096C100.99 56.968 101.158 56.784 101.278 56.544C101.398 56.296 101.458 56.004 101.458 55.668ZM104.423 55.8C104.423 55.328 104.531 54.86 104.747 54.396H106.547C106.379 54.852 106.295 55.284 106.295 55.692C106.295 55.996 106.347 56.268 106.451 56.508C106.563 56.748 106.719 56.94 106.919 57.084C107.119 57.22 107.359 57.288 107.639 57.288C107.919 57.288 108.159 57.22 108.359 57.084C108.567 56.948 108.723 56.76 108.827 56.52C108.931 56.28 108.983 56.008 108.983 55.704C108.983 55.328 108.923 54.992 108.803 54.696C108.691 54.4 108.555 54.148 108.395 53.94C108.235 53.732 108.011 53.472 107.723 53.16C107.459 52.872 107.239 52.6 107.063 52.344C106.895 52.08 106.751 51.752 106.631 51.36C106.519 50.96 106.463 50.484 106.463 49.932H108.335C108.335 50.292 108.379 50.612 108.467 50.892C108.555 51.172 108.667 51.424 108.803 51.648C108.947 51.872 109.127 52.112 109.343 52.368C109.679 52.776 109.943 53.116 110.135 53.388C110.327 53.66 110.495 54 110.639 54.408C110.783 54.808 110.855 55.272 110.855 55.8C110.855 56.352 110.715 56.852 110.435 57.3C110.155 57.74 109.767 58.084 109.271 58.332C108.783 58.58 108.231 58.704 107.615 58.704C106.999 58.704 106.447 58.58 105.959 58.332C105.479 58.084 105.103 57.74 104.831 57.3C104.559 56.852 104.423 56.352 104.423 55.8ZM118.973 55.596C118.973 55.076 118.889 54.688 118.721 54.432C118.553 54.176 118.329 54.048 118.049 54.048C117.809 54.048 117.617 54.156 117.473 54.372C117.329 54.58 117.257 54.86 117.257 55.212V56.976H115.625V55.224C115.625 54.856 115.553 54.568 115.409 54.36C115.273 54.152 115.085 54.048 114.845 54.048C114.573 54.048 114.349 54.168 114.173 54.408C113.997 54.648 113.909 55.036 113.909 55.572C113.909 56.62 114.177 57.596 114.713 58.5H112.913C112.633 58.068 112.417 57.572 112.265 57.012C112.121 56.452 112.049 55.736 112.049 54.864C112.049 53.48 112.377 52.456 113.033 51.792C113.689 51.128 114.557 50.696 115.637 50.496L116.645 50.304C116.813 50.272 116.953 50.228 117.065 50.172C117.177 50.116 117.253 50.036 117.293 49.932H119.153C119.105 50.404 118.933 50.784 118.637 51.072C118.341 51.352 117.869 51.54 117.221 51.636L116.189 51.792C115.453 51.904 114.837 52.084 114.341 52.332C113.853 52.58 113.553 52.956 113.441 53.46H113.477C113.653 53.196 113.877 53.004 114.149 52.884C114.429 52.756 114.697 52.692 114.953 52.692C115.265 52.692 115.557 52.78 115.829 52.956C116.101 53.132 116.309 53.384 116.453 53.712H116.489C116.665 53.376 116.913 53.124 117.233 52.956C117.561 52.78 117.929 52.692 118.337 52.692C118.793 52.692 119.209 52.804 119.585 53.028C119.969 53.252 120.273 53.572 120.497 53.988C120.721 54.404 120.833 54.896 120.833 55.464C120.833 56.112 120.757 56.68 120.605 57.168C120.453 57.648 120.241 58.092 119.969 58.5H118.169C118.433 58.036 118.633 57.576 118.769 57.12C118.905 56.656 118.973 56.148 118.973 55.596ZM121.933 55.8C121.933 55.328 122.041 54.86 122.257 54.396H124.057C123.889 54.852 123.805 55.284 123.805 55.692C123.805 55.996 123.857 56.268 123.961 56.508C124.073 56.748 124.229 56.94 124.429 57.084C124.629 57.22 124.869 57.288 125.149 57.288C125.429 57.288 125.669 57.22 125.869 57.084C126.077 56.948 126.233 56.76 126.337 56.52C126.441 56.28 126.493 56.008 126.493 55.704C126.493 55.328 126.433 54.992 126.313 54.696C126.201 54.4 126.065 54.148 125.905 53.94C125.745 53.732 125.521 53.472 125.233 53.16C124.969 52.872 124.749 52.6 124.573 52.344C124.405 52.08 124.261 51.752 124.141 51.36C124.029 50.96 123.973 50.484 123.973 49.932H125.845C125.845 50.292 125.889 50.612 125.977 50.892C126.065 51.172 126.177 51.424 126.313 51.648C126.457 51.872 126.637 52.112 126.853 52.368C127.189 52.776 127.453 53.116 127.645 53.388C127.837 53.66 128.005 54 128.149 54.408C128.293 54.808 128.365 55.272 128.365 55.8C128.365 56.352 128.225 56.852 127.945 57.3C127.665 57.74 127.277 58.084 126.781 58.332C126.293 58.58 125.741 58.704 125.125 58.704C124.509 58.704 123.957 58.58 123.469 58.332C122.989 58.084 122.613 57.74 122.341 57.3C122.069 56.852 121.933 56.352 121.933 55.8ZM138.092 54.756V52.776C138.092 52.184 138 51.752 137.816 51.48C137.64 51.208 137.392 51.072 137.072 51.072C136.768 51.072 136.524 51.2 136.34 51.456C136.156 51.704 136.064 52.092 136.064 52.62V55.368C136.064 56.08 135.928 56.688 135.656 57.192C135.384 57.688 135.012 58.064 134.54 58.32C134.068 58.576 133.536 58.704 132.944 58.704C132.352 58.704 131.812 58.576 131.324 58.32C130.844 58.064 130.46 57.688 130.172 57.192C129.892 56.688 129.752 56.08 129.752 55.368V53.064C129.752 52.368 129.884 51.768 130.148 51.264C130.42 50.76 130.784 50.38 131.24 50.124C131.704 49.86 132.216 49.728 132.776 49.728C133.288 49.728 133.752 49.84 134.168 50.064C134.584 50.288 134.896 50.6 135.104 51H135.152C135.264 50.736 135.428 50.508 135.644 50.316C135.868 50.124 136.12 49.98 136.4 49.884C136.68 49.78 136.964 49.728 137.252 49.728C137.772 49.728 138.236 49.852 138.644 50.1C139.06 50.348 139.384 50.708 139.616 51.18C139.856 51.644 139.976 52.204 139.976 52.86V54.708C139.976 55.468 139.896 56.192 139.736 56.88C139.576 57.56 139.372 58.1 139.124 58.5H137.264C137.528 58.052 137.732 57.488 137.876 56.808C138.02 56.128 138.092 55.444 138.092 54.756ZM134.24 55.344V53.1C134.24 52.46 134.136 51.976 133.928 51.648C133.72 51.312 133.392 51.144 132.944 51.144C132.504 51.144 132.172 51.312 131.948 51.648C131.732 51.976 131.624 52.456 131.624 53.088V55.344C131.624 55.976 131.732 56.46 131.948 56.796C132.172 57.124 132.504 57.288 132.944 57.288C133.384 57.288 133.708 57.124 133.916 56.796C134.132 56.468 134.24 55.984 134.24 55.344ZM146.012 54.696V53.004C146.012 52.428 145.9 51.976 145.676 51.648C145.46 51.312 145.14 51.144 144.716 51.144C144.284 51.144 143.956 51.312 143.732 51.648C143.516 51.984 143.408 52.436 143.408 53.004V54.696C143.408 55.392 143.468 56.092 143.588 56.796C143.716 57.492 143.872 58.06 144.056 58.5H142.244C142.036 58.084 141.864 57.516 141.728 56.796C141.6 56.076 141.536 55.352 141.536 54.624V52.956C141.536 52.284 141.676 51.704 141.956 51.216C142.236 50.728 142.616 50.36 143.096 50.112C143.576 49.856 144.116 49.728 144.716 49.728C145.308 49.728 145.844 49.856 146.324 50.112C146.812 50.368 147.196 50.74 147.476 51.228C147.756 51.716 147.896 52.296 147.896 52.968V54.624C147.896 55.352 147.828 56.076 147.692 56.796C147.556 57.516 147.384 58.084 147.176 58.5H145.364C145.556 58.068 145.712 57.5 145.832 56.796C145.952 56.092 146.012 55.392 146.012 54.696ZM157.793 54.756V52.776C157.793 52.184 157.701 51.752 157.517 51.48C157.341 51.208 157.093 51.072 156.773 51.072C156.469 51.072 156.225 51.2 156.041 51.456C155.857 51.704 155.765 52.092 155.765 52.62V55.368C155.765 56.08 155.629 56.688 155.357 57.192C155.085 57.688 154.713 58.064 154.241 58.32C153.769 58.576 153.237 58.704 152.645 58.704C152.053 58.704 151.513 58.576 151.025 58.32C150.545 58.064 150.161 57.688 149.873 57.192C149.593 56.688 149.453 56.08 149.453 55.368V53.064C149.453 52.368 149.585 51.768 149.849 51.264C150.121 50.76 150.485 50.38 150.941 50.124C151.405 49.86 151.917 49.728 152.477 49.728C152.989 49.728 153.453 49.84 153.869 50.064C154.285 50.288 154.597 50.6 154.805 51H154.853C154.965 50.736 155.129 50.508 155.345 50.316C155.569 50.124 155.821 49.98 156.101 49.884C156.381 49.78 156.665 49.728 156.953 49.728C157.473 49.728 157.937 49.852 158.345 50.1C158.761 50.348 159.085 50.708 159.317 51.18C159.557 51.644 159.677 52.204 159.677 52.86V54.708C159.677 55.468 159.597 56.192 159.437 56.88C159.277 57.56 159.073 58.1 158.825 58.5H156.965C157.229 58.052 157.433 57.488 157.577 56.808C157.721 56.128 157.793 55.444 157.793 54.756ZM153.941 55.344V53.1C153.941 52.46 153.837 51.976 153.629 51.648C153.421 51.312 153.093 51.144 152.645 51.144C152.205 51.144 151.873 51.312 151.649 51.648C151.433 51.976 151.325 52.456 151.325 53.088V55.344C151.325 55.976 151.433 56.46 151.649 56.796C151.873 57.124 152.205 57.288 152.645 57.288C153.085 57.288 153.409 57.124 153.617 56.796C153.833 56.468 153.941 55.984 153.941 55.344Z" fill="white"/>
<g filter="url(#filter4_dd_1532_1800)">
<path d="M32 77.5C32 73.0817 35.5817 69.5 40 69.5H514C518.418 69.5 522 73.0817 522 77.5V109.5H32V77.5Z" fill="white"/>
<path d="M47.7266 95.5H49.4375V84.2266H47.7109L44.7422 86.3359V87.9922L47.6875 85.9609H47.7266V95.5ZM52.2675 95.5H59.9784V94.0234H54.6112V93.9531L57.1737 91.4375C59.1972 89.4375 59.7987 88.5234 59.7987 87.2344V87.2188C59.7987 85.3984 58.2519 84.0391 56.0878 84.0391C53.8847 84.0391 52.1737 85.5 52.1737 87.5156V87.5625H53.83V87.5156C53.8456 86.375 54.7909 85.4844 56.1112 85.4844C57.2519 85.4844 58.0644 86.25 58.0722 87.3203V87.3359C58.0722 88.2109 57.7362 88.8047 56.2362 90.3047L52.2675 94.2969V95.5ZM65.5506 95.6875C67.9412 95.6875 69.6366 94.3125 69.6366 92.3828V92.3672C69.6366 90.7891 68.5272 89.7891 66.8709 89.6406V89.6016C68.2459 89.3125 69.2459 88.375 69.2459 86.9766V86.9609C69.2459 85.2266 67.7772 84.0391 65.535 84.0391C63.3319 84.0391 61.8319 85.2812 61.66 87.1641L61.6522 87.2422H63.2928L63.3006 87.1719C63.41 86.125 64.285 85.4688 65.535 85.4688C66.8084 85.4688 67.5428 86.1016 67.5428 87.1875V87.2031C67.5428 88.25 66.6678 89.0078 65.3787 89.0078H64.0584V90.3672H65.4256C66.9334 90.3672 67.8553 91.0781 67.8553 92.3516V92.3672C67.8553 93.4609 66.9256 94.2266 65.5506 94.2266C64.1522 94.2266 63.2069 93.5234 63.0975 92.5234L63.0897 92.4375H61.41L61.4178 92.5391C61.5741 94.375 63.1444 95.6875 65.5506 95.6875ZM76.74 95.5H78.4197V93.2578H79.9744V91.7891H78.4197V84.2266H75.8884L71.0994 91.7344V93.2578H76.74V95.5ZM72.7244 91.8125V91.7656L76.7087 85.6094H76.7556V91.8125H72.7244ZM87.5641 95.5H89.275V84.2266H87.5484L84.5797 86.3359V87.9922L87.525 85.9609H87.5641V95.5ZM92.105 95.5H99.8159V94.0234H94.4487V93.9531L97.0112 91.4375C99.0347 89.4375 99.6362 88.5234 99.6362 87.2344V87.2188C99.6362 85.3984 98.0894 84.0391 95.9253 84.0391C93.7222 84.0391 92.0112 85.5 92.0112 87.5156V87.5625H93.6675V87.5156C93.6831 86.375 94.6284 85.4844 95.9487 85.4844C97.0894 85.4844 97.9019 86.25 97.9097 87.3203V87.3359C97.9097 88.2109 97.5737 88.8047 96.0737 90.3047L92.105 94.2969V95.5ZM105.388 95.6875C107.779 95.6875 109.474 94.3125 109.474 92.3828V92.3672C109.474 90.7891 108.365 89.7891 106.708 89.6406V89.6016C108.083 89.3125 109.083 88.375 109.083 86.9766V86.9609C109.083 85.2266 107.615 84.0391 105.373 84.0391C103.169 84.0391 101.669 85.2812 101.498 87.1641L101.49 87.2422H103.13L103.138 87.1719C103.248 86.125 104.123 85.4688 105.373 85.4688C106.646 85.4688 107.38 86.1016 107.38 87.1875V87.2031C107.38 88.25 106.505 89.0078 105.216 89.0078H103.896V90.3672H105.263C106.771 90.3672 107.693 91.0781 107.693 92.3516V92.3672C107.693 93.4609 106.763 94.2266 105.388 94.2266C103.99 94.2266 103.044 93.5234 102.935 92.5234L102.927 92.4375H101.248L101.255 92.5391C101.412 94.375 102.982 95.6875 105.388 95.6875ZM116.577 95.5H118.257V93.2578H119.812V91.7891H118.257V84.2266H115.726L110.937 91.7344V93.2578H116.577V95.5ZM112.562 91.8125V91.7656L116.546 85.6094H116.593V91.8125H112.562ZM127.402 95.5H129.113V84.2266H127.386L124.417 86.3359V87.9922L127.363 85.9609H127.402V95.5ZM131.942 95.5H139.653V94.0234H134.286V93.9531L136.849 91.4375C138.872 89.4375 139.474 88.5234 139.474 87.2344V87.2188C139.474 85.3984 137.927 84.0391 135.763 84.0391C133.56 84.0391 131.849 85.5 131.849 87.5156V87.5625H133.505V87.5156C133.521 86.375 134.466 85.4844 135.786 85.4844C136.927 85.4844 137.739 86.25 137.747 87.3203V87.3359C137.747 88.2109 137.411 88.8047 135.911 90.3047L131.942 94.2969V95.5ZM145.226 95.6875C147.616 95.6875 149.312 94.3125 149.312 92.3828V92.3672C149.312 90.7891 148.202 89.7891 146.546 89.6406V89.6016C147.921 89.3125 148.921 88.375 148.921 86.9766V86.9609C148.921 85.2266 147.452 84.0391 145.21 84.0391C143.007 84.0391 141.507 85.2812 141.335 87.1641L141.327 87.2422H142.968L142.976 87.1719C143.085 86.125 143.96 85.4688 145.21 85.4688C146.483 85.4688 147.218 86.1016 147.218 87.1875V87.2031C147.218 88.25 146.343 89.0078 145.054 89.0078H143.733V90.3672H145.101C146.608 90.3672 147.53 91.0781 147.53 92.3516V92.3672C147.53 93.4609 146.601 94.2266 145.226 94.2266C143.827 94.2266 142.882 93.5234 142.772 92.5234L142.765 92.4375H141.085L141.093 92.5391C141.249 94.375 142.819 95.6875 145.226 95.6875ZM156.415 95.5H158.095V93.2578H159.649V91.7891H158.095V84.2266H155.563L150.774 91.7344V93.2578H156.415V95.5ZM152.399 91.8125V91.7656L156.384 85.6094H156.431V91.8125H152.399ZM167.239 95.5H168.95V84.2266H167.223L164.255 86.3359V87.9922L167.2 85.9609H167.239V95.5ZM171.78 95.5H179.491V94.0234H174.124V93.9531L176.686 91.4375C178.71 89.4375 179.311 88.5234 179.311 87.2344V87.2188C179.311 85.3984 177.764 84.0391 175.6 84.0391C173.397 84.0391 171.686 85.5 171.686 87.5156V87.5625H173.342V87.5156C173.358 86.375 174.303 85.4844 175.624 85.4844C176.764 85.4844 177.577 86.25 177.585 87.3203V87.3359C177.585 88.2109 177.249 88.8047 175.749 90.3047L171.78 94.2969V95.5ZM185.063 95.6875C187.454 95.6875 189.149 94.3125 189.149 92.3828V92.3672C189.149 90.7891 188.04 89.7891 186.383 89.6406V89.6016C187.758 89.3125 188.758 88.375 188.758 86.9766V86.9609C188.758 85.2266 187.29 84.0391 185.048 84.0391C182.844 84.0391 181.344 85.2812 181.173 87.1641L181.165 87.2422H182.805L182.813 87.1719C182.923 86.125 183.798 85.4688 185.048 85.4688C186.321 85.4688 187.055 86.1016 187.055 87.1875V87.2031C187.055 88.25 186.18 89.0078 184.891 89.0078H183.571V90.3672H184.938C186.446 90.3672 187.368 91.0781 187.368 92.3516V92.3672C187.368 93.4609 186.438 94.2266 185.063 94.2266C183.665 94.2266 182.719 93.5234 182.61 92.5234L182.602 92.4375H180.923L180.93 92.5391C181.087 94.375 182.657 95.6875 185.063 95.6875ZM196.253 95.5H197.932V93.2578H199.487V91.7891H197.932V84.2266H195.401L190.612 91.7344V93.2578H196.253V95.5ZM192.237 91.8125V91.7656L196.221 85.6094H196.268V91.8125H192.237Z" fill="#8792A2"/>
<path d="M40 70H514C518.142 70 521.5 73.3579 521.5 77.5V109H32.5V77.5C32.5 73.3579 35.8579 70 40 70Z" stroke="#3C4257" stroke-opacity="0.12"/>
</g>
<g clip-path="url(#clip1_1532_1800)" filter="url(#filter5_dd_1532_1800)">
<path d="M32 109.5H276.999V149.5H40C35.5817 149.5 32 145.918 32 141.5V109.5Z" fill="white"/>
<path d="M62.0393 135.5H63.6331V127.18H63.6877L67.0862 135.5H68.3831L71.7815 127.18H71.8362V135.5H73.4299V124.227H71.4143L67.7581 133.227H67.7112L64.0627 124.227H62.0393V135.5ZM75.5881 135.5H77.1818V127.18H77.2365L80.6349 135.5H81.9318L85.3302 127.18H85.3849V135.5H86.9787V124.227H84.9631L81.3068 133.227H81.2599L77.6115 124.227H75.5881V135.5ZM96.0371 124.227H94.4824L91.4277 138.234H92.9902L96.0371 124.227ZM103.619 135.5H105.369V130.883L109.346 124.227H107.4L104.525 129.203H104.471L101.596 124.227H99.6502L103.619 130.883V135.5ZM113.808 135.5H115.558V130.883L119.535 124.227H117.59L114.715 129.203H114.66L111.785 124.227H109.84L113.808 130.883V135.5Z" fill="#8792A2"/>
<path d="M32.5 110H276.499V149H40C35.8579 149 32.5 145.642 32.5 141.5V110Z" stroke="#3C4257" stroke-opacity="0.12"/>
<path d="M276.999 109.5H521.999V141.5C521.999 145.918 518.417 149.5 513.999 149.5H276.999V109.5Z" fill="white"/>
<path d="M312.359 135.688C314.851 135.688 316.718 134.18 317.069 131.938L317.077 131.859H315.343L315.319 131.93C314.898 133.359 313.859 134.141 312.359 134.141C310.273 134.141 308.921 132.469 308.921 129.859V129.852C308.921 127.242 310.265 125.586 312.359 125.586C313.874 125.586 314.921 126.391 315.296 127.711L315.343 127.867H317.077L317.062 127.797C316.71 125.57 314.843 124.039 312.359 124.039C309.163 124.039 307.132 126.273 307.132 129.852V129.859C307.132 133.438 309.163 135.688 312.359 135.688ZM321.86 135.5H323.79L327.806 124.227H325.923L322.845 133.555H322.806L319.728 124.227H317.845L321.86 135.5ZM333.894 135.688C336.386 135.688 338.253 134.18 338.604 131.938L338.612 131.859H336.878L336.854 131.93C336.433 133.359 335.394 134.141 333.894 134.141C331.808 134.141 330.456 132.469 330.456 129.859V129.852C330.456 127.242 331.8 125.586 333.894 125.586C335.409 125.586 336.456 126.391 336.831 127.711L336.878 127.867H338.612L338.597 127.797C338.245 125.57 336.378 124.039 333.894 124.039C330.698 124.039 328.667 126.273 328.667 129.852V129.859C328.667 133.438 330.698 135.688 333.894 135.688Z" fill="#8792A2"/>
<path d="M277.499 110H521.499V141.5C521.499 145.642 518.141 149 513.999 149H277.499V110Z" stroke="#3C4257" stroke-opacity="0.12"/>
<g clip-path="url(#clip2_1532_1800)">
<path opacity="0.2" d="M504.009 122.067H489.55C488.874 122.067 488.08 122.846 488.08 123.537V134.557C488.08 135.248 488.874 136.027 489.55 136.027H507.917C508.593 136.027 509.387 135.248 509.387 134.557V129.025C508.768 129.582 508.003 129.951 507.182 130.09V130.149C507.182 130.634 506.918 130.884 506.448 130.884H490.285C489.814 130.884 489.55 130.634 489.55 130.149V129.414C489.55 128.929 489.814 128.68 490.285 128.68H503.164C502.74 128.21 502.422 127.654 502.233 127.049C502.044 126.445 501.987 125.807 502.067 125.179C502.148 124.552 502.363 123.948 502.698 123.411C503.033 122.874 503.48 122.416 504.009 122.067V122.067Z" fill="#697386"/>
<path d="M502.289 124.271H488.08V126.476H502.098C501.975 125.737 502.041 124.978 502.289 124.271Z" fill="#697386"/>
</g>
<path d="M506.893 130.786C505.532 130.786 504.227 130.244 503.265 129.279C502.303 128.315 501.762 127.007 501.762 125.643C501.762 124.279 502.303 122.971 503.265 122.006C504.227 121.042 505.532 120.5 506.893 120.5C508.254 120.5 509.559 121.042 510.521 122.006C511.483 122.971 512.024 124.279 512.024 125.643C512.024 127.007 511.483 128.315 510.521 129.279C509.559 130.244 508.254 130.786 506.893 130.786ZM504.855 123.512H504.276L502.862 124.232V124.967L503.983 124.379V127.773H504.863V123.512H504.855ZM506.541 124.1C506.959 124.1 507.252 124.335 507.252 124.673C507.252 125.04 506.908 125.298 506.409 125.298H506.189V125.922H506.453C506.981 125.922 507.34 126.187 507.34 126.569C507.34 126.936 506.988 127.186 506.49 127.186C506.123 127.186 505.757 127.068 505.376 126.84V127.575C505.786 127.751 506.197 127.847 506.6 127.847C507.56 127.847 508.22 127.355 508.22 126.642C508.22 126.142 507.912 125.738 507.399 125.577C507.838 125.43 508.124 125.04 508.124 124.6C508.124 123.909 507.516 123.439 506.636 123.439C506.24 123.443 505.848 123.528 505.486 123.689V124.409C505.837 124.21 506.197 124.1 506.541 124.1ZM509.707 125.702C510.242 125.702 510.616 126.018 510.616 126.429C510.616 126.862 510.242 127.164 509.707 127.164C509.385 127.164 509.048 127.061 508.703 126.848V127.604C509.062 127.766 509.429 127.847 509.788 127.847C509.979 127.847 510.155 127.818 510.323 127.773C510.704 127.149 510.924 126.429 510.924 125.658L510.909 125.349C510.637 125.187 510.325 125.106 510.008 125.114C509.876 125.114 509.737 125.121 509.59 125.143V124.188H510.646C510.554 123.953 510.441 123.727 510.308 123.512H508.828V125.827C509.121 125.753 509.414 125.702 509.707 125.702Z" fill="#697386"/>
</g>
</g>
<defs>
<filter id="filter0_d_1532_1800" x="398.496" y="207" width="98.3334" height="80" filterUnits="userSpaceOnUse" color-interpolation-filters="sRGB">
<feFlood flood-opacity="0" result="BackgroundImageFix"/>
<feColorMatrix in="SourceAlpha" type="matrix" values="0 0 0 0 0 0 0 0 0 0 0 0 0 0 0 0 0 0 127 0" result="hardAlpha"/>
<feOffset/>
<feGaussianBlur stdDeviation="10"/>
<feComposite in2="hardAlpha" operator="out"/>
<feColorMatrix type="matrix" values="0 0 0 0 0 0 0 0 0 0 0 0 0 0 0 0 0 0 0.07 0"/>
<feBlend mode="normal" in2="BackgroundImageFix" result="effect1_dropShadow_1532_1800"/>
<feBlend mode="normal" in="SourceGraphic" in2="effect1_dropShadow_1532_1800" result="shape"/>
</filter>
<filter id="filter1_d_1532_1800" x="333" y="207" width="98.3334" height="80" filterUnits="userSpaceOnUse" color-interpolation-filters="sRGB">
<feFlood flood-opacity="0" result="BackgroundImageFix"/>
<feColorMatrix in="SourceAlpha" type="matrix" values="0 0 0 0 0 0 0 0 0 0 0 0 0 0 0 0 0 0 127 0" result="hardAlpha"/>
<feOffset/>
<feGaussianBlur stdDeviation="10"/>
<feComposite in2="hardAlpha" operator="out"/>
<feColorMatrix type="matrix" values="0 0 0 0 0 0 0 0 0 0 0 0 0 0 0 0 0 0 0.07 0"/>
<feBlend mode="normal" in2="BackgroundImageFix" result="effect1_dropShadow_1532_1800"/>
<feBlend mode="normal" in="SourceGraphic" in2="effect1_dropShadow_1532_1800" result="shape"/>
</filter>
<filter id="filter2_d_1532_1800" x="463.991" y="207" width="98.3334" height="80" filterUnits="userSpaceOnUse" color-interpolation-filters="sRGB">
<feFlood flood-opacity="0" result="BackgroundImageFix"/>
<feColorMatrix in="SourceAlpha" type="matrix" values="0 0 0 0 0 0 0 0 0 0 0 0 0 0 0 0 0 0 127 0" result="hardAlpha"/>
<feOffset/>
<feGaussianBlur stdDeviation="10"/>
<feComposite in2="hardAlpha" operator="out"/>
<feColorMatrix type="matrix" values="0 0 0 0 0 0 0 0 0 0 0 0 0 0 0 0 0 0 0.07 0"/>
<feBlend mode="normal" in2="BackgroundImageFix" result="effect1_dropShadow_1532_1800"/>
<feBlend mode="normal" in="SourceGraphic" in2="effect1_dropShadow_1532_1800" result="shape"/>
</filter>
<filter id="filter3_dd_1532_1800" x="0" y="0" width="554" height="215" filterUnits="userSpaceOnUse" color-interpolation-filters="sRGB">
<feFlood flood-opacity="0" result="BackgroundImageFix"/>
<feColorMatrix in="SourceAlpha" type="matrix" values="0 0 0 0 0 0 0 0 0 0 0 0 0 0 0 0 0 0 127 0" result="hardAlpha"/>
<feMorphology radius="2" operator="erode" in="SourceAlpha" result="effect1_dropShadow_1532_1800"/>
<feOffset dy="4"/>
<feGaussianBlur stdDeviation="3"/>
<feColorMatrix type="matrix" values="0 0 0 0 0 0 0 0 0 0 0 0 0 0 0 0 0 0 0.05 0"/>
<feBlend mode="normal" in2="BackgroundImageFix" result="effect1_dropShadow_1532_1800"/>
<feColorMatrix in="SourceAlpha" type="matrix" values="0 0 0 0 0 0 0 0 0 0 0 0 0 0 0 0 0 0 127 0" result="hardAlpha"/>
<feMorphology radius="3" operator="erode" in="SourceAlpha" result="effect2_dropShadow_1532_1800"/>
<feOffset dy="10"/>
<feGaussianBlur stdDeviation="7.5"/>
<feColorMatrix type="matrix" values="0 0 0 0 0 0 0 0 0 0 0 0 0 0 0 0 0 0 0.1 0"/>
<feBlend mode="normal" in2="effect1_dropShadow_1532_1800" result="effect2_dropShadow_1532_1800"/>
<feBlend mode="normal" in="SourceGraphic" in2="effect2_dropShadow_1532_1800" result="shape"/>
</filter>
<filter id="filter4_dd_1532_1800" x="27" y="66.5" width="500" height="50" filterUnits="userSpaceOnUse" color-interpolation-filters="sRGB">
<feFlood flood-opacity="0" result="BackgroundImageFix"/>
<feColorMatrix in="SourceAlpha" type="matrix" values="0 0 0 0 0 0 0 0 0 0 0 0 0 0 0 0 0 0 127 0" result="hardAlpha"/>
<feOffset dy="1"/>
<feGaussianBlur stdDeviation="0.5"/>
<feColorMatrix type="matrix" values="0 0 0 0 0 0 0 0 0 0 0 0 0 0 0 0 0 0 0.04 0"/>
<feBlend mode="normal" in2="BackgroundImageFix" result="effect1_dropShadow_1532_1800"/>
<feColorMatrix in="SourceAlpha" type="matrix" values="0 0 0 0 0 0 0 0 0 0 0 0 0 0 0 0 0 0 127 0" result="hardAlpha"/>
<feOffset dy="2"/>
<feGaussianBlur stdDeviation="2.5"/>
<feColorMatrix type="matrix" values="0 0 0 0 0 0 0 0 0 0 0 0 0 0 0 0 0 0 0.08 0"/>
<feBlend mode="normal" in2="effect1_dropShadow_1532_1800" result="effect2_dropShadow_1532_1800"/>
<feBlend mode="normal" in="SourceGraphic" in2="effect2_dropShadow_1532_1800" result="shape"/>
</filter>
<filter id="filter5_dd_1532_1800" x="27" y="106.5" width="500" height="50" filterUnits="userSpaceOnUse" color-interpolation-filters="sRGB">
<feFlood flood-opacity="0" result="BackgroundImageFix"/>
<feColorMatrix in="SourceAlpha" type="matrix" values="0 0 0 0 0 0 0 0 0 0 0 0 0 0 0 0 0 0 127 0" result="hardAlpha"/>
<feOffset dy="1"/>
<feGaussianBlur stdDeviation="0.5"/>
<feColorMatrix type="matrix" values="0 0 0 0 0 0 0 0 0 0 0 0 0 0 0 0 0 0 0.04 0"/>
<feBlend mode="normal" in2="BackgroundImageFix" result="effect1_dropShadow_1532_1800"/>
<feColorMatrix in="SourceAlpha" type="matrix" values="0 0 0 0 0 0 0 0 0 0 0 0 0 0 0 0 0 0 127 0" result="hardAlpha"/>
<feOffset dy="2"/>
<feGaussianBlur stdDeviation="2.5"/>
<feColorMatrix type="matrix" values="0 0 0 0 0 0 0 0 0 0 0 0 0 0 0 0 0 0 0.08 0"/>
<feBlend mode="normal" in2="effect1_dropShadow_1532_1800" result="effect2_dropShadow_1532_1800"/>
<feBlend mode="normal" in="SourceGraphic" in2="effect2_dropShadow_1532_1800" result="shape"/>
</filter>
<clipPath id="clip0_1532_1800">
<rect width="117" height="17" fill="white" transform="translate(12 250)"/>
</clipPath>
<clipPath id="clip1_1532_1800">
<rect width="490" height="40" fill="white" transform="translate(32 109.5)"/>
</clipPath>
<clipPath id="clip2_1532_1800">
<rect width="23.5102" height="15.4286" fill="white" transform="translate(488.08 122.067)"/>
</clipPath>
</defs>
</svg>
