<svg width="136" height="40" viewBox="0 0 136 40" fill="none" xmlns="http://www.w3.org/2000/svg">
<path fill-rule="evenodd" clip-rule="evenodd" d="M38.4576 9.02421L38.4594 9.02816C38.4609 9.03132 38.4624 9.03448 38.4637 9.03765C38.4651 9.04116 38.4663 9.04467 38.467 9.04818C38.4812 9.10169 38.4886 9.1568 38.489 9.21218V17.7982C38.4892 17.908 38.4605 18.0159 38.4059 18.1112C38.3514 18.2064 38.2728 18.2858 38.178 18.3412L31.04 22.4912V30.7142C31.0401 30.8241 31.0113 30.9321 30.9565 31.0273C30.9018 31.1226 30.823 31.2019 30.728 31.2572L15.829 39.9172C15.7947 39.9358 15.7585 39.9505 15.721 39.9612C15.7163 39.9632 15.7118 39.9654 15.7072 39.9676C15.6981 39.9721 15.689 39.9765 15.679 39.9792C15.5749 40.0072 15.4651 40.0072 15.361 39.9792C15.3541 39.9772 15.3473 39.9747 15.3408 39.9718L15.333 39.9682L15.313 39.9582L15.3021 39.9545C15.2708 39.9438 15.2396 39.9332 15.21 39.9162L0.311002 31.2572C0.216219 31.2018 0.137623 31.1224 0.0830536 31.0272C0.0284841 30.9319 -0.000151817 30.824 6.05316e-07 30.7142V4.95618C0.000386108 4.90119 0.0074376 4.84646 0.0210018 4.79318C0.0241348 4.78326 0.0283584 4.77415 0.0325337 4.76515C0.0363514 4.75693 0.0401371 4.74877 0.0430018 4.74018L0.0630018 4.68718C0.0685774 4.67204 0.0752622 4.65733 0.0830018 4.64318C0.0903992 4.63085 0.0996966 4.61966 0.10902 4.60844C0.11482 4.60146 0.120633 4.59446 0.126002 4.58718C0.130945 4.58031 0.135662 4.57337 0.14036 4.56646C0.152769 4.5482 0.165044 4.53013 0.181002 4.51418C0.192514 4.50266 0.205662 4.4932 0.218876 4.48368C0.226323 4.47832 0.233794 4.47294 0.241002 4.46718C0.248029 4.46168 0.25487 4.45599 0.261694 4.45032C0.277208 4.43742 0.29264 4.42459 0.310002 4.41418L7.76 0.0841765C7.85412 0.0293656 7.96109 0.000488281 8.07 0.000488281C8.17892 0.000488281 8.28588 0.0293656 8.38 0.0841765L15.83 4.41418C15.8474 4.42459 15.8628 4.43742 15.8783 4.45031C15.8851 4.45599 15.892 4.46168 15.899 4.46718L15.92 4.48318C15.934 4.49317 15.948 4.50318 15.96 4.51418C15.9749 4.52989 15.9883 4.54696 16 4.56518L16.015 4.58718C16.0204 4.59505 16.0265 4.60241 16.0326 4.60983C16.0412 4.62028 16.05 4.6309 16.057 4.64318C16.0714 4.66853 16.0815 4.69675 16.0915 4.7248L16.097 4.74018L16.107 4.76218L16.119 4.79218C16.133 4.84571 16.1401 4.90083 16.14 4.95618V21.0442L22.348 17.4362V9.21218C22.3483 9.15712 22.3557 9.10234 22.37 9.04918C22.3728 9.03845 22.3772 9.02869 22.3816 9.01898C22.385 9.01148 22.3884 9.00402 22.391 8.99618L22.398 8.97618C22.4067 8.94958 22.4177 8.92381 22.431 8.89918C22.4387 8.88649 22.4474 8.87445 22.457 8.86318C22.4629 8.85667 22.4685 8.85001 22.474 8.84318L22.4876 8.82374C22.5006 8.80505 22.5134 8.78651 22.529 8.77018C22.5365 8.76268 22.544 8.75686 22.5515 8.75105L22.559 8.74518L22.5658 8.74046C22.5738 8.735 22.582 8.72936 22.589 8.72318L22.625 8.69318C22.6354 8.68468 22.6464 8.677 22.658 8.67018L30.108 4.34018C30.2021 4.28537 30.3091 4.25649 30.418 4.25649C30.5269 4.25649 30.6339 4.28537 30.728 4.34018L38.178 8.67018C38.1944 8.67961 38.2083 8.69141 38.2222 8.70311C38.2303 8.71001 38.2385 8.71687 38.247 8.72318L38.269 8.73918L38.2764 8.74482C38.2872 8.75297 38.2981 8.76124 38.307 8.77018C38.322 8.78613 38.3354 8.80355 38.347 8.82218L38.363 8.84318C38.3681 8.84999 38.3735 8.85666 38.379 8.86318C38.389 8.87518 38.398 8.88618 38.405 8.89918C38.4185 8.92485 38.4299 8.95161 38.439 8.97918L38.445 8.99618L38.455 9.01818L38.4576 9.02421ZM9.322 26.4532L15.518 29.9932L29.17 22.1262L22.969 18.5212L9.322 26.4532ZM29.798 21.0442V13.9042L23.59 10.2972V17.4372L29.798 21.0442ZM36.624 9.21318L30.418 5.60618L24.213 9.21318L30.418 12.8192L36.624 9.21318ZM8.691 9.64818V25.3742L14.899 21.7652V6.04018L8.69 9.64818H8.691ZM14.275 4.95618L8.07 1.35018L1.864 4.95618L8.07 8.56318L14.275 4.95618ZM7.449 9.65018L1.241 6.04018V30.3502L14.9 38.2902V31.0802L7.765 27.0042L7.763 27.0032L7.759 27.0002C7.74114 26.9895 7.72584 26.9762 7.71053 26.9629L7.70069 26.9544L7.692 26.9472C7.68481 26.942 7.67748 26.937 7.67 26.9322C7.65681 26.9233 7.64443 26.9132 7.633 26.9022L7.631 26.9002C7.61993 26.8891 7.6103 26.8759 7.60089 26.8629L7.596 26.8562C7.59083 26.8487 7.58549 26.8414 7.58 26.8342L7.55 26.7962C7.54412 26.7889 7.53878 26.7812 7.534 26.7732L7.533 26.7712C7.52331 26.7541 7.51559 26.736 7.51 26.7172L7.5 26.6932L7.485 26.6602C7.47925 26.6479 7.47456 26.6352 7.471 26.6222C7.46565 26.6002 7.4623 26.5768 7.461 26.5542L7.458 26.5292L7.45624 26.5165L7.454 26.5032L7.45258 26.4938C7.45083 26.4826 7.449 26.4709 7.449 26.4592V9.65018ZM16.14 38.2902L29.797 30.3532V23.2092L16.14 31.0792V38.2902ZM31.04 21.0432L37.248 17.4352V10.2952L31.04 13.9042V21.0432Z" fill="#9CA3AF"/>
<path d="M132.739 9.21411H136V30.3601H132.739V9.21411Z" fill="#9CA3AF"/>
<path d="M48.393 9.21511H51.834V27.2491H58.297V30.3601H48.393V9.21511Z" fill="#9CA3AF"/>
<path fill-rule="evenodd" clip-rule="evenodd" d="M70.446 18.1862C70.006 17.4812 69.384 16.9282 68.576 16.5252C67.767 16.1222 66.955 15.9202 66.137 15.9202C65.079 15.9202 64.112 16.1172 63.235 16.5102C62.3784 16.8875 61.609 17.4377 60.975 18.1262C60.3423 18.8179 59.8451 19.6221 59.509 20.4972C59.159 21.3932 58.985 22.3352 58.985 23.3212C58.9782 24.2925 59.156 25.2562 59.509 26.1612C59.8471 27.0305 60.3439 27.8294 60.974 28.5172C61.6079 29.2058 62.3773 29.756 63.234 30.1332C64.112 30.5262 65.079 30.7222 66.136 30.7222C66.955 30.7222 67.768 30.5212 68.576 30.1182C69.384 29.7162 70.007 29.1622 70.446 28.4572V30.3602H73.707V16.2832H70.446V18.1862ZM70.147 25.0432C69.9603 25.5654 69.6759 26.0473 69.309 26.4632C68.9447 26.87 68.5018 27.199 68.007 27.4302C67.498 27.6722 66.934 27.7922 66.316 27.7922C65.737 27.801 65.1637 27.6772 64.64 27.4302C64.142 27.1882 63.714 26.8662 63.354 26.4632C62.9883 26.049 62.7085 25.5663 62.531 25.0432C62.341 24.5002 62.247 23.9262 62.247 23.3222C62.2437 22.7362 62.3397 22.154 62.531 21.6002C62.72 21.0562 62.994 20.5832 63.354 20.1802C63.7147 19.7762 64.1517 19.4475 64.64 19.2132C65.139 18.9712 65.697 18.8512 66.317 18.8512C66.9003 18.8436 67.4779 18.9674 68.007 19.2132C68.5017 19.4446 68.9445 19.7735 69.309 20.1802C69.6758 20.5961 69.9602 21.078 70.147 21.6002C70.346 22.1432 70.447 22.7172 70.447 23.3222C70.449 23.909 70.3475 24.4916 70.147 25.0432Z" fill="#9CA3AF"/>
<path fill-rule="evenodd" clip-rule="evenodd" d="M95.088 16.5252C95.895 16.9282 96.518 17.4812 96.958 18.1862V16.2832H100.219V30.3602H96.958V28.4582C96.518 29.1622 95.896 29.7162 95.088 30.1182C94.279 30.5212 93.467 30.7232 92.649 30.7232C91.591 30.7232 90.624 30.5262 89.747 30.1332C88.8903 29.7561 88.1208 29.2059 87.487 28.5172C86.8566 27.8298 86.3595 27.0313 86.021 26.1622C85.671 25.2752 85.497 24.3292 85.497 23.3222C85.4931 22.356 85.6709 21.3977 86.021 20.4972C86.3567 19.6222 86.8537 18.8179 87.486 18.1262C88.12 17.4377 88.8894 16.8875 89.746 16.5102C90.624 16.1172 91.591 15.9212 92.648 15.9212C93.467 15.9212 94.28 16.1222 95.088 16.5252ZM95.82 26.4632C96.1869 26.0473 96.4713 25.5654 96.658 25.0432C96.858 24.5002 96.958 23.9262 96.958 23.3222C96.958 22.7172 96.857 22.1432 96.659 21.6002C96.459 21.0562 96.18 20.5832 95.82 20.1802C95.461 19.7782 95.028 19.4552 94.518 19.2132C94.01 18.9712 93.446 18.8512 92.828 18.8512C92.249 18.8423 91.6757 18.9662 91.152 19.2132C90.6637 19.4474 90.2266 19.7761 89.866 20.1802C89.4998 20.5939 89.22 21.0767 89.043 21.6002C88.853 22.1432 88.758 22.7172 88.758 23.3222C88.755 23.9078 88.8514 24.4897 89.043 25.0432C89.2203 25.5665 89.5 26.0492 89.866 26.4632C90.2265 26.8674 90.6636 27.1961 91.152 27.4302C91.651 27.6722 92.21 27.7922 92.828 27.7922C93.4117 27.7998 93.9896 27.6761 94.519 27.4302C95.0134 27.1989 95.456 26.87 95.82 26.4632Z" fill="#9CA3AF"/>
<path d="M76.281 30.3601H79.543V19.5231H85.139V16.2831H76.28L76.281 30.3601Z" fill="#9CA3AF"/>
<path d="M109.197 27.0631L113.296 16.2831H116.6L111.246 30.3601H107.147L101.794 16.2831H105.097L109.197 27.0631Z" fill="#9CA3AF"/>
<path fill-rule="evenodd" clip-rule="evenodd" d="M116.558 23.3211C116.558 19.2351 119.72 15.9211 123.714 15.9211C128.155 15.9211 131.183 19.8951 130.615 24.5451H119.794C119.794 25.7591 121.009 28.1071 123.893 28.1071C126.32 28.1071 127.963 25.9987 128.036 25.9063C128.037 25.9042 128.038 25.9032 128.038 25.9031L130.241 27.6241C128.271 29.7471 126.658 30.7221 124.132 30.7221C119.618 30.7221 116.558 27.8401 116.558 23.3211ZM123.688 18.5361C120.204 18.5361 119.828 21.8281 119.803 22.0981H127.619C127.595 21.8271 127.172 18.5361 123.688 18.5361Z" fill="#9CA3AF"/>
</svg>
