<svg width="138" height="38" viewBox="0 0 138 38" fill="none" xmlns="http://www.w3.org/2000/svg">
<path fill-rule="evenodd" clip-rule="evenodd" d="M37.529 7.273C37.529 3.25617 34.3002 0.000272277 30.3165 0C26.3327 0.000272275 23.103 3.25617 23.103 7.273C23.0995 9.16033 23.8291 10.9752 25.138 12.335L23.288 15.144L17.34 5.955C17.2362 5.79477 17.0927 5.66411 16.9234 5.57572C16.7542 5.48732 16.565 5.4442 16.3742 5.45054C16.1833 5.45688 15.9974 5.51247 15.8344 5.6119C15.6714 5.71133 15.5369 5.85123 15.444 6.018L5.09098 24.58H1.11098C0.497976 24.58 0.000976562 25.08 0.000976562 25.698C0.000976562 26.316 0.497977 26.816 1.10998 26.816H37.906C37.9173 26.8162 37.9286 26.8162 37.94 26.816H42.552C43.165 26.816 43.662 26.316 43.662 25.698C43.662 25.08 43.165 24.58 42.552 24.58H38.572L32.758 14.118C34.1596 13.6046 35.3693 12.6724 36.2228 11.4478C37.0764 10.2232 37.5324 8.76568 37.529 7.273ZM29.395 24.58L24.607 17.183L28.572 11.162L36.029 24.58H29.395ZM16.48 8.72L26.747 24.58H7.63498L16.48 8.72ZM34.4174 10.3861C35.0899 9.48781 35.4519 8.39514 35.449 7.273C35.449 4.414 33.151 2.097 30.316 2.097C27.481 2.097 25.182 4.414 25.182 7.273C25.1797 8.45753 25.5835 9.60707 26.326 10.53L27.728 8.4C27.8327 8.24111 27.9767 8.11191 28.146 8.02489C28.3152 7.93786 28.5041 7.89594 28.6943 7.90318C28.8844 7.91041 29.0695 7.96656 29.2317 8.0662C29.3939 8.16584 29.5276 8.30561 29.62 8.472L31.721 12.253C32.7985 11.9397 33.7449 11.2845 34.4174 10.3861Z" fill="#9CA3AF"/>
<path d="M8.51297 31.29C8.51297 30.673 9.00897 30.173 9.61997 30.173H34.041C34.652 30.173 35.148 30.673 35.148 31.29C35.148 31.906 34.652 32.406 34.04 32.406H9.61997C9.00897 32.406 8.51297 31.907 8.51297 31.29Z" fill="#9CA3AF"/>
<path d="M17.023 36.882C17.023 36.264 17.52 35.763 18.133 35.763H25.528C26.141 35.763 26.638 36.264 26.638 36.882C26.638 37.5 26.141 38 25.529 38H18.133C17.52 38 17.023 37.499 17.023 36.882Z" fill="#9CA3AF"/>
<path fill-rule="evenodd" clip-rule="evenodd" d="M120.027 16.871C119.045 15.621 117.574 14.948 115.68 14.948C112.696 14.948 109.631 17.476 109.631 21.734C109.631 25.992 112.696 28.52 115.68 28.52C117.574 28.52 119.045 27.86 120.027 26.597V27.655C120.027 30.1 118.555 31.584 115.885 31.584C114.291 31.584 112.778 31.061 111.457 30.251L110.421 32.683C111.797 33.672 113.936 34.208 115.885 34.208C120.245 34.208 122.888 31.667 122.888 27.531V15.291H120.027V16.871ZM112.56 21.734C112.56 19.509 114.004 17.654 116.415 17.654C118.718 17.654 120.272 19.427 120.272 21.734C120.272 24.042 118.718 25.814 116.415 25.814C114.004 25.814 112.56 23.947 112.56 21.734Z" fill="#9CA3AF"/>
<path fill-rule="evenodd" clip-rule="evenodd" d="M104.341 16.885C103.442 15.717 102.093 14.948 100.24 14.948C96.59 14.948 93.714 17.846 93.714 21.871C93.714 25.896 96.589 28.795 100.24 28.795C102.094 28.795 103.442 28.04 104.341 26.872V28.452H107.189V15.292H104.341V16.885ZM96.643 21.871C96.643 19.564 98.129 17.654 100.581 17.654C102.938 17.654 104.519 19.467 104.519 21.871C104.519 24.275 102.938 26.089 100.581 26.089C98.129 26.089 96.643 24.179 96.643 21.871Z" fill="#9CA3AF"/>
<path fill-rule="evenodd" clip-rule="evenodd" d="M138 21.858C137.987 17.751 135.48 14.948 131.828 14.948C127.986 14.948 125.329 17.751 125.329 21.872C125.329 26.048 128.095 28.796 132.005 28.796C133.981 28.796 135.779 28.316 137.373 26.942L135.956 24.894C134.88 25.759 133.49 26.282 132.182 26.282C130.329 26.282 128.681 25.292 128.299 22.929H137.946C137.973 22.6 138 22.229 138 21.858ZM128.313 20.745C128.613 18.822 129.743 17.503 131.773 17.503C133.586 17.503 134.771 18.698 135.084 20.745H128.313Z" fill="#9CA3AF"/>
<path d="M64.3325 22.9558L58.787 9.21906H54.059V28.4521H57.139V12.7771L62.71 26.5701H65.953L71.526 12.6261V28.4521H74.606V9.21906H69.877L64.3325 22.9558Z" fill="#9CA3AF"/>
<path d="M81.204 15.2921V28.4521H78.343V15.2921H81.204Z" fill="#9CA3AF"/>
<path d="M93.386 15.3191C93.386 15.3191 93.3859 15.319 93.386 15.3191V15.3191Z" fill="#9CA3AF"/>
<path d="M91.192 14.9491C92.0639 14.9491 92.732 15.0581 93.386 15.3191L92.704 18.1611C92.105 17.8451 91.233 17.6801 90.538 17.6801C88.726 17.6801 87.432 18.9721 87.432 21.2101V28.4501H84.584V15.2901H87.404V16.7751C88.262 15.5251 89.598 14.9491 91.192 14.9491Z" fill="#9CA3AF"/>
<path d="M79.759 8.71106C80.89 8.71106 81.776 9.60406 81.776 10.7441C81.776 11.8841 80.89 12.7501 79.759 12.7501C78.629 12.7501 77.769 11.8841 77.769 10.7441C77.769 9.60406 78.629 8.71106 79.759 8.71106Z" fill="#9CA3AF"/>
</svg>
