<svg width="148" height="27" viewBox="0 0 148 27" fill="none" xmlns="http://www.w3.org/2000/svg">
<path fill-rule="evenodd" clip-rule="evenodd" d="M29.7769 22.6769C29.7769 25.1199 28.9269 26.1189 26.6119 26.1189H6.06988C3.75388 26.1189 2.90488 25.1199 2.90488 22.6769V17.9199C2.90488 15.6259 1.79988 14.3299 0.737884 13.7359C0.664822 13.6916 0.604413 13.6293 0.562487 13.5548C0.520561 13.4804 0.498535 13.3964 0.498535 13.3109C0.498535 13.2255 0.520561 13.1415 0.562487 13.0671C0.604413 12.9926 0.664822 12.9302 0.737884 12.8859C1.84288 12.1849 2.90488 10.7189 2.90488 8.76494V4.08994C2.90488 1.45594 3.62688 0.689941 5.94188 0.689941H26.7399C29.0559 0.689941 29.7779 1.45594 29.7779 4.08994V8.76294C29.7779 10.7169 30.8399 12.1829 31.9439 12.8829C32.2639 13.0959 32.2639 13.5429 31.9439 13.7329C30.8819 14.3489 29.7779 15.6449 29.7779 17.9179V22.6759L29.7769 22.6769ZM10.3189 19.5549C11.9969 21.0199 13.8029 21.7639 16.2889 21.7639C20.1969 21.7639 22.7459 19.8099 22.7459 16.6439C22.7459 13.2919 19.7099 12.4369 17.2409 11.7419C15.5479 11.2649 14.1209 10.8629 14.1209 9.78294C14.1209 9.08294 14.8649 8.40294 16.1179 8.40294C17.3289 8.40294 18.3279 8.65794 19.2829 9.14594C19.6019 9.29494 19.8989 9.40094 20.1749 9.40094C20.5789 9.40094 20.8979 9.20994 21.1739 8.82794L21.5559 8.25394C21.7049 8.04194 21.7689 7.80794 21.7689 7.55394C21.7689 7.12794 21.5559 6.70394 21.2379 6.49094C19.9629 5.68394 18.2419 5.00394 15.9059 5.00394C12.5919 5.00394 10.0429 6.74594 10.0429 9.86794C10.0429 13.3589 13.1449 14.2449 15.6289 14.9529C17.2859 15.4259 18.6669 15.8199 18.6669 16.8569C18.6669 17.8549 17.7329 18.3439 16.5639 18.3439C15.1602 18.3573 13.7846 17.9505 12.6139 17.1759C12.2519 16.9419 11.9119 16.7929 11.5509 16.7929C11.2319 16.7929 10.9559 16.9419 10.7009 17.2609L10.1909 17.9189C10.0009 18.1319 9.93688 18.4079 9.93688 18.6629C9.93688 18.9809 10.0429 19.2999 10.3189 19.5549ZM42.0549 17.5999C41.7789 17.5999 41.5449 17.7069 41.3329 17.9829L40.9079 18.5779C40.7379 18.7679 40.6949 19.0019 40.6949 19.2149C40.6949 19.4909 40.8009 19.7669 41.0349 19.9799C42.4369 21.1899 43.9669 21.8279 46.0699 21.8279C49.3619 21.8279 51.5289 20.1709 51.5289 17.5149C51.5289 14.6909 48.9609 13.9699 46.8749 13.3839C45.4459 12.9819 44.2429 12.6439 44.2429 11.7379C44.2429 11.1219 44.8799 10.5689 45.9209 10.5689C46.8442 10.5657 47.7548 10.7845 48.5759 11.2069L48.6399 11.2309C48.8919 11.3289 49.1249 11.4189 49.3399 11.4189C49.6599 11.4189 49.9359 11.2699 50.1699 10.9299L50.5099 10.4419C50.6246 10.2572 50.6837 10.0434 50.6799 9.82594C50.6799 9.46494 50.5099 9.10394 50.2329 8.93394C49.1499 8.21094 47.7049 7.65894 45.7299 7.65894C42.9469 7.65894 40.7799 9.14594 40.7799 11.7799C40.7799 14.7069 43.3949 15.4539 45.4919 16.0519C46.8949 16.4519 48.0659 16.7869 48.0659 17.6639C48.0659 18.5349 47.2799 18.9389 46.2819 18.9389C44.9859 18.9389 43.9019 18.5779 42.9469 17.9399C42.6709 17.7279 42.3309 17.5999 42.0549 17.5999ZM62.3409 19.8949C62.3443 19.7137 62.2923 19.5358 62.1919 19.3849L61.9159 18.9389C61.6609 18.4929 61.3639 18.3229 60.9809 18.3229C60.7909 18.3229 60.5779 18.3649 60.3009 18.4709C60.0259 18.5779 59.7069 18.6199 59.3459 18.6199C58.2199 18.6199 57.7309 17.6429 57.7309 16.1769V11.2499H60.9809C61.5969 11.2499 62.1069 10.7399 62.1069 10.1239V9.10394C62.1069 8.48894 61.5969 7.97894 60.9809 7.97894H57.7309V5.34494C57.7309 4.72894 57.2209 4.21894 56.6059 4.21894H55.3949C54.7789 4.21894 54.2689 4.72894 54.2689 5.34494V16.3049C54.2689 19.7679 55.4159 21.7439 58.4539 21.7439C59.7919 21.7439 60.8119 21.4679 61.8309 20.8509C62.1709 20.6809 62.3409 20.2779 62.3409 19.8959V19.8949ZM69.2229 13.1399C66.4829 13.1399 64.2949 14.5419 64.2949 17.5149C64.2949 20.1279 66.0579 21.6579 68.4589 21.6789C70.2849 21.6789 71.7289 20.9779 72.4519 19.9589V20.4039C72.4519 21.0199 72.9619 21.5299 73.5779 21.5299H74.3639C74.9799 21.5299 75.4899 21.0199 75.4899 20.4039V13.3099C75.4899 9.74194 74.1089 7.70294 70.1159 7.70294C68.7349 7.70294 67.3959 8.06294 66.2279 8.59494C65.8679 8.76494 65.5909 9.16794 65.5909 9.55094C65.596 9.67333 65.6238 9.7937 65.6729 9.90594C65.6889 9.95094 65.7059 9.99594 65.7179 10.0389L65.8879 10.3999C66.1009 10.8249 66.4619 11.0379 66.9079 11.0379C67.0419 11.0379 67.1889 10.9979 67.3289 10.9599L67.4389 10.9309C68.0759 10.7189 68.7349 10.5709 69.7539 10.5709C71.6239 10.5709 72.2609 11.6319 72.2609 13.6079V14.0119C71.6019 13.5229 70.4129 13.1409 69.2229 13.1409V13.1399ZM69.9029 15.4549C70.8799 15.4549 71.6449 15.6669 72.2609 16.1139H72.2819V17.5149C71.8569 18.0889 71.1139 18.7259 69.6689 18.7259C68.5649 18.7259 67.7359 18.1529 67.7359 17.1329C67.7359 15.9859 68.7559 15.4549 69.9029 15.4549ZM86.8119 19.8949C86.8153 19.7137 86.7633 19.5358 86.6629 19.3849L86.3869 18.9389C86.1319 18.4929 85.8349 18.3229 85.4519 18.3229C85.2619 18.3229 85.0489 18.3649 84.7719 18.4709C84.4959 18.5779 84.1779 18.6199 83.8169 18.6199C82.6909 18.6199 82.2019 17.6429 82.2019 16.1769V11.2499H85.4519C86.0679 11.2499 86.5779 10.7399 86.5779 10.1239V9.10394C86.5779 8.48894 86.0679 7.97894 85.4519 7.97894H82.2019V5.34494C82.2019 4.72894 81.6919 4.21894 81.0759 4.21894H79.8659C79.2499 4.21894 78.7399 4.72894 78.7399 5.34494V16.3049C78.7399 19.7679 79.8869 21.7439 82.9239 21.7439C84.2629 21.7439 85.2819 21.4679 86.3019 20.8509C86.6419 20.6809 86.8119 20.2779 86.8119 19.8959V19.8949ZM93.6939 13.1399C90.9539 13.1399 88.7659 14.5419 88.7659 17.5149C88.7659 20.1279 90.5499 21.6579 92.9289 21.6789C94.7559 21.6789 96.2009 20.9779 96.9229 19.9589V20.4039C96.9229 21.0199 97.4329 21.5299 98.0489 21.5299H98.8349C99.4509 21.5299 99.9609 21.0199 99.9609 20.4039V13.3099C99.9609 9.74194 98.5799 7.70294 94.5859 7.70294C93.2059 7.70294 91.8669 8.06294 90.6989 8.59494C90.3379 8.76494 90.0619 9.16794 90.0619 9.55094C90.067 9.67333 90.0948 9.7937 90.1439 9.90594C90.1599 9.95094 90.1769 9.99594 90.1889 10.0389L90.3589 10.3999C90.5719 10.8249 90.9329 11.0379 91.3789 11.0379C91.5129 11.0379 91.6599 10.9979 91.7989 10.9599L91.9089 10.9309C92.5469 10.7189 93.2059 10.5709 94.2249 10.5709C96.0949 10.5709 96.7319 11.6319 96.7319 13.6079V14.0119C96.0729 13.5229 94.8839 13.1409 93.6939 13.1409V13.1399ZM94.3739 15.4549C95.3509 15.4549 96.1159 15.6669 96.7319 16.1139H96.7529V17.5149C96.3279 18.0889 95.5849 18.7259 94.1399 18.7259C93.0359 18.7259 92.2069 18.1529 92.2069 17.1329C92.2069 15.9859 93.2269 15.4549 94.3739 15.4549ZM111.176 7.74494C109.519 7.74494 107.926 8.40294 106.97 9.46494H106.907V9.08194C106.907 8.46594 106.397 7.95594 105.781 7.95594H104.57C103.954 7.95594 103.444 8.46594 103.444 9.08194V20.3619C103.444 20.9779 103.954 21.4879 104.57 21.4879H105.781C106.397 21.4879 106.907 20.9779 106.907 20.3619V12.4169C107.523 11.5039 108.521 10.9729 109.732 10.9729C111.176 10.9729 111.962 11.8859 111.962 13.3099V20.3199C111.962 20.9349 112.472 21.4449 113.088 21.4449H114.299C114.915 21.4449 115.425 20.9349 115.425 20.3189V13.5009C115.425 13.3249 115.418 13.1049 115.413 12.9069C115.408 12.7449 115.403 12.5969 115.403 12.5019C115.871 11.5889 116.89 10.9519 118.186 10.9519C119.822 10.9519 120.502 11.8649 120.502 13.5429V20.3619C120.502 20.9779 121.011 21.4879 121.627 21.4879H122.838C123.454 21.4879 123.964 20.9779 123.964 20.3619V12.6719C123.964 8.95494 122.116 7.74394 119.652 7.74394C117.57 7.74394 116.062 8.63594 115.106 9.91094C114.618 8.67894 113.237 7.74394 111.176 7.74394V7.74494ZM129.784 5.27994C130.761 5.27994 131.76 4.49394 131.76 3.11294C131.76 1.90294 130.761 1.11694 129.784 1.11694C128.616 1.11694 127.618 1.90294 127.618 3.11294C127.618 4.49394 128.616 5.27994 129.784 5.27994ZM131.441 9.10394C131.441 8.48794 130.931 7.97794 130.315 7.97794V7.95594H129.105C128.489 7.95594 127.979 8.46594 127.979 9.08194V20.3619C127.979 20.9779 128.489 21.4879 129.105 21.4879H130.315C130.931 21.4879 131.441 20.9779 131.441 20.3619V9.10394ZM142.381 10.8879C143.252 10.8879 143.953 11.0369 144.76 11.4189C144.903 11.4989 145.058 11.5299 145.198 11.5589L145.333 11.5889C145.737 11.5889 146.119 11.3339 146.353 10.9519L146.799 10.1659C146.905 10.0169 146.927 9.84694 146.927 9.67694C146.927 9.29494 146.735 8.84894 146.396 8.67894C145.079 7.95594 143.762 7.65894 141.956 7.65894C137.835 7.65894 134.967 10.8029 134.967 14.7329C134.967 18.9809 137.92 21.8059 142.381 21.8059C144.059 21.8059 145.482 21.5089 147.097 20.2129C147.351 20.0219 147.5 19.6179 147.5 19.2569C147.5 19.0239 147.436 18.7899 147.288 18.6409L146.778 18.0039C146.665 17.8643 146.523 17.7518 146.361 17.6746C146.199 17.5974 146.022 17.5575 145.843 17.5579C145.61 17.5579 145.355 17.6429 145.121 17.7919C144.335 18.3019 143.57 18.5779 142.508 18.5779C140.469 18.5779 138.621 17.0909 138.621 14.7119C138.621 12.3539 140.448 10.8879 142.381 10.8879Z" fill="#9CA3AF"/>
</svg>
