<svg width="106" height="39" viewBox="0 0 106 39" fill="none" xmlns="http://www.w3.org/2000/svg">
<path fill-rule="evenodd" clip-rule="evenodd" d="M0.5 6L18.5 0V9.5L24.5 7.5V39L6.5 33V27.5L0.5 25.5V6ZM18.5 31.5L8.5 28.167V31.56L22.5 36.225V10.275L18.5 11.608V31.5Z" fill="#9CA3AF"/>
<path d="M43.4 27V16.451H39.89V13.058H51.376V16.45H47.846V27H43.4Z" fill="#9CA3AF"/>
<path d="M59.981 27.254C55.905 27.254 53.605 25.226 53.605 21.248V13.058H58.011V21.073C58.011 22.886 58.401 23.783 59.981 23.783C61.541 23.783 61.931 22.886 61.931 21.053V13.058H66.377V21.209C66.377 25.401 63.881 27.254 59.981 27.254Z" fill="#9CA3AF"/>
<path fill-rule="evenodd" clip-rule="evenodd" d="M69.465 27V13.058H75.023C79.04 13.058 80.756 14.852 80.756 17.835V17.913C80.756 20.819 78.826 22.457 75.218 22.457H73.872V27H69.465ZM74.788 19.493H73.872V16.353H74.808C75.958 16.353 76.563 16.783 76.563 17.855V17.933C76.563 18.966 75.958 19.493 74.788 19.493Z" fill="#9CA3AF"/>
<path d="M83.063 13.058V27H92.56V23.588H87.49V13.058H83.063Z" fill="#9CA3AF"/>
<path d="M95.062 27V13.058H104.968V16.451H99.469V18.421H103.837V21.521H99.469V23.607H105.28V27H95.062Z" fill="#9CA3AF"/>
</svg>
